<svg width="48" height="70" viewBox="0 0 48 70" fill="none" xmlns="http://www.w3.org/2000/svg">
<path fill-rule="evenodd" clip-rule="evenodd" d="M31.0286 0.058289C29.8571 0.184805 28.7351 0.507972 27.7394 1.00546C26.9883 1.38065 26.9583 1.385 27.0314 1.10868C27.1175 0.782794 27.0692 0.800906 26.1653 1.43226L25.6102 1.81984L25.0366 1.54557C24.0941 1.09479 22.9508 0.862734 21.6732 0.862734C20.6585 0.862734 20.4806 0.830458 20.5472 0.658457C20.6434 0.410327 20.4422 0.390581 20.2019 0.62441C20.061 0.761685 20.0452 0.722055 20.1206 0.420133C20.2486 -0.0930127 20.0265 -0.0546086 19.512 0.525268C19.1678 0.913123 19.0203 0.988433 18.7409 0.918979C18.4791 0.854019 18.3953 0.886294 18.3953 1.0523C18.3953 1.22267 18.2502 1.27143 17.7417 1.27211C15.9129 1.27429 13.2087 1.92321 11.5269 2.76347C9.08433 3.98382 6.58905 6.66368 5.94204 8.76147C5.88425 8.94873 5.62156 9.33958 5.35819 9.63006C4.75522 10.2949 4.4141 11.0531 4.24196 12.1105C4.04381 13.3286 3.78815 13.8316 3.21104 14.1393C2.68774 14.4182 2.60876 14.5402 2.85452 14.6906C2.94671 14.7469 2.90873 14.8491 2.75131 14.9684C2.56775 15.1073 2.54587 15.1857 2.66806 15.2659C2.79301 15.3481 2.75228 15.5976 2.50335 16.2763C2.31305 16.7953 2.1061 17.8042 2.01542 18.6552C1.89267 19.808 1.76746 20.3169 1.44602 20.9696C1.0156 21.8438 0.717136 23.6095 1.03252 23.4166C1.14467 23.348 1.16476 23.6144 1.10573 24.383C1.04587 25.1613 1.08343 25.6409 1.24663 26.1823C1.3691 26.5882 1.43418 26.9559 1.39139 26.9994C1.34859 27.0428 1.05468 27.1465 0.73819 27.2297L0.163011 27.381L0.575819 27.552L0.988626 27.7229L0.438216 27.8914C-0.1038 28.0573 -0.106965 28.062 0.231813 28.1996C0.421016 28.2764 0.69457 28.3619 0.83974 28.3897C1.08109 28.4359 1.10628 28.5858 1.13435 30.1425C1.18223 32.7935 1.64554 34.5005 2.31718 34.5005C3.18352 34.5005 3.97831 35.4848 5.02396 37.8528C5.37856 38.6559 5.74568 39.3383 5.83994 39.3693C6.04056 39.4355 6.06561 38.4491 5.88645 37.5326C5.77857 36.9811 5.78696 36.9593 6.08116 37.0324L6.3887 37.1088L6.05061 35.9748C5.54478 34.2782 5.46139 31.8338 5.85631 30.2787C6.018 29.6421 6.30325 28.7534 6.49025 28.304C6.96566 27.1612 6.92892 27.004 6.32072 27.5794C5.85769 28.0174 5.32599 28.3721 5.13225 28.3721C5.09303 28.3721 5.35874 28.0774 5.7227 27.7172C6.43479 27.0125 6.9819 25.8437 6.96456 25.0645L6.95493 24.627L6.6895 25.2186C6.3265 26.0281 5.9441 26.5342 5.4208 26.8979L4.9791 27.2049L5.41736 26.7044C6.62331 25.3272 7.09267 23.7881 6.99621 21.5288C6.98011 21.1531 6.9142 21.0181 6.7466 21.0181C6.53676 21.0181 6.53731 20.998 6.75252 20.7626C6.9691 20.5258 6.96952 20.5006 6.75843 20.4205C6.56345 20.3465 6.55767 20.3015 6.71798 20.1092C6.86907 19.928 6.87099 19.8728 6.72775 19.8251C6.5896 19.7791 6.58643 19.7226 6.71316 19.5714C6.82737 19.4353 6.85311 18.9602 6.79903 17.9881L6.7217 16.5996L7.4697 15.4638C9.26954 12.7311 10.7646 11.7951 12.6555 12.217C14.5828 12.6472 15.7819 12.6103 16.9623 12.0848L17.5009 11.8451L16.2625 11.7466C14.5137 11.6077 13.5666 11.2221 12.5826 10.2482C11.6301 9.30553 11.5185 8.96629 12.444 9.82685C12.8036 10.161 13.5621 10.6555 14.1297 10.9257C15.0929 11.3843 15.2489 11.4169 16.4689 11.416C17.1879 11.4154 17.8935 11.3468 18.037 11.2633C18.2663 11.13 18.2079 11.0825 17.5554 10.8699C16.3513 10.4778 15.3326 9.67854 14.6947 8.62529C14.2377 7.87096 14.357 7.85421 14.9209 8.59369C15.5028 9.3566 16.052 9.84196 16.7131 10.1775C17.2429 10.4464 18.6121 10.7198 18.8131 10.597C18.8899 10.55 18.6381 10.2316 18.2536 9.88949C17.2018 8.95363 16.8408 8.15068 16.7976 6.6506L16.7623 5.42494L16.8835 6.47261C17.1132 8.45519 17.9546 9.63006 19.6135 10.2847C20.2893 10.5512 20.646 10.5918 22.3511 10.5956C23.4294 10.5981 24.3118 10.6139 24.312 10.6307C24.3121 10.6476 24.0801 10.7829 23.7962 10.9312C22.4911 11.6131 25.098 10.9249 26.8579 10.1229C28.0076 9.59901 29.8356 9.17003 30.9184 9.17003C32.1407 9.17003 33.0719 9.46541 34.1474 10.1941L35.0417 10.8L35.2807 10.4391C35.4121 10.2406 35.6307 9.67473 35.7665 9.18147C36.008 8.30498 36.0119 8.30008 35.9364 8.96575C35.8911 9.36463 35.6089 10.1544 35.2549 10.8723C34.3005 12.8086 34.1573 14.1472 34.7596 15.5026C35.2548 16.617 36.1587 17.3828 37.4533 17.7848C38.2305 18.0263 38.8981 18.1518 38.8981 18.0568C38.8981 18.0216 38.5885 17.7053 38.2101 17.3537C37.5914 16.7788 37.5221 16.6554 37.5221 16.1291C37.5221 15.2984 37.8095 14.7971 38.8611 13.7941C39.368 13.3106 39.6611 13.0608 39.5124 13.2388C39.2456 13.5585 39.2454 13.5644 39.5082 13.7155C41.0197 14.5838 42.2006 16.8743 42.2006 18.9372C42.2006 19.3319 42.2855 19.6597 42.4283 19.8158C42.6409 20.0484 42.6395 20.0648 42.407 20.0648C42.1666 20.0648 42.1666 20.0744 42.407 20.3372C42.631 20.5822 42.633 20.6096 42.4283 20.6096C42.1772 20.6096 42.122 20.8178 42.3382 20.95C42.5532 21.0816 42.5003 21.2524 42.2222 21.3244C42.0188 21.377 41.951 21.5755 41.8791 22.3276C41.7664 23.5099 41.7816 25.1056 41.9139 25.9889C42.0093 26.6251 42.0257 26.6475 42.1633 26.3293C42.3031 26.0065 42.316 26.0029 42.4144 26.2613C42.7455 27.1297 43.3328 28.2999 43.7091 28.8414C43.9842 29.237 44.1889 29.7488 44.2712 30.2458C44.4256 31.179 44.4304 34.9815 44.2782 35.8964C44.1574 36.6228 44.2859 36.7278 44.6116 36.1687C44.8204 35.8103 44.8266 35.8431 44.7571 36.928C44.6698 38.2897 44.8007 38.3266 45.4653 37.128C46.5067 35.2496 47.0469 31.7407 47.07 26.7045C47.0842 23.5922 47.1039 23.3346 47.3263 23.334C47.6033 23.3331 47.6438 23.0552 47.4019 22.8158C47.2736 22.6887 47.2964 22.6519 47.5051 22.6503C48.0825 22.6458 48.1513 22.4447 47.729 21.9972C47.2222 21.4602 47.0409 20.7492 46.9426 18.913C46.8998 18.1128 46.8079 17.3097 46.7381 17.1284C46.6685 16.9471 46.6433 16.7169 46.6821 16.6168C46.7209 16.5167 46.6863 16.2619 46.6051 16.0506C46.47 15.6987 46.477 15.6824 46.689 15.8566C46.9026 16.032 46.9126 15.9941 46.8178 15.366C46.6845 14.4814 46.4007 13.8218 45.9557 13.3621C45.7089 13.107 45.5015 12.6159 45.2888 11.783C44.9349 10.3977 44.5966 9.67296 43.8279 8.65416C43.3343 7.99979 42.319 7.12725 42.0514 7.12725C41.9921 7.12725 41.9178 7.29571 41.8863 7.50176C41.8431 7.7838 41.8237 7.74185 41.8076 7.33153C41.7115 4.88387 39.7683 2.286 37.5426 1.62987C37.1907 1.52609 36.4998 1.22158 36.0074 0.953298C34.5651 0.167646 32.8576 -0.139452 31.0286 0.058289ZM18.3265 26.1932C18.2798 26.2681 17.924 26.3293 17.536 26.3293C15.9788 26.3293 13.4008 27.3031 12.1904 28.3486C10.6592 29.6711 10.2153 30.1568 10.4204 30.2853C10.8985 30.5846 11.659 30.4127 13.133 29.6721C15.4932 28.4864 17.3193 28.1593 19.3292 28.5624C19.9474 28.6863 20.7376 28.9084 21.0853 29.0559L21.7175 29.3241L22.1706 28.8486C22.4198 28.587 22.9108 28.2475 23.2617 28.0939C23.6124 27.9403 23.8994 27.7627 23.8994 27.6991C23.8994 27.4993 21.6389 26.4807 20.7196 26.2662C19.7121 26.0311 18.4518 25.9927 18.3265 26.1932ZM32.5996 26.526C32.0494 26.7025 31.4489 26.9442 31.2653 27.0631C31.0817 27.1821 30.8354 27.243 30.7179 27.1985C30.6001 27.1537 30.5044 27.1885 30.5044 27.2761C30.5044 27.3634 30.4427 27.3972 30.3673 27.3511C30.292 27.305 30.1533 27.4344 30.0593 27.6386C29.9213 27.9385 29.9227 28.0213 30.0668 28.0688C30.1648 28.1013 30.5207 28.3359 30.8574 28.5904C31.1943 28.8448 31.5233 29.0531 31.5887 29.0531C31.6539 29.0531 32.4119 28.8387 33.2731 28.5768C35.1627 28.0021 35.8355 27.9826 37.6941 28.4488C38.4594 28.6408 39.3065 28.7854 39.5766 28.7703C39.8467 28.7551 40.2425 28.7897 40.4562 28.847C40.6898 28.9098 40.9028 28.8939 40.9905 28.8071C41.1611 28.6382 39.4184 27.4537 38.2237 26.9265C36.3754 26.1108 34.3462 25.9663 32.5996 26.526ZM24.5874 27.9382C22.8715 28.3822 21.973 29.1737 21.973 30.2415C21.973 30.4895 21.8441 30.7596 21.6312 30.9576L21.2894 31.2753L20.7061 31.0153C20.2406 30.8079 19.802 30.7554 18.5367 30.7554C17.0441 30.7554 16.8967 30.7806 16.0392 31.1827C14.9521 31.6925 14.1118 32.4112 13.6077 33.2625C13.2385 33.886 13.1631 34.6381 13.3091 36.2413C13.3647 36.8506 13.198 36.9777 12.587 36.792C11.7284 36.5312 10.9177 37.035 10.7961 37.9051C10.7523 38.2172 10.6548 38.4192 10.1702 39.1988C9.74468 39.8836 9.66226 40.2204 9.67038 41.2416C9.67781 42.1872 9.75652 42.5291 10.2654 43.8291C12.5148 49.5753 13.3506 53.3956 13.7111 59.578C13.9266 63.2727 14.5427 65.632 16.0257 68.44C16.7954 69.8974 17.0119 70.1386 17.3713 69.9395C17.5222 69.856 17.4473 69.644 17.0134 68.927C15.7505 66.8401 14.767 63.7148 14.5378 61.0601C14.4632 60.1968 14.3088 58.3764 14.1946 57.0147C13.7905 52.1968 13.1549 49.6346 10.7045 42.9439C10.2575 41.7236 10.1783 40.9492 10.4279 40.2405C10.5568 39.8745 10.6465 39.8117 11.0402 39.8117C11.2939 39.8117 11.551 39.7351 11.6115 39.6414C11.6721 39.5479 11.9661 39.4632 12.2651 39.4532C12.6876 39.4393 12.8944 39.3403 13.194 39.0085C13.4059 38.7738 13.5793 38.4309 13.5793 38.2465C13.5793 38.0462 13.7078 37.828 13.8989 37.7041C14.1976 37.5103 14.2842 37.5302 15.224 38.0074C16.2157 38.511 16.2514 38.5179 17.8284 38.5179C19.3382 38.5179 19.4787 38.4938 20.3465 38.0869C22.6989 36.9841 23.7825 34.8736 22.9399 33.0365L22.6745 32.4578L23.115 32.2364C23.919 31.8323 23.9369 31.7868 23.4883 31.2812C22.765 30.4658 22.7506 29.7082 23.4496 29.2433C24.9624 28.2369 28.9799 28.3227 30.1393 29.386C30.6532 29.8575 30.597 30.23 29.8739 31.1415C29.5271 31.5786 29.264 31.9507 29.2892 31.9685C29.3142 31.9863 29.5824 32.0923 29.8851 32.2041C30.3196 32.3644 30.4211 32.4629 30.3668 32.6708C30.3289 32.8157 30.2982 33.3633 30.2985 33.8876C30.2992 35.0237 30.5734 35.6636 31.4183 36.5009C32.4762 37.5492 33.8436 38.0594 35.5859 38.0556C37.409 38.0516 39.0334 37.2225 39.8231 35.893C40.155 35.3343 40.2053 35.1059 40.2053 34.16C40.2053 33.2221 40.1537 32.9836 39.8345 32.4462C38.4287 30.0797 35.0022 29.2087 32.3716 30.5493C31.4211 31.0337 31.2575 30.9637 31.3114 30.0954C31.3752 29.0672 30.4767 28.3149 28.6854 27.897C27.5477 27.6314 25.7016 27.6501 24.5874 27.9382ZM36.0361 30.8402C37.4871 31.1446 38.5842 31.8842 39.0978 32.9041C39.7347 34.169 39.4738 35.3534 38.3481 36.3071C37.5397 36.9918 36.5206 37.2724 35.1363 37.1912C33.7936 37.1124 32.9668 36.7867 32.0982 35.9944C30.1375 34.2056 31.0505 31.5542 33.8597 30.8796C34.7706 30.6607 35.1479 30.6539 36.0361 30.8402ZM20.2373 31.7377C21.9603 32.2745 22.8049 33.9142 22.1235 35.3994C21.0524 37.7335 16.9995 38.5838 15.0038 36.8932C13.9425 35.9941 13.7259 34.9462 14.3468 33.7133C15.2828 31.8542 17.8491 30.9936 20.2373 31.7377ZM12.4875 37.6375C12.8775 37.8441 12.8337 38.4196 12.4138 38.6089C12.1538 38.7261 12.0242 38.7215 11.8633 38.5894C11.6118 38.3828 11.5877 37.8878 11.8179 37.66C12.0201 37.4599 12.1442 37.4557 12.4875 37.6375ZM25.223 43.8132C25.1293 44.1827 23.5713 45.6676 23.2772 45.6676C23.1707 45.6676 23.0173 45.7902 22.9362 45.94C22.8552 46.0898 22.6916 46.2124 22.5727 46.2124C22.4431 46.2124 22.3862 46.2893 22.4308 46.4045C22.5165 46.6253 21.1691 47.3734 19.6994 47.9208C18.5713 48.341 17.8185 48.7152 17.0433 49.2407C16.6631 49.4985 16.2746 49.6442 15.9675 49.6442C15.6121 49.6442 15.5061 49.694 15.5607 49.8349C15.6049 49.9489 15.547 50.0256 15.4165 50.0256C15.2665 50.0256 15.2207 50.1101 15.27 50.2966C15.3238 50.5002 15.1401 50.7457 14.5315 51.2839L13.7214 52.0002L13.856 52.545C14.1028 53.5442 14.5254 57.1528 14.6133 59.0138C14.6978 60.8016 14.9542 62.7537 15.2467 63.8361C15.3924 64.3755 16.8121 66.0179 17.0217 65.8896C17.0789 65.8548 17.1579 65.9479 17.1972 66.0969C17.2759 66.3947 17.5601 66.4683 17.586 66.1975C17.5949 66.104 17.6449 66.2112 17.6969 66.4359C17.7489 66.6606 17.8654 66.829 17.9558 66.8104C18.0462 66.7916 18.1201 66.836 18.1201 66.9088C18.1201 67.1461 19.5392 67.9968 20.6323 68.415C23.9442 69.6817 28.6264 69.6406 31.8042 68.3169C32.8816 67.8681 34.082 67.101 34.082 66.8613C34.082 66.7563 34.1905 66.679 34.3228 66.6893C34.4925 66.7027 34.5771 66.5907 34.6095 66.31C34.6436 66.0142 34.6868 65.9617 34.7776 66.1058C34.8706 66.2534 34.9581 66.2643 35.1446 66.1514C35.6962 65.8172 37.1523 63.9062 37.7297 62.7589C38.3037 61.6182 39.0357 59.2473 39.0357 58.5294C39.0357 58.3571 39.1377 58.1152 39.2622 57.992C39.4771 57.7793 39.5241 57.6062 39.6347 56.6169C39.6607 56.3847 39.7123 56.1396 39.7492 56.0722C39.7862 56.0048 39.8086 55.5716 39.7993 55.1096L39.7822 54.2695L40.3721 54.1819C40.6967 54.1339 40.9621 54.0447 40.9621 53.9838C40.9621 53.784 38.1596 51.2004 37.0407 50.3689C35.7297 49.3943 33.835 48.2483 32.7506 47.7737C31.7278 47.326 31.0142 46.786 31.1119 46.5338C31.1536 46.4262 31.0959 46.3034 30.9836 46.2607C30.8713 46.2181 30.7796 46.1019 30.7796 46.0027C30.7796 45.9034 30.6403 45.7801 30.47 45.7288C30.0044 45.5884 29.7145 45.2874 29.2391 44.451C29.0021 44.0341 28.7905 43.6706 28.7691 43.6434C28.7474 43.616 28.4594 43.7233 28.1288 43.8817C27.3436 44.2578 26.8359 44.245 26.0455 43.8291C25.6896 43.6419 25.3776 43.4887 25.3518 43.4887C25.3262 43.4887 25.2683 43.6347 25.223 43.8132ZM28.0691 48.3646C29.1984 49.9598 30.5371 51.0384 32.402 51.8559C33.1405 52.1796 33.1123 52.4271 32.2891 52.8464C31.4132 53.2924 30.309 53.4077 29.9544 53.0901C29.7294 52.8886 29.6478 52.8775 29.4688 53.0245C29.2874 53.1736 29.219 53.1521 29.0317 52.8875C28.8216 52.5906 28.8 52.5869 28.6292 52.818C28.4586 53.0489 28.434 53.0444 28.1765 52.7355L27.9042 52.4088L27.6699 52.7336L27.4354 53.0584L27.2455 52.6996C27.0164 52.2669 26.8499 52.2461 26.6454 52.6244C26.4982 52.8965 26.481 52.8983 26.2237 52.6678C25.9662 52.4371 25.947 52.4397 25.7407 52.731C25.5636 52.9813 25.4896 53.0047 25.3189 52.8646C25.148 52.7243 25.0696 52.7502 24.8694 53.0128C24.7083 53.2243 24.5943 53.279 24.5299 53.1759C24.4625 53.0681 24.3548 53.0624 24.1753 53.1574C23.7657 53.3745 22.6427 53.3108 22.0309 53.0358C21.5277 52.8096 20.8722 52.187 20.8722 51.9353C20.8722 51.8824 21.1353 51.7611 21.457 51.6656C23.3126 51.1156 25.3394 49.6485 26.4514 48.0506C26.7379 47.6388 27.0498 47.3019 27.1445 47.3019C27.2392 47.3019 27.6552 47.7801 28.0691 48.3646ZM11.584 53.4561C11.0542 53.9038 10.3577 54.4241 10.036 54.6121C9.71427 54.8002 9.45118 55.0048 9.45118 55.0666C9.45118 55.2664 10.2705 55.3643 11.1229 55.2664C11.9518 55.1712 11.9533 55.1716 11.789 55.4754C11.6604 55.7135 11.6613 55.8025 11.7939 55.8836C11.887 55.9406 11.9224 56.0527 11.8724 56.1328C11.7757 56.2876 12.2645 58.3457 12.5022 58.7855C12.58 58.9293 12.7836 59.5508 12.9548 60.1664C13.4751 62.0378 13.5958 62.0389 13.5055 60.1714C13.349 56.9342 12.8866 52.9797 12.6353 52.7297C12.5869 52.6814 12.1138 53.0084 11.584 53.4561Z" fill="black"/>
</svg>
