<?xml version="1.0" standalone="no"?>
<!DOCTYPE svg PUBLIC "-//W3C//DTD SVG 20010904//EN"
 "http://www.w3.org/TR/2001/REC-SVG-20010904/DTD/svg10.dtd">
<svg version="1.0" xmlns="http://www.w3.org/2000/svg"
 width="1120.000000pt" height="1120.000000pt" viewBox="0 0 1120.000000 1120.000000"
 preserveAspectRatio="xMidYMid meet">
<metadata>
Created by potrace 1.14, written by Peter Selinger 2001-2017
</metadata>
<g transform="translate(0.000000,1120.000000) scale(0.100000,-0.100000)"
fill="#000000" stroke="none">
<path d="M6749 11196 c-2 -2 -28 -7 -58 -10 -111 -13 -236 -44 -371 -92 -8 -3
-17 -6 -20 -7 -3 0 -44 -20 -91 -43 -112 -55 -125 -57 -121 -21 5 45 -18 37
-146 -55 l-82 -59 -33 16 c-44 22 -177 76 -201 81 -10 2 -33 8 -50 13 -17 6
-42 12 -56 15 -14 3 -36 7 -50 11 -26 5 -152 14 -305 20 -49 2 -96 4 -102 4
-7 1 -13 12 -13 26 0 20 -5 25 -24 25 -13 0 -26 -7 -30 -15 -9 -23 -25 -18
-21 8 10 58 9 70 -3 74 -7 3 -43 -25 -80 -61 -69 -69 -94 -82 -139 -73 -35 7
-53 -1 -53 -23 0 -25 -23 -31 -147 -35 -59 -2 -118 -6 -132 -9 -14 -3 -51 -8
-81 -11 -109 -13 -310 -60 -485 -115 -38 -12 -72 -23 -75 -23 -3 0 -11 -7 -19
-14 -7 -8 -20 -12 -27 -9 -7 3 -16 1 -19 -4 -4 -6 -15 -10 -25 -10 -10 0 -20
-3 -22 -7 -4 -10 -100 -57 -110 -55 -5 1 -8 -2 -8 -8 0 -5 -4 -10 -10 -10 -15
0 -103 -57 -193 -124 -143 -105 -309 -268 -408 -396 -18 -25 -36 -47 -39 -50
-4 -3 -27 -36 -52 -75 -53 -81 -95 -164 -129 -253 -15 -40 -51 -97 -97 -155
-106 -134 -163 -263 -188 -427 -10 -63 -35 -153 -54 -189 -25 -50 -57 -82
-122 -124 -66 -42 -73 -51 -53 -67 21 -18 19 -33 -10 -60 -21 -20 -23 -26 -12
-39 19 -22 15 -50 -21 -163 -17 -53 -34 -112 -37 -130 -3 -18 -10 -51 -15 -73
-9 -43 -20 -111 -25 -160 -13 -115 -18 -149 -36 -224 -10 -46 -30 -106 -44
-133 -29 -57 -84 -230 -91 -285 -15 -110 -12 -143 12 -143 12 0 20 -33 15 -63
-1 -4 -3 -61 -6 -125 -3 -111 5 -197 25 -252 5 -14 11 -38 14 -55 2 -16 7 -37
10 -46 4 -9 1 -21 -7 -27 -17 -14 -132 -52 -158 -52 -35 0 -19 -17 39 -42 l57
-25 -73 -22 c-39 -13 -74 -26 -77 -31 -4 -7 70 -38 132 -55 29 -8 34 -25 38
-135 17 -400 21 -444 46 -570 37 -186 84 -261 170 -274 20 -3 47 -10 61 -15
31 -12 138 -111 138 -128 0 -7 4 -13 8 -13 13 0 97 -147 162 -286 101 -212
144 -298 162 -318 17 -19 18 -18 28 8 6 16 11 44 11 64 1 50 -11 171 -26 243
-8 44 0 50 48 39 36 -8 37 -7 31 19 -3 14 -10 37 -14 51 -18 52 -53 176 -57
205 -2 17 -8 46 -13 65 -4 19 -8 42 -8 50 0 8 -3 24 -5 35 -16 68 -24 366 -12
465 12 108 21 161 32 195 4 11 8 23 9 28 1 4 2 8 3 10 2 1 4 13 7 27 2 14 12
48 21 75 10 28 18 52 18 55 1 3 4 12 8 20 3 8 18 49 33 90 15 41 33 93 41 114
16 44 11 71 -11 59 -8 -4 -32 -24 -53 -43 -80 -74 -183 -143 -183 -123 0 5 30
40 66 78 37 39 79 88 94 110 40 59 81 135 72 135 -4 0 -2 4 4 8 24 16 65 242
44 242 -3 0 -23 -37 -44 -81 -62 -134 -112 -197 -211 -269 -59 -42 -58 -37 5
30 9 8 29 34 45 55 17 22 32 42 35 45 8 7 70 109 70 115 0 3 13 32 29 65 16
33 28 60 26 60 -2 0 2 19 11 41 8 23 16 60 19 83 3 23 8 49 11 59 3 10 7 53 9
95 2 42 5 79 5 82 3 8 1 100 -3 145 -3 41 -16 73 -29 74 -5 1 -12 1 -18 1 -16
0 -12 13 15 44 14 16 25 31 25 32 0 2 -14 11 -31 20 -18 9 -27 19 -22 23 12 7
33 46 33 60 0 6 -7 11 -15 11 -19 0 -19 9 1 48 15 32 19 160 9 317 -10 149
-10 153 9 174 11 12 15 21 10 21 -5 0 -4 4 1 8 6 4 42 54 80 112 84 126 77
116 115 161 16 20 30 39 30 42 0 3 19 27 43 53 199 222 354 303 552 290 90 -6
107 -8 135 -19 14 -5 72 -15 135 -23 17 -2 50 -6 75 -10 118 -16 277 0 385 39
58 22 137 58 133 62 -2 2 -39 6 -83 9 -158 10 -221 17 -254 26 -19 5 -38 7
-42 4 -4 -2 -10 0 -14 6 -4 6 -10 8 -14 6 -10 -6 -120 33 -181 64 -76 39 -213
157 -282 243 -34 42 -22 50 17 12 14 -14 25 -24 25 -21 0 2 13 -8 28 -22 49
-46 192 -148 192 -136 0 4 8 0 18 -9 16 -14 78 -45 165 -81 59 -24 119 -30
277 -29 193 2 260 12 260 39 0 8 -1 14 -3 14 -4 0 -130 47 -162 61 -16 7 -33
13 -36 13 -8 1 -120 72 -147 93 -83 64 -168 164 -222 260 -38 68 -17 60 46
-19 113 -141 226 -238 324 -278 19 -8 38 -15 43 -16 4 -1 8 -2 10 -4 2 -2 18
-5 59 -13 15 -3 32 -8 37 -11 5 -4 44 -9 85 -12 62 -5 76 -3 76 9 0 7 -46 61
-103 119 -141 143 -175 205 -207 373 -9 48 -21 259 -14 253 4 -5 20 -108 29
-188 5 -44 56 -183 88 -240 34 -61 58 -90 101 -129 16 -14 35 -32 42 -38 7 -7
17 -13 23 -13 6 0 11 -4 11 -10 0 -5 39 -28 88 -51 111 -53 119 -56 167 -65
22 -4 47 -9 55 -11 8 -2 139 -5 290 -8 151 -2 281 -4 289 -4 11 -1 11 -4 1
-16 -7 -8 -16 -12 -21 -9 -5 3 -9 1 -9 -4 0 -6 -10 -13 -22 -16 -13 -3 -34
-15 -48 -26 l-25 -21 50 5 c28 2 82 14 120 26 39 12 75 22 80 23 6 2 15 5 20
8 6 4 41 17 80 29 38 13 90 32 115 44 25 11 47 21 50 21 15 4 48 18 70 30 27
14 206 72 243 79 12 3 22 5 22 6 0 1 7 3 15 5 36 8 86 18 105 20 11 2 20 4 20
5 0 1 11 3 25 5 14 1 39 6 55 9 85 18 351 -2 396 -30 5 -3 18 -7 28 -9 38 -7
165 -77 268 -146 101 -68 103 -69 114 -46 7 12 15 24 19 27 12 9 53 115 82
209 15 52 30 96 33 99 7 7 -6 -68 -22 -128 -8 -30 -15 -61 -15 -67 -1 -7 -5
-13 -10 -13 -4 0 -8 -7 -8 -15 0 -9 -9 -35 -20 -57 -11 -23 -20 -48 -20 -55 0
-7 -4 -13 -10 -13 -5 0 -10 -7 -10 -15 0 -8 -8 -29 -18 -47 -26 -47 -80 -187
-92 -242 -42 -186 -31 -315 37 -465 98 -216 298 -348 606 -400 26 -5 47 -4 47
1 0 5 -42 50 -94 101 -51 51 -99 103 -107 117 -7 14 -13 59 -13 102 0 117 36
182 184 331 118 117 145 140 113 91 -16 -25 -16 -27 0 -36 85 -47 241 -203
278 -277 7 -14 21 -37 29 -51 23 -35 87 -188 99 -236 5 -21 14 -57 20 -79 10
-38 16 -90 26 -233 4 -62 16 -94 42 -120 20 -20 16 -32 -12 -32 -31 0 -31 -9
0 -46 31 -37 31 -42 -2 -46 -31 -4 -39 -20 -21 -39 42 -44 42 -47 4 -65 -59
-29 -67 -72 -71 -404 -3 -212 4 -333 24 -428 2 -10 24 14 31 34 13 34 24 30
44 -18 48 -115 122 -268 137 -283 5 -5 9 -17 9 -26 0 -10 3 -19 8 -21 10 -4
55 -75 86 -135 22 -45 35 -86 52 -168 21 -103 20 -730 -2 -890 -8 -56 -8 -85
0 -93 8 -8 36 18 52 50 23 44 32 25 27 -54 -2 -40 -4 -79 -4 -85 1 -17 1 -41
0 -84 -2 -48 13 -77 30 -58 38 45 50 63 61 89 7 17 16 30 21 30 5 0 9 4 9 10
0 5 13 37 29 70 16 33 27 60 24 60 -3 0 -1 6 5 13 22 28 99 317 117 442 3 23
7 50 9 60 2 11 7 45 11 75 3 30 8 66 10 80 2 14 6 57 10 95 3 39 8 93 11 120
12 122 21 366 28 855 3 157 8 295 12 307 3 12 19 26 35 32 35 12 38 37 8 75
-11 14 -19 26 -17 27 2 1 14 2 28 3 93 9 100 29 37 108 -38 46 -80 113 -76
120 1 2 -4 22 -10 46 -17 63 -30 162 -36 272 -2 42 -6 103 -9 135 -4 33 -9 85
-12 115 -3 30 -10 70 -16 89 -6 19 -10 55 -9 82 0 26 -6 68 -13 94 l-14 46 23
-15 c14 -9 27 -16 31 -16 18 0 -36 259 -61 290 -7 8 -15 24 -19 35 -3 11 -22
38 -41 60 -29 33 -75 104 -80 125 -1 3 -4 12 -8 20 -14 38 -39 124 -44 153 -3
17 -11 44 -19 59 -8 16 -12 28 -9 28 2 0 -5 24 -16 53 -12 28 -22 59 -24 67
-2 8 -16 40 -32 70 -88 166 -192 293 -325 396 -76 59 -97 61 -113 9 l-13 -40
-2 35 c-8 157 -35 259 -110 410 -34 69 -93 162 -114 179 -9 7 -16 17 -16 22 0
17 -158 167 -220 209 -70 47 -155 88 -251 120 -35 12 -116 47 -179 79 -63 31
-142 67 -175 80 -33 12 -68 27 -77 32 -10 5 -27 9 -39 9 -11 0 -29 4 -39 10
-10 5 -38 12 -62 14 -24 3 -43 5 -43 6 0 9 -367 24 -376 16z"/>
<path d="M4700 7014 c-45 -22 -48 -22 -152 -28 -100 -6 -135 -11 -238 -38
-248 -63 -502 -190 -638 -317 -18 -17 -37 -31 -43 -31 -5 0 -9 -7 -9 -15 0 -8
-5 -15 -11 -15 -17 0 -189 -178 -189 -195 0 -25 51 -44 110 -40 82 5 150 30
345 124 100 49 292 127 330 135 6 2 28 8 50 14 22 6 52 13 68 16 15 3 35 7 46
11 52 16 303 24 386 11 69 -10 120 -20 185 -37 25 -6 52 -13 60 -14 8 -1 28
-7 43 -14 16 -6 32 -11 37 -11 4 0 40 -14 80 -30 l71 -31 79 74 c54 51 103 86
164 116 107 54 119 66 86 91 -26 20 -106 60 -195 100 -27 12 -58 26 -69 32
-10 5 -26 11 -35 14 -17 4 -156 53 -156 55 0 1 -76 17 -125 25 -14 2 -74 6
-135 9 -90 5 -116 3 -145 -11z"/>
<path d="M7188 7005 c-3 -4 -35 -10 -93 -20 -47 -8 -139 -33 -174 -47 -14 -6
-28 -12 -31 -13 -33 -11 -54 -20 -108 -47 -39 -19 -77 -30 -101 -30 -25 1 -41
-4 -45 -14 -3 -8 -14 -14 -25 -14 -20 0 -63 -73 -55 -94 3 -6 43 -36 90 -66
46 -30 84 -58 84 -62 0 -5 5 -8 11 -8 6 0 23 -9 39 -20 28 -20 28 -20 101 0
41 11 82 22 92 24 24 7 185 54 222 66 17 5 46 12 65 15 19 3 52 10 74 15 41 9
255 6 296 -5 14 -3 36 -8 50 -11 14 -3 34 -8 45 -11 11 -3 29 -7 40 -9 32 -5
64 -12 73 -18 4 -2 28 -7 52 -11 25 -3 52 -8 60 -10 35 -9 100 -16 180 -20 47
-3 99 -8 115 -13 29 -8 75 3 75 18 0 13 -68 69 -145 121 -108 72 -117 78 -135
86 -8 3 -27 15 -42 25 -14 10 -33 18 -41 18 -9 0 -17 4 -19 8 -5 12 -115 58
-203 85 -94 29 -126 37 -215 53 -33 6 -327 14 -332 9z"/>
<path d="M5938 6765 c-2 -2 -34 -6 -73 -9 -38 -3 -86 -8 -105 -11 -48 -8 -231
-66 -250 -79 -8 -6 -32 -20 -53 -30 -20 -11 -60 -41 -87 -67 -60 -58 -84 -109
-95 -204 -5 -45 -22 -84 -53 -117 -46 -49 -56 -52 -120 -24 -115 49 -93 46
-357 50 -247 4 -297 -4 -423 -66 -118 -59 -189 -107 -266 -182 -111 -108 -163
-210 -172 -336 -2 -36 -7 -71 -9 -78 -3 -8 -3 -18 0 -22 3 -5 8 -65 10 -133 5
-114 4 -125 -15 -142 -18 -16 -25 -17 -82 -4 -103 22 -169 11 -224 -38 -41
-38 -61 -72 -74 -130 -13 -53 -43 -120 -78 -173 -41 -62 -91 -174 -98 -220 -7
-50 -7 -241 1 -280 2 -14 7 -38 11 -55 9 -47 79 -244 159 -445 17 -44 27 -72
31 -85 9 -32 46 -133 54 -147 6 -10 10 -26 10 -36 0 -10 3 -22 7 -26 4 -3 8
-12 9 -19 1 -7 11 -39 22 -72 31 -91 70 -217 76 -245 4 -14 26 -103 51 -199
24 -95 46 -185 49 -200 2 -14 10 -51 16 -81 6 -30 14 -68 16 -85 6 -36 11 -62
19 -95 3 -14 7 -43 10 -65 3 -22 8 -55 12 -74 3 -19 7 -44 8 -55 1 -12 3 -21
4 -21 1 0 4 -18 6 -40 2 -22 6 -58 9 -80 3 -22 8 -62 11 -90 3 -27 8 -70 10
-95 3 -25 7 -75 10 -111 3 -36 7 -88 9 -115 5 -46 9 -110 22 -294 10 -151 21
-276 30 -325 4 -22 7 -47 6 -55 0 -8 4 -31 8 -50 5 -19 11 -57 15 -84 3 -27 8
-53 11 -57 2 -4 6 -20 8 -36 2 -15 11 -57 20 -93 9 -36 18 -72 20 -80 3 -8 19
-60 37 -115 18 -55 33 -102 34 -105 0 -3 9 -20 18 -37 10 -18 18 -36 18 -40 5
-33 111 -261 157 -336 12 -20 19 -37 15 -37 -5 0 -3 -4 2 -8 10 -7 28 -36 51
-82 7 -14 29 -42 48 -63 37 -41 70 -47 90 -15 11 18 7 29 -45 118 -98 170
-174 334 -237 510 -27 78 -71 211 -76 235 -2 6 -7 28 -11 50 -13 56 -12 55
-15 58 -1 1 -4 11 -6 22 -2 11 -11 54 -19 95 -25 122 -42 235 -50 336 -3 32
-7 86 -10 119 -9 102 -15 177 -20 240 -3 33 -7 87 -11 120 -3 33 -7 83 -9 110
-14 167 -21 245 -31 325 -3 25 -7 61 -9 80 -3 19 -7 51 -10 70 -3 19 -8 51
-10 70 -11 85 -36 224 -65 356 -12 55 -23 108 -26 119 -2 11 -22 85 -44 165
-22 80 -42 152 -44 160 -2 8 -19 62 -37 120 -18 58 -34 108 -35 113 -1 4 -2 8
-3 10 -2 3 -111 320 -116 337 -7 26 -35 103 -49 140 -8 19 -35 96 -61 170 -26
74 -49 142 -52 150 -17 45 -39 171 -37 217 3 65 24 140 47 166 17 19 34 26 79
29 33 3 68 13 85 24 15 10 33 20 38 20 6 1 12 3 15 4 3 1 26 4 52 6 69 7 112
28 150 76 40 51 55 81 62 129 7 39 36 72 78 88 30 11 52 4 173 -56 156 -78
195 -86 420 -86 240 0 291 9 429 79 101 52 172 101 237 164 97 96 147 172 179
278 39 129 30 246 -29 377 -35 77 -39 68 54 116 104 53 110 68 54 131 -60 68
-97 145 -94 198 3 65 3 63 31 98 60 71 205 126 396 148 65 7 287 7 338 0 45
-7 138 -23 175 -30 34 -7 118 -42 161 -67 49 -28 92 -77 98 -110 4 -26 -18
-109 -31 -118 -5 -3 -26 -31 -48 -61 -22 -30 -42 -57 -45 -60 -10 -10 -60 -86
-60 -92 0 -4 30 -18 68 -32 101 -40 105 -45 98 -108 -10 -80 -8 -259 3 -310
29 -128 110 -239 258 -355 23 -18 46 -33 52 -33 5 0 11 -4 13 -8 11 -27 212
-100 328 -118 106 -18 356 -7 420 18 14 5 35 12 47 14 27 5 125 51 178 84 134
83 248 230 271 350 8 44 8 243 -1 290 -8 47 -37 109 -76 167 -40 59 -149 173
-166 173 -7 0 -13 4 -13 9 0 8 -48 39 -140 89 -35 19 -187 69 -235 77 -93 16
-242 21 -300 11 -16 -3 -46 -8 -65 -11 -79 -11 -145 -33 -260 -88 -87 -41
-136 -50 -151 -26 -5 8 -9 43 -10 79 -2 136 -23 180 -124 256 -56 42 -192 101
-252 109 -11 2 -32 7 -45 11 -12 4 -31 9 -40 10 -10 1 -19 2 -20 3 -12 8 -342
23 -350 16z m1532 -489 c255 -41 461 -171 546 -343 15 -32 29 -62 31 -68 1 -5
5 -21 9 -35 17 -58 13 -169 -8 -222 -11 -29 -22 -61 -25 -70 -3 -10 -9 -18
-13 -18 -5 0 -11 -8 -14 -18 -9 -27 -93 -108 -158 -153 -32 -22 -58 -37 -58
-33 0 3 -6 2 -12 -4 -19 -15 -137 -49 -199 -57 -55 -7 -194 -8 -239 -2 -14 2
-49 7 -79 12 -30 4 -69 14 -88 21 -18 8 -33 12 -33 9 0 -3 -11 2 -24 11 -14 8
-29 15 -33 14 -16 -2 -139 85 -189 135 -70 69 -109 129 -135 209 -58 180 22
382 194 493 91 58 182 95 262 107 22 4 54 10 70 14 34 10 129 8 195 -2z
m-2626 -120 c174 -21 323 -97 406 -207 25 -33 45 -63 46 -67 0 -4 8 -25 18
-47 22 -50 27 -163 11 -224 -68 -259 -373 -448 -730 -455 -38 -1 -86 2 -105 6
-19 4 -46 9 -60 11 -77 15 -168 51 -225 91 -51 36 -141 131 -164 175 -90 168
-14 407 179 563 92 74 245 137 370 153 30 4 56 8 57 9 4 4 147 -2 197 -8z
m-1097 -975 c34 -16 43 -26 48 -53 12 -64 -33 -118 -98 -118 -69 0 -95 132
-35 175 28 19 34 19 85 -4z"/>
<path d="M5796 4197 c-26 -70 -244 -284 -306 -302 -14 -3 -41 -25 -60 -46 -19
-22 -45 -41 -57 -42 -17 -1 -23 -8 -23 -23 0 -12 -14 -34 -30 -48 -26 -21
-194 -119 -210 -121 -3 -1 -23 -9 -45 -19 -22 -10 -62 -26 -90 -37 -27 -11
-64 -26 -82 -34 -17 -8 -37 -15 -45 -15 -8 0 -19 -5 -25 -11 -6 -6 -17 -11
-24 -13 -41 -7 -294 -143 -341 -183 -9 -8 -22 -16 -30 -17 -7 -2 -25 -8 -40
-14 -15 -6 -46 -12 -70 -13 -59 -3 -68 -8 -68 -34 0 -16 -7 -25 -26 -29 -21
-6 -24 -11 -20 -36 5 -37 -28 -85 -108 -155 -31 -27 -75 -66 -97 -87 l-40 -36
10 -54 c6 -29 13 -62 16 -73 2 -11 7 -38 10 -60 10 -64 13 -82 19 -112 3 -15
8 -53 12 -83 3 -30 7 -64 9 -75 4 -28 14 -113 20 -160 5 -44 15 -165 20 -235
2 -25 4 -45 5 -45 3 0 8 -58 14 -175 3 -63 9 -149 13 -190 3 -41 7 -87 7 -102
1 -16 3 -28 6 -28 3 0 5 -19 6 -43 0 -41 11 -142 19 -182 3 -11 7 -38 10 -60
12 -88 45 -226 61 -257 43 -85 201 -263 252 -285 21 -9 37 -25 43 -42 12 -34
45 -47 58 -23 8 14 11 12 17 -13 10 -43 34 -75 54 -75 10 0 20 -8 23 -19 7
-27 116 -101 252 -170 65 -34 123 -61 127 -61 3 0 19 -5 35 -12 15 -6 30 -12
33 -13 3 0 34 -10 70 -22 62 -20 85 -26 183 -47 132 -29 193 -37 372 -52 141
-12 439 -6 525 11 14 2 48 7 75 9 58 6 87 12 170 31 33 8 71 17 85 19 14 2 25
5 25 6 0 1 7 3 15 5 105 21 357 133 475 210 69 46 73 49 104 92 14 21 31 33
46 33 24 0 34 15 42 65 6 39 8 40 34 22 19 -14 26 -14 48 -2 35 18 114 102
190 200 35 44 68 87 75 96 8 9 15 20 17 25 2 5 25 41 50 79 59 89 87 142 127
235 29 68 118 327 127 368 2 9 10 46 19 82 8 36 18 88 21 115 7 55 20 89 48
119 9 11 18 23 18 28 1 4 2 11 3 16 11 42 16 75 21 117 3 28 8 61 11 75 20 87
24 126 22 226 -2 62 0 115 3 118 3 3 30 8 60 12 29 3 62 10 72 16 9 5 17 6 17
2 0 -3 7 -1 15 6 8 7 15 16 15 20 0 33 -594 568 -679 612 -14 7 -28 16 -31 19
-11 13 -190 129 -199 129 -5 0 -11 4 -13 9 -8 21 -427 247 -442 238 -2 -1 -12
5 -22 13 -11 9 -36 25 -58 35 -21 11 -58 37 -82 58 -35 31 -44 45 -44 71 0 24
-6 36 -24 46 -14 7 -27 23 -30 36 -4 16 -25 33 -64 53 -31 16 -68 39 -81 52
-27 26 -111 153 -111 168 0 6 -3 11 -7 11 -5 0 -17 18 -27 40 -11 22 -24 44
-30 49 -7 6 -43 -4 -95 -25 -154 -64 -205 -63 -356 11 -51 25 -95 45 -98 45
-2 0 -12 -19 -21 -43z m340 -594 c17 -16 70 -81 119 -147 79 -105 218 -257
285 -310 58 -46 157 -116 165 -116 5 0 16 -6 24 -14 9 -8 72 -42 141 -76 69
-35 133 -69 142 -77 18 -16 16 -46 -4 -66 -28 -28 -134 -79 -207 -99 -118 -32
-206 -25 -273 24 -13 9 -22 9 -45 -2 -41 -20 -46 -19 -83 24 l-34 38 -27 -33
-27 -33 -44 47 -44 48 -22 -26 c-12 -14 -22 -29 -22 -34 0 -5 -7 -14 -16 -22
-13 -10 -17 -10 -24 2 -58 102 -82 114 -114 54 -17 -32 -56 -50 -56 -26 0 14
-48 41 -63 35 -8 -3 -20 -16 -27 -29 -17 -32 -44 -40 -73 -21 -22 15 -25 14
-65 -25 -37 -35 -44 -38 -57 -26 -13 14 -65 12 -65 -2 0 -9 -61 -15 -145 -13
-76 2 -78 2 -144 21 -83 24 -209 123 -225 177 -6 21 9 32 67 49 4 1 9 4 12 5
3 1 8 3 13 5 4 1 16 5 27 9 11 4 34 13 50 18 133 48 378 194 471 283 12 11 43
40 70 65 54 50 154 163 154 173 0 4 8 16 18 26 9 10 37 42 61 70 24 28 46 51
50 51 4 0 21 -12 37 -27z"/>
<path d="M3754 2755 c-10 -8 -53 -41 -94 -72 -42 -32 -82 -64 -90 -71 -41 -35
-68 -55 -92 -70 -16 -9 -28 -20 -28 -24 0 -5 -8 -12 -17 -16 -34 -13 -153 -96
-158 -110 -3 -7 7 -17 23 -24 30 -13 207 -16 294 -6 58 7 79 -2 60 -25 -20
-25 -24 -58 -9 -75 8 -10 17 -46 20 -82 5 -65 10 -93 23 -132 3 -11 7 -30 9
-41 2 -12 8 -37 13 -55 6 -18 12 -36 13 -40 1 -4 5 -17 10 -30 5 -13 9 -28 9
-34 0 -5 6 -24 14 -41 15 -34 50 -127 52 -139 1 -5 2 -9 4 -10 1 -2 3 -10 5
-18 1 -8 9 -35 16 -60 7 -25 13 -47 14 -50 10 -41 40 -132 52 -155 14 -26 17
-27 22 -12 7 20 6 130 -3 302 -6 108 -8 140 -22 300 -3 44 -8 100 -10 125 -2
25 -6 63 -8 85 -3 22 -7 65 -11 95 -8 86 -21 192 -29 240 -2 14 -7 47 -11 73
-8 62 -11 74 -24 122 -17 60 -23 68 -47 50z"/>
</g>
</svg>
