<?xml version="1.0" standalone="no"?>
<!DOCTYPE svg PUBLIC "-//W3C//DTD SVG 20010904//EN"
 "http://www.w3.org/TR/2001/REC-SVG-20010904/DTD/svg10.dtd">
<svg version="1.0" xmlns="http://www.w3.org/2000/svg"
 width="1407.000000pt" height="1407.000000pt" viewBox="0 0 1407.000000 1407.000000"
 preserveAspectRatio="xMidYMid meet">
<metadata>
Created by potrace 1.14, written by Peter Selinger 2001-2017
</metadata>
<g transform="translate(0.000000,1407.000000) scale(0.100000,-0.100000)"
fill="currentColor" stroke="none">
<path d="M7670 14042 c-150 -65 -292 -179 -354 -285 -16 -27 -54 -68 -88 -93
-53 -41 -114 -109 -143 -159 -9 -15 -15 -16 -55 -3 -25 7 -45 19 -45 27 0 26
-50 51 -134 66 -46 8 -89 19 -96 25 -37 30 -164 56 -390 79 -44 5 -111 16
-150 26 -79 19 -175 16 -220 -7 -43 -23 -16 -28 55 -11 62 16 64 16 106 -7 24
-12 50 -33 58 -46 l16 -23 -46 16 c-73 25 -177 13 -255 -28 -58 -31 -79 -52
-65 -66 3 -3 30 6 58 20 76 38 139 50 204 38 66 -13 110 -34 125 -63 13 -24 8
-279 -6 -312 -6 -14 -5 -18 6 -14 19 6 38 84 47 198 l7 95 35 -52 c19 -29 38
-53 43 -53 24 0 -16 92 -67 151 -40 47 -80 119 -67 119 6 0 15 -8 20 -19 6
-10 22 -22 36 -25 58 -15 113 -136 136 -300 11 -81 11 -90 -15 -181 -15 -52
-26 -110 -24 -128 3 -26 10 -12 41 81 21 61 41 112 44 112 3 0 2 -24 -1 -53
-7 -54 0 -91 14 -82 4 3 17 36 29 73 38 127 131 240 216 263 32 9 51 8 95 -6
30 -9 66 -19 80 -22 25 -6 25 -6 7 15 -10 11 -32 26 -48 32 -16 7 -26 16 -23
21 3 5 12 6 21 0 9 -5 26 -4 42 1 18 7 43 6 81 -3 54 -14 55 -15 52 -47 -4
-41 16 -42 31 -2 6 17 15 30 19 30 4 0 8 8 8 19 0 38 174 174 285 221 64 27
203 27 309 0 91 -23 237 -87 216 -93 -8 -3 -53 -17 -100 -31 -104 -31 -266
-109 -374 -180 -120 -78 -267 -196 -261 -207 8 -11 -4 -18 181 107 168 114
273 168 425 220 125 42 238 57 338 45 81 -10 89 -14 73 -34 -18 -21 -1 -29 20
-10 17 15 21 15 60 -3 57 -25 133 -87 251 -203 53 -52 97 -89 97 -80 0 44
-204 255 -302 312 -21 12 -36 27 -35 32 7 21 112 85 176 106 85 29 194 30 271
5 63 -22 137 -90 187 -172 l31 -52 -76 -7 c-94 -8 -217 -31 -254 -46 -33 -14
-37 -33 -5 -26 72 18 174 30 261 31 95 1 99 0 107 -23 l9 -23 -66 7 c-89 9
-83 -13 9 -35 44 -11 72 -24 86 -41 18 -21 20 -22 21 -5 0 24 26 19 157 -30
194 -72 218 -87 351 -218 67 -67 127 -122 132 -124 16 -6 11 18 -12 57 l-21
36 27 -25 c15 -14 37 -42 48 -63 13 -26 24 -37 34 -33 15 6 59 -55 107 -150
l26 -51 -92 46 c-51 25 -123 54 -162 64 -108 27 -240 97 -354 187 -57 44 -106
78 -109 75 -8 -7 60 -76 138 -139 88 -72 156 -108 280 -150 100 -33 105 -37
128 -78 l24 -43 -38 43 c-39 43 -54 51 -54 31 0 -6 53 -79 118 -162 147 -190
203 -268 236 -334 25 -51 50 -172 44 -215 -3 -20 -9 -14 -44 37 -23 33 -65
101 -93 152 -51 90 -67 111 -78 100 -7 -8 36 -100 98 -210 49 -87 88 -180 93
-222 2 -11 13 -36 24 -55 19 -29 102 -264 102 -286 0 -3 -7 -1 -15 6 -21 18
-20 2 10 -122 29 -120 55 -293 54 -358 -1 -35 -4 -27 -14 40 -8 47 -25 131
-39 187 -14 56 -31 136 -37 178 -30 217 -186 534 -387 785 -123 154 -318 338
-337 318 -3 -2 59 -70 138 -149 78 -79 168 -178 199 -219 73 -97 232 -360 209
-346 -18 12 -13 -9 29 -105 22 -51 40 -95 40 -98 0 -3 -26 44 -58 104 -68 131
-116 202 -225 338 -88 109 -426 459 -427 441 0 -5 75 -89 166 -185 270 -283
387 -439 494 -658 39 -80 56 -107 61 -94 13 38 50 -122 69 -305 23 -210 23
-212 10 -192 -7 12 -10 11 -17 -8 -7 -19 -11 -12 -21 40 -35 172 -118 401
-218 603 -78 157 -113 214 -114 183 0 -9 27 -67 59 -130 65 -122 134 -278 127
-285 -2 -2 -12 17 -22 43 -54 141 -384 647 -407 624 -3 -3 20 -43 50 -90 78
-118 193 -304 232 -372 22 -40 28 -56 17 -52 -19 7 -19 4 -5 -33 25 -63 139
-377 139 -381 0 -3 -22 30 -48 74 -27 43 -110 171 -184 284 -161 245 -298 475
-398 665 -77 147 -97 178 -111 169 -13 -8 193 -409 309 -604 54 -91 162 -262
239 -380 77 -118 155 -242 173 -275 18 -33 41 -67 52 -75 13 -11 26 -57 47
-160 46 -231 47 -251 6 -140 -45 120 -106 250 -117 250 -13 0 -10 -12 31 -106
44 -104 77 -203 122 -366 17 -65 35 -118 39 -118 15 0 23 80 29 315 l6 240 9
-179 c5 -106 12 -173 17 -165 12 19 11 310 -1 434 -6 55 -12 122 -15 150 l-5
50 15 -60 c28 -119 72 -436 75 -537 0 -5 5 -8 11 -8 8 0 10 28 4 101 -5 72 -4
99 4 95 26 -16 3 425 -30 583 -10 52 -34 139 -53 193 -18 54 -32 98 -31 98 5
0 91 -153 133 -236 127 -254 172 -475 143 -699 -11 -77 -56 -240 -79 -281 -4
-7 -6 65 -4 159 4 185 -10 341 -36 397 -14 33 -16 33 -20 11 -2 -13 1 -51 7
-85 19 -109 14 -384 -9 -497 -19 -90 -66 -257 -76 -268 -2 -3 -19 9 -37 26
-17 17 -56 43 -84 57 -52 26 -53 27 -53 72 0 145 -120 378 -287 554 -60 65
-83 82 -83 63 0 -5 28 -42 61 -83 163 -199 279 -424 279 -542 0 -36 -1 -38
-40 -44 -79 -13 -58 -29 48 -37 48 -4 58 -9 95 -48 23 -24 31 -34 17 -22 -32
28 -97 56 -104 45 -3 -5 12 -19 34 -31 51 -28 86 -72 123 -149 38 -81 39 -159
3 -366 -14 -82 -26 -162 -26 -177 0 -64 -24 -133 -67 -197 -115 -169 -342
-422 -457 -509 -34 -25 -92 -61 -129 -80 -37 -18 -95 -58 -127 -88 -40 -37
-68 -55 -86 -55 -14 0 -23 4 -19 10 3 5 17 10 30 10 40 0 39 19 -2 36 -71 28
-84 38 -140 106 -56 68 -83 84 -83 49 0 -11 -3 -26 -6 -35 -7 -19 78 -111 126
-136 l36 -18 -7 -74 c-10 -114 -27 -237 -59 -438 -42 -267 -51 -393 -49 -687
l2 -262 -65 -98 c-36 -54 -99 -150 -140 -213 -131 -202 -188 -247 -536 -418
-359 -177 -437 -204 -792 -268 -236 -43 -314 -46 -630 -26 -199 12 -436 36
-486 48 -31 8 -30 22 6 93 23 47 33 58 49 54 10 -2 22 0 25 6 11 18 23 13 30
-11 6 -23 7 -23 21 -4 8 11 15 35 15 54 0 18 5 43 11 54 9 17 8 24 -3 32 -8 6
-19 25 -25 41 -5 17 -16 30 -24 30 -8 0 -33 -36 -57 -80 -23 -44 -57 -94 -75
-113 -29 -30 -33 -31 -44 -15 -7 9 -13 27 -13 40 0 13 -7 26 -15 29 -8 4 -15
18 -15 32 0 26 1 25 25 -11 29 -41 50 -50 40 -14 -10 30 -46 68 -58 60 -6 -4
-7 11 -3 41 8 54 0 90 -19 82 -8 -3 -39 16 -70 41 -58 48 -58 47 -34 112 6 15
14 21 25 17 9 -3 18 -6 20 -6 2 0 4 -18 4 -39 0 -46 9 -73 21 -65 11 7 12 284
0 302 -14 23 -21 -11 -21 -100 0 -69 -2 -79 -14 -68 -8 6 -12 18 -10 25 12 31
-73 406 -94 413 -7 2 -12 -5 -12 -17 0 -28 37 -218 46 -234 4 -6 -12 6 -35 28
-32 31 -44 37 -50 26 -18 -29 -91 139 -91 210 0 32 -17 48 -26 25 -8 -22 14
-143 33 -180 34 -67 109 -142 89 -89 -6 15 -5 15 13 -1 25 -23 56 -89 65 -139
7 -38 -9 -147 -22 -147 -4 0 -32 64 -62 141 -35 90 -65 151 -82 167 -15 14
-39 53 -54 87 -23 50 -28 74 -28 146 0 77 3 93 31 150 33 65 34 75 10 66 -24
-9 -54 -86 -92 -236 -30 -115 -36 -155 -30 -195 8 -61 29 -113 58 -144 25 -27
86 -66 92 -60 3 3 -13 29 -36 59 -22 30 -47 67 -56 83 -18 35 -30 170 -15 180
6 3 13 -6 17 -22 3 -16 27 -60 53 -98 46 -68 110 -239 142 -379 16 -75 58
-135 125 -180 63 -44 79 -65 46 -65 -11 0 -30 13 -43 30 -22 30 -48 40 -48 18
0 -7 25 -36 55 -64 32 -30 55 -61 55 -73 0 -14 -5 -19 -15 -15 -10 4 -15 0
-15 -11 0 -9 -4 -13 -10 -10 -5 3 -10 23 -10 43 0 48 -12 66 -37 58 -25 -8
-36 5 -88 102 -73 138 -89 90 -19 -56 28 -57 43 -77 65 -85 16 -6 29 -15 29
-20 0 -10 -35 8 -92 50 -44 32 -48 38 -48 76 0 39 -12 133 -26 200 -6 29 -28
36 -38 12 -3 -8 -3 -23 0 -32 4 -16 3 -16 -8 1 -54 77 -69 96 -78 96 -16 0
-12 -17 20 -80 23 -46 26 -58 13 -53 -11 4 -14 3 -9 -5 4 -7 5 -12 3 -12 -2 0
-21 27 -42 61 -24 40 -41 57 -47 51 -15 -15 76 -185 123 -227 21 -19 47 -35
56 -35 13 0 14 -3 6 -11 -18 -18 -68 7 -102 50 -15 20 -46 74 -69 121 -47 96
-66 124 -81 119 -7 -3 3 -34 24 -79 34 -71 34 -73 8 -40 -15 19 -58 67 -94
106 -70 75 -92 108 -104 162 -4 18 -18 46 -32 62 -21 25 -24 38 -21 82 3 58
-13 82 -23 33 -5 -27 -6 -24 -12 20 -4 28 -9 85 -13 128 -3 42 -10 80 -14 82
-13 8 -23 -97 -18 -203 3 -76 8 -106 24 -133 19 -32 21 -44 14 -127 -10 -112
-6 -132 26 -132 24 0 32 14 14 25 -5 3 -10 39 -9 78 0 72 0 72 14 37 7 -19 21
-61 29 -92 16 -57 52 -110 88 -129 32 -17 33 -2 4 42 l-27 41 23 -7 c29 -8
107 -90 124 -130 7 -16 27 -48 44 -70 l32 -40 -5 -100 c-4 -55 -18 -163 -31
-240 -36 -195 -45 -306 -36 -407 8 -82 11 -91 54 -152 26 -35 75 -95 110 -132
l63 -68 -71 -46 c-39 -26 -92 -67 -118 -93 l-48 -46 -74 19 c-92 23 -137 46
-209 104 -61 50 -67 53 -67 32 0 -30 108 -113 195 -150 48 -20 96 -36 106 -36
46 0 11 -59 -131 -220 -87 -99 -180 -228 -180 -250 0 -28 92 -107 202 -173
l26 -16 -14 -53 c-8 -29 -39 -172 -68 -318 -30 -146 -85 -395 -121 -555 -86
-376 -260 -1237 -279 -1385 -9 -63 -32 -263 -51 -445 -74 -683 -128 -958 -290
-1476 -63 -199 -77 -255 -54 -217 19 33 117 314 162 468 103 347 160 622 217
1048 44 329 50 361 79 445 11 31 34 146 51 255 102 652 209 1258 310 1762 38
190 73 370 77 400 7 40 13 54 24 51 7 -2 50 -11 94 -21 300 -69 353 -83 380
-95 30 -13 29 -13 -27 -14 -68 -1 -75 -16 -17 -31 53 -14 102 -6 214 37 52 20
132 40 190 49 72 11 121 25 175 50 96 46 235 94 273 94 26 0 29 3 23 23 -3 12
-6 28 -6 35 0 6 -12 13 -27 13 -17 1 -21 3 -10 6 23 6 22 22 -7 64 -42 62
-201 154 -318 185 -92 24 -73 -1 44 -59 118 -58 208 -126 208 -156 0 -10 9
-30 20 -44 l20 -25 -32 -11 c-46 -16 -57 -14 -85 19 -53 63 -197 151 -345 209
-93 37 -89 18 7 -34 71 -39 260 -171 309 -216 5 -5 -3 -13 -19 -19 -26 -10
-32 -7 -96 55 -78 76 -172 124 -384 199 -269 95 -322 123 -444 235 -63 57 -63
58 -49 86 15 28 15 28 108 26 94 -2 161 -17 167 -37 4 -12 -40 -24 -87 -24
-16 0 -42 12 -60 26 -33 28 -52 25 -32 -6 10 -16 8 -19 -10 -22 -38 -5 -31
-25 11 -31 27 -3 66 -23 118 -60 97 -69 193 -118 243 -124 74 -10 53 16 -62
73 -135 67 -201 105 -194 111 2 2 28 11 57 18 l54 15 70 -69 c39 -37 92 -86
119 -109 47 -40 86 -54 86 -31 0 16 -134 152 -182 186 l-41 28 29 11 c36 15
46 11 67 -30 39 -70 139 -156 185 -156 45 0 38 30 -19 79 -30 25 -76 66 -103
92 l-49 46 34 19 34 20 47 -51 c48 -53 149 -115 187 -115 46 0 20 37 -85 120
l-106 84 43 38 c24 20 49 37 54 37 6 0 32 -39 58 -88 50 -92 111 -164 144
-173 10 -3 29 -1 43 4 22 8 21 11 -47 76 -39 37 -85 90 -103 117 -18 28 -42
60 -53 72 l-20 23 34 14 c77 32 139 32 139 1 0 -22 72 -160 118 -229 23 -33
39 -63 36 -67 -2 -5 2 -38 11 -74 23 -100 88 -218 163 -297 20 -21 30 -38 23
-38 -7 0 -9 -5 -5 -12 14 -22 573 7 597 31 16 16 9 161 -13 245 -28 110 -71
184 -166 285 l-84 89 31 6 c75 15 90 9 154 -57 66 -67 123 -160 151 -245 16
-51 16 -56 -1 -113 -10 -32 -16 -62 -12 -65 13 -13 49 20 78 71 16 29 37 59
44 65 8 7 15 18 15 26 0 24 37 34 125 34 107 0 143 14 219 88 l58 57 -6 -58
c-7 -67 -27 -112 -56 -127 -11 -6 -59 -15 -108 -21 -48 -5 -105 -14 -127 -20
-40 -11 -183 -98 -206 -125 -25 -30 0 -22 87 28 l89 52 107 -3 c83 -2 113 1
138 14 39 20 48 14 24 -17 -33 -44 -63 -58 -173 -83 -105 -23 -183 -54 -244
-97 -46 -33 -24 -32 63 1 49 19 123 38 188 47 59 8 115 17 125 20 20 6 23 -16
7 -46 -12 -23 -110 -78 -202 -115 l-67 -27 -58 36 c-57 35 -93 45 -93 27 0
-23 186 -121 230 -121 14 0 54 18 90 40 36 22 87 47 113 56 27 9 71 36 98 60
43 38 89 70 89 62 0 -8 -134 -409 -173 -518 -58 -163 -61 -174 -49 -166 5 3
-24 -97 -65 -222 -258 -791 -370 -1187 -457 -1607 -56 -276 -67 -395 -35 -395
19 0 39 70 84 297 116 584 254 1110 430 1638 134 403 244 704 430 1170 139
349 248 630 349 900 18 49 31 67 76 101 67 51 74 80 18 77 -25 -2 -36 2 -33
10 2 7 25 82 51 167 26 85 75 236 110 335 153 439 181 609 145 860 -19 129
-30 146 -30 48 -1 -45 -5 -85 -11 -88 -10 -6 -5 201 7 275 l5 35 33 -66 c19
-36 66 -138 105 -225 40 -87 82 -170 94 -182 27 -31 77 -56 151 -77 74 -21
141 -62 194 -120 47 -51 72 -98 95 -179 15 -52 19 -57 39 -52 125 34 296 30
415 -10 144 -48 233 -104 486 -302 94 -74 215 -164 268 -199 315 -208 639
-281 1070 -242 434 39 590 -6 721 -207 28 -43 52 -60 200 -146 265 -153 391
-249 692 -527 66 -61 126 -111 133 -111 69 0 -183 260 -435 449 -151 113 -291
204 -438 283 -77 42 -94 55 -114 94 -32 59 -123 142 -194 177 -113 55 -141 58
-543 55 -352 -2 -374 -2 -474 20 -147 32 -325 93 -455 156 -105 52 -160 86
-520 331 -159 108 -261 163 -385 206 -56 20 -85 23 -215 24 -82 0 -159 -3
-170 -7 -18 -7 -23 0 -43 57 -44 122 -134 231 -237 289 -22 13 -75 43 -118 67
-73 40 -83 51 -139 134 -33 49 -65 101 -70 115 -5 14 -41 77 -79 141 l-69 116
10 174 c16 286 30 479 40 564 6 44 10 84 11 90 0 5 4 1 8 -10 7 -18 11 -15 33
20 34 53 66 81 170 149 118 77 347 312 524 536 121 155 212 315 233 410 37
170 52 451 30 559 -12 55 -11 58 24 131 48 99 108 184 119 167 25 -38 73 107
94 288 21 175 14 348 -20 470 -43 153 -133 371 -200 480 -34 56 -36 65 -36
145 -1 113 -11 155 -74 286 -75 155 -123 236 -226 373 -49 66 -101 138 -115
161 l-26 42 23 -7 c32 -10 116 -56 127 -69 5 -6 18 -41 30 -78 29 -88 46 -89
37 -2 -12 118 -70 240 -174 367 -87 107 -151 159 -437 355 -68 47 -184 104
-278 137 l-78 28 -41 71 c-48 82 -117 155 -179 188 -39 21 -57 23 -169 23
l-125 0 -88 -42 -87 -42 -31 62 c-44 87 -137 179 -222 222 -38 19 -77 35 -85
35 -8 0 -13 2 -10 5 3 3 35 -2 72 -11 64 -16 97 -13 66 6 -36 22 -209 72 -278
80 l-77 9 100 -4 c55 -2 116 -7 135 -10 33 -6 34 -5 15 10 -31 25 -84 35 -180
35 -76 -1 -100 -5 -155 -28z m239 -68 c2 -2 -20 -4 -50 -5 l-54 -1 94 -24 c52
-13 119 -36 149 -51 67 -34 177 -150 218 -228 l29 -56 -24 -20 c-17 -14 -32
-18 -50 -14 -49 12 -136 25 -174 25 -32 0 -44 7 -78 44 -48 53 -115 90 -200
112 -75 20 -267 14 -359 -10 -30 -8 -56 -13 -58 -12 -1 2 38 42 87 89 102 97
183 142 276 156 53 8 183 4 194 -5z m48 -10 c-3 -3 -12 -4 -19 -1 -8 3 -5 6 6
6 11 1 17 -2 13 -5z m-1499 -326 c13 -13 31 -38 38 -55 21 -49 38 -42 31 12
-8 54 -6 54 107 25 111 -28 120 -35 73 -55 -53 -22 -119 -93 -171 -182 -46
-80 -56 -80 -56 0 0 83 -41 191 -97 257 l-28 33 39 -6 c21 -3 50 -17 64 -29z
m472 -104 c23 -8 28 -13 15 -13 -29 -1 -93 18 -100 30 -7 11 27 4 85 -17z
m-129 6 c22 -13 25 -30 4 -30 -8 0 -58 -22 -112 -50 -53 -27 -98 -48 -100 -46
-7 7 109 108 139 121 40 17 44 18 69 5z m2387 -220 c45 -23 82 -43 82 -45 0
-2 -41 10 -90 26 -50 16 -96 29 -104 29 -19 0 -46 27 -46 45 0 19 45 3 158
-55z m958 -1401 c8 -45 12 -84 10 -86 -2 -2 -14 10 -26 27 -19 27 -21 38 -15
91 4 33 9 58 12 56 2 -3 11 -42 19 -88z m-218 -583 c55 -168 43 -162 -21 9
-35 94 -73 192 -85 219 -39 87 -22 64 28 -38 27 -55 62 -141 78 -190z m111
-252 c11 -54 25 -137 30 -184 11 -86 15 -237 6 -228 -11 11 -46 242 -55 367
-6 73 -12 145 -15 160 -5 22 -4 23 4 5 5 -11 18 -65 30 -120z m178 -156 c-2
-13 -4 -3 -4 22 0 25 2 35 4 23 2 -13 2 -33 0 -45z m-737 -2172 c0 -2 -25 -20
-55 -40 -30 -20 -55 -32 -55 -26 0 6 21 24 47 40 43 27 63 36 63 26z m-220
-174 c0 -5 -9 -17 -20 -27 -19 -18 -20 -17 -20 3 0 18 11 29 33 31 4 1 7 -3 7
-7z m-105 -1522 c-11 -75 -40 -178 -104 -370 -106 -314 -262 -737 -288 -783
-11 -19 -41 -43 -73 -61 -30 -16 -130 -73 -221 -127 -92 -55 -172 -99 -178
-99 -7 0 -19 -16 -27 -35 -18 -43 -17 -45 1 -45 23 0 22 -188 -1 -197 -25 -9
-41 14 -26 37 8 14 9 25 2 38 -5 9 -13 32 -18 51 -9 37 -32 55 -32 24 0 -15
-7 -18 -49 -15 -87 6 -189 -64 -291 -202 -39 -53 -45 -58 -54 -42 -6 10 -21
34 -33 52 -12 19 -18 34 -13 34 5 0 40 27 77 61 87 77 165 114 284 135 104 18
117 22 98 35 -27 17 -156 10 -214 -12 -103 -38 -216 -130 -249 -201 -5 -10 -7
-10 -12 0 -3 6 -14 12 -25 12 -11 0 -27 5 -37 11 -15 9 -47 4 -153 -24 -212
-57 -243 -61 -409 -61 -219 0 -345 33 -352 91 -3 25 -10 29 -93 53 -49 14
-129 44 -176 67 l-86 40 -5 80 c-8 110 -31 156 -132 262 -47 50 -92 104 -101
121 -8 16 -20 30 -25 30 -17 0 18 -70 63 -129 135 -176 136 -178 152 -278 4
-25 3 -43 -3 -43 -28 0 -267 205 -363 311 -40 45 -75 77 -77 71 -2 -6 17 -40
42 -75 38 -57 45 -75 50 -134 13 -144 27 -244 37 -270 10 -26 12 -26 19 -8 6
16 8 13 14 -18 4 -21 10 -45 13 -53 9 -24 -27 -16 -57 14 -33 34 -53 113 -76
304 -8 73 -18 144 -20 157 -8 39 -23 11 -26 -49 -3 -49 -4 -45 -12 40 -8 86
-10 92 -19 60 -14 -53 7 -234 37 -313 33 -89 47 -139 36 -135 -5 2 -38 41 -74
87 -62 80 -66 87 -66 137 0 70 24 242 61 434 17 85 33 183 36 218 3 34 8 62
10 62 3 0 30 -16 61 -35 32 -19 86 -46 121 -60 70 -27 101 -51 132 -102 23
-37 34 -40 61 -16 16 15 22 15 40 4 11 -7 66 -24 122 -37 96 -24 113 -25 376
-22 151 2 347 -1 435 -6 171 -9 253 -3 440 36 124 25 433 116 540 158 184 72
452 237 559 344 91 90 291 397 343 526 l18 45 3 -41 c2 -22 -4 -87 -13 -144z
m-3018 -397 c-3 -10 -5 -4 -5 12 0 17 2 24 5 18 2 -7 2 -21 0 -30z m105 -40
c42 -42 48 -52 48 -90 l0 -42 -25 24 c-13 14 -30 25 -38 25 -8 0 -19 11 -25
25 -16 35 -27 105 -16 105 5 0 30 -21 56 -47z m274 -169 c-4 -9 -9 -15 -11
-12 -3 3 -3 13 1 22 4 9 9 15 11 12 3 -3 3 -13 -1 -22z m-186 -139 c-1 -5 -12
-18 -25 -28 -25 -18 -25 -18 -25 8 0 16 4 24 11 20 6 -4 13 3 16 15 4 16 8 18
14 8 5 -7 9 -17 9 -23z m-281 -643 c-2 -85 -3 -91 -9 -47 -12 74 -12 157 0
150 6 -4 9 -48 9 -103z m-132 41 c-3 -10 -5 -2 -5 17 0 19 2 27 5 18 2 -10 2
-26 0 -35z m216 -14 l47 -41 0 -123 c0 -100 -3 -125 -16 -136 -19 -15 -31 0
-51 66 -12 38 -43 225 -43 259 0 24 10 20 63 -25z m2534 14 c-10 -22 -13 -24
-15 -9 -2 10 2 22 10 27 19 12 19 12 5 -18z m-49 -75 c-3 -50 -5 -54 -43 -74
-22 -12 -50 -25 -63 -29 -22 -6 -23 -5 -20 36 3 40 7 47 57 81 30 21 58 38 63
38 5 0 8 -24 6 -52z m-168 8 c0 -2 -7 -7 -16 -10 -8 -3 -12 -2 -9 4 6 10 25
14 25 6z m-2207 -97 c4 -35 17 -79 27 -97 11 -18 20 -35 20 -38 0 -2 -15 -4
-34 -4 l-33 0 -7 61 c-3 34 -6 82 -6 106 0 69 23 49 33 -28z m2111 27 c-40
-35 -51 -38 -41 -11 7 16 68 57 76 50 2 -3 -13 -20 -35 -39z m102 -62 c-4 -13
-16 -29 -27 -35 -21 -11 -21 -10 -15 27 4 22 15 50 24 64 l17 25 3 -29 c2 -15
1 -39 -2 -52z m-2126 8 c-1 -17 -22 -52 -32 -52 -6 0 -28 80 -28 100 0 6 14 2
30 -10 17 -12 30 -29 30 -38z m-273 -9 c-3 -10 -5 -2 -5 17 0 19 2 27 5 18 2
-10 2 -26 0 -35z m2323 -18 c0 -41 -18 -81 -49 -109 l-21 -19 0 61 c0 54 3 63
26 81 37 29 44 26 44 -14z m197 -77 c-12 -19 -75 -63 -81 -57 -2 2 -7 22 -10
45 -7 40 -7 40 41 67 l48 26 7 -31 c3 -18 1 -39 -5 -50z m-2227 26 c0 -17 -6
-24 -19 -24 -17 0 -18 3 -8 29 13 34 27 31 27 -5z m1850 -9 c0 -8 -19 -24 -42
-36 -23 -12 -94 -74 -158 -139 -112 -114 -158 -145 -184 -120 -9 9 133 168
200 224 40 33 164 96 177 89 4 -2 7 -11 7 -18z m-1710 -17 c11 -7 8 -8 -10 -4
-14 3 -41 6 -60 7 -32 1 -33 2 -10 9 26 8 55 4 80 -12z m1970 -37 c0 -44 -4
-52 -30 -71 l-30 -21 6 48 c5 39 35 93 51 93 2 0 3 -22 3 -49z m-1932 -33
c-35 -10 -73 -18 -85 -18 -13 0 -23 -4 -23 -9 0 -15 -100 -75 -109 -65 -22 25
-60 89 -55 93 3 3 65 8 137 11 115 4 132 7 131 22 -1 15 1 15 33 0 l34 -16
-63 -18z m1672 -7 c0 -21 -148 -184 -184 -203 -12 -6 -57 -24 -101 -40 -60
-21 -81 -25 -87 -15 -13 21 -9 28 16 21 37 -9 95 27 193 119 88 83 151 137
159 137 2 0 4 -9 4 -19z m-1953 -61 l33 -65 -26 -23 c-29 -25 -51 -24 -46 2 2
11 -2 16 -12 14 -16 -3 -165 82 -166 94 0 4 12 10 28 14 15 3 45 12 67 19 71
24 86 18 122 -55z m501 41 c14 -19 41 -36 78 -48 55 -18 58 -21 74 -69 41
-117 220 -368 362 -505 37 -36 68 -69 68 -73 0 -3 -13 -6 -30 -6 -24 0 -56 25
-182 144 -184 173 -206 198 -341 396 -95 139 -104 156 -86 162 10 4 19 12 19
18 0 18 16 10 38 -19z m1596 -82 c-15 -21 -28 -39 -30 -39 -2 0 -4 20 -4 44 0
34 7 52 28 77 l27 33 3 -38 c3 -28 -3 -48 -24 -77z m-632 7 l38 -69 -53 50
c-29 27 -63 56 -76 63 -19 10 -21 14 -10 21 8 5 25 8 39 7 19 -2 33 -18 62
-72z m812 42 c-3 -12 -13 -35 -20 -52 l-13 -31 -1 41 c0 38 13 64 33 64 4 0 5
-10 1 -22z m-248 -84 c-8 -21 -36 -17 -36 6 0 10 8 36 18 56 l17 37 3 -43 c2
-23 1 -49 -2 -56z m-640 14 c28 -29 72 -82 97 -117 43 -60 45 -65 34 -94 -7
-17 -17 -32 -22 -34 -6 -2 -21 18 -35 44 -38 73 -114 164 -171 208 l-51 39 33
12 c42 14 51 9 115 -58z m-1564 10 c73 -47 79 -53 62 -65 -10 -7 -37 -13 -60
-13 -34 0 -55 9 -103 42 -70 48 -93 44 -35 -7 l39 -34 -41 -1 c-64 0 -103 10
-97 26 7 18 123 104 140 104 8 0 50 -23 95 -52z m2378 -30 c0 -67 -19 -160
-38 -193 -10 -17 -11 -14 -12 26 0 25 7 54 15 65 19 25 19 44 0 44 -20 0 -20
68 1 98 25 36 34 26 34 -40z m-1493 37 c12 -8 51 -58 87 -109 145 -208 358
-438 417 -451 19 -4 40 -12 46 -17 7 -6 24 -8 38 -6 14 3 25 2 25 -2 0 -8 -83
-20 -137 -20 -26 0 -30 3 -26 19 8 32 -14 58 -105 125 -150 110 -291 275 -371
434 -23 45 -14 55 26 27z m197 -24 c47 -41 188 -230 235 -316 30 -53 52 -97
50 -99 -8 -8 -196 137 -257 197 -35 34 -79 87 -99 117 -20 30 -49 71 -64 90
l-27 36 71 -4 c48 -3 78 -10 91 -21z m176 -27 c27 -26 65 -70 84 -98 66 -99
162 -343 143 -363 -3 -3 -20 22 -36 56 -56 111 -232 354 -300 415 -31 28 -26
36 19 36 35 0 48 -7 90 -46z m870 -2 c0 -10 -30 -53 -67 -95 l-67 -77 -96 0
c-141 0 -184 18 -97 40 161 42 235 71 278 109 24 22 45 40 47 41 1 0 2 -8 2
-18z m160 -26 c0 -23 -9 -45 -25 -63 l-24 -28 -1 39 c0 27 7 47 22 63 12 13
23 23 25 23 2 0 3 -15 3 -34z m-2190 -13 c0 -3 -7 -15 -17 -25 -20 -22 -56
-23 -73 -3 -11 13 -8 15 16 15 16 0 36 5 44 10 18 11 30 13 30 3z m2110 -44
c0 -55 -11 -83 -36 -93 -14 -5 -15 0 -9 46 14 104 45 136 45 47z m-2475 -109
c92 -119 187 -173 397 -228 94 -25 165 -50 208 -74 65 -36 260 -192 260 -208
0 -15 -80 -40 -177 -55 l-97 -14 -28 33 c-38 47 -99 73 -275 117 -183 45 -249
78 -393 194 -58 47 -108 85 -112 85 -19 0 -4 -22 45 -70 124 -123 221 -180
428 -250 124 -41 259 -106 266 -126 2 -6 -12 -18 -32 -27 -34 -16 -35 -16 -59
7 -26 27 -92 48 -296 96 -79 19 -159 45 -194 63 -62 33 -236 193 -236 218 0 8
43 61 96 119 52 58 107 122 122 142 15 21 27 38 28 38 1 0 22 -27 49 -60z
m2531 -59 l-26 -26 0 45 c0 32 6 50 23 68 l22 24 3 -43 c3 -34 -1 -47 -22 -68z
m-1425 -23 c35 -46 110 -129 166 -184 56 -56 99 -104 96 -108 -15 -14 -63 -5
-73 14 -6 11 -44 42 -84 70 -81 54 -104 81 -140 162 -22 49 -42 128 -33 128 3
0 33 -37 68 -82z m1369 18 c0 -28 -7 -52 -20 -69 -29 -37 -26 -50 10 -42 34 8
36 4 14 -30 -15 -23 -15 -25 0 -25 9 0 28 18 42 40 27 41 27 63 -1 40 -28 -23
-15 6 15 35 35 33 38 22 14 -48 -12 -35 -33 -61 -92 -114 -42 -37 -73 -61 -70
-52 3 9 14 75 24 148 16 124 29 161 55 161 5 0 9 -20 9 -44z m-2691 -309 c53
-51 107 -100 121 -110 22 -15 20 -14 -15 1 -107 47 -243 142 -237 165 4 15 23
37 30 37 3 0 49 -42 101 -93z m2336 -97 c-3 -5 -16 -10 -28 -9 -20 1 -20 2 3
9 14 4 26 8 28 9 2 1 0 -3 -3 -9z"/>
<path d="M8860 6583 c0 -9 -16 -46 -36 -82 -63 -113 -174 -210 -561 -488 -340
-245 -389 -283 -364 -283 20 0 167 100 546 371 212 151 348 284 398 390 37 77
45 109 27 109 -5 0 -10 -7 -10 -17z"/>
<path d="M8626 6082 c-102 -95 -234 -190 -353 -254 -109 -59 -79 -65 36 -7
119 59 297 196 381 292 58 67 24 51 -64 -31z"/>
<path d="M8680 5988 c-79 -55 -171 -130 -166 -136 5 -4 236 157 236 164 0 12
-31 -1 -70 -28z"/>
<path d="M5660 4901 c0 -4 69 -44 153 -87 83 -43 233 -125 332 -182 204 -118
347 -192 370 -192 24 0 29 29 9 51 -19 21 -255 142 -610 313 -210 100 -254
117 -254 97z"/>
<path d="M7384 13545 c-54 -27 -157 -122 -270 -248 -66 -74 -72 -79 -132 -93
-75 -17 -212 -72 -212 -85 0 -13 -1 -13 102 25 105 39 148 51 148 41 0 -3 -14
-24 -32 -46 -17 -21 -29 -41 -26 -44 3 -3 72 63 152 148 150 157 252 249 309
278 18 9 56 20 86 24 66 9 50 25 -25 25 -34 0 -66 -8 -100 -25z"/>
<path d="M5815 13510 c-4 -6 6 -10 23 -10 47 0 126 -28 170 -59 43 -32 86 -96
105 -158 11 -37 11 -37 15 -10 5 41 -42 130 -91 172 -59 51 -204 93 -222 65z"/>
<path d="M5663 13435 c-93 -15 -159 -52 -235 -133 -108 -115 -157 -225 -182
-401 -9 -62 -27 -149 -41 -194 -41 -128 -61 -266 -49 -338 11 -67 14 -61 -60
-169 -136 -199 -167 -436 -105 -785 10 -57 9 -64 -26 -155 -53 -136 -65 -203
-65 -375 0 -149 0 -151 46 -305 64 -215 112 -302 158 -284 26 10 29 67 8 175
l-19 103 21 33 c11 18 28 33 37 33 8 0 58 21 109 46 131 63 244 94 365 101
l100 5 -30 -20 c-59 -38 -95 -101 -95 -166 0 -33 -3 -36 -37 -41 -73 -13 -208
-67 -237 -95 -22 -22 8 -20 84 5 45 15 84 24 87 21 4 -3 -1 -6 -9 -6 -9 0 -21
-7 -28 -14 -6 -8 -37 -20 -68 -27 -91 -18 -106 -24 -169 -72 -83 -64 -130
-119 -167 -196 -28 -59 -31 -76 -31 -156 0 -78 4 -97 27 -142 24 -45 26 -53
12 -64 -15 -12 -44 -61 -44 -74 0 -3 12 -10 26 -15 24 -9 26 -14 19 -47 -8
-44 -28 -76 -61 -98 -33 -21 -30 -35 7 -35 24 0 42 11 75 44 48 47 55 80 29
126 -37 64 -7 66 48 4 57 -65 103 -84 204 -84 45 0 94 5 110 12 l28 11 -45 9
c-25 5 -69 14 -98 19 -88 18 -177 102 -240 229 -23 47 -27 67 -27 140 0 72 4
93 27 140 15 30 46 75 68 100 l41 45 -6 -43 c-4 -32 -2 -44 9 -48 11 -4 13
-14 9 -36 -5 -27 -4 -29 13 -20 10 6 36 28 58 50 35 37 41 39 69 31 41 -11 88
-11 106 0 10 7 -5 12 -49 17 -52 6 -61 9 -43 17 11 5 26 19 33 32 l12 23 23
-26 c22 -26 23 -26 85 -14 34 6 70 18 80 27 23 20 27 19 34 -10 8 -31 26 -33
26 -3 0 21 0 21 26 -3 35 -32 67 -86 59 -99 -10 -16 -95 -56 -160 -76 -43 -13
-53 -19 -37 -22 27 -4 108 21 176 55 30 16 47 20 44 11 -5 -13 -78 -55 -138
-78 -30 -11 -32 -14 -13 -17 12 -2 50 7 85 22 35 14 67 27 73 28 18 4 29 -101
17 -164 -24 -130 -97 -240 -187 -284 -62 -31 -70 -45 -25 -45 45 0 98 31 158
91 104 104 141 230 107 372 l-18 75 27 28 c35 39 33 50 -5 24 -43 -31 -47 -18
-10 31 38 53 32 63 -12 21 -18 -18 -36 -32 -40 -32 -10 0 -88 102 -82 108 3 3
19 -4 35 -16 34 -26 40 -27 40 -8 0 10 31 25 88 43 58 19 87 33 87 43 0 21
-62 49 -131 59 -33 5 -48 9 -34 11 23 1 22 3 -10 15 -41 16 -31 18 23 6 20 -5
39 -5 42 -1 8 13 -92 33 -130 26 -18 -4 -45 -4 -59 0 -23 5 -26 11 -26 51 0
76 49 145 102 142 7 0 2 -5 -11 -10 -15 -6 -21 -13 -15 -18 11 -12 210 -19
220 -8 4 4 13 -6 20 -23 15 -35 44 -40 45 -7 0 21 1 21 11 -3 14 -36 3 -145
-32 -311 -16 -78 -30 -152 -30 -163 1 -19 2 -18 15 5 41 75 85 297 85 426 0
113 -42 209 -53 121 -3 -29 -4 -28 -5 9 l-2 41 88 7 c143 10 143 12 2 14 -86
1 -143 6 -156 14 -87 50 -111 59 -188 67 -45 4 -93 14 -107 20 -23 10 -33 8
-81 -19 -30 -17 -61 -31 -69 -31 -8 0 -27 -14 -43 -31 -25 -26 -91 -73 -146
-103 -24 -14 4 12 103 93 49 40 86 75 83 78 -7 8 -85 -39 -161 -97 -36 -27
-65 -46 -65 -42 0 4 21 28 46 52 25 25 55 57 65 73 38 52 -2 27 -86 -55 -85
-80 -85 -81 -59 -35 35 63 15 59 -32 -5 -21 -29 -50 -66 -65 -83 -15 -16 -34
-46 -42 -65 l-14 -35 -7 50 c-11 79 2 131 89 380 65 183 70 209 95 507 11 130
26 270 34 311 17 90 65 216 99 260 54 72 72 133 26 92 -17 -17 -22 -17 -30 -5
-25 37 -70 141 -67 156 6 32 26 25 51 -19 14 -24 44 -56 66 -71 36 -26 39 -30
34 -64 l-5 -37 23 32 c13 18 37 37 53 43 28 10 29 11 10 24 -18 14 -16 17 41
73 33 33 71 68 85 77 15 11 20 20 13 23 -18 7 154 154 196 168 21 6 120 95
106 95 -6 0 -24 -9 -42 -20 -33 -20 -48 -14 -37 13 7 20 59 44 120 56 68 13
178 21 168 12 -5 -4 -61 -43 -124 -86 -172 -117 -333 -239 -320 -243 12 -4 62
27 242 154 111 78 123 84 215 104 125 29 301 87 434 143 103 44 105 45 184 38
75 -7 86 -11 155 -58 103 -70 167 -94 270 -100 l85 -5 53 -55 c57 -60 69 -51
32 22 -11 22 -20 41 -20 43 0 2 21 2 46 0 l47 -3 26 -96 c50 -177 109 -283
227 -409 79 -83 159 -142 261 -194 39 -19 74 -40 78 -46 3 -5 19 -70 35 -144
56 -261 133 -401 343 -621 42 -43 79 -76 83 -72 4 3 1 13 -6 22 -16 20 -11 19
51 -6 29 -11 63 -19 77 -17 20 3 14 9 -41 40 -76 43 -195 158 -262 252 -68 96
-166 349 -190 494 l-7 43 71 -7 c110 -10 92 14 -34 48 -48 13 -50 15 -53 52
-3 35 -2 37 20 31 53 -16 189 -85 268 -137 95 -62 227 -195 260 -263 12 -25
20 -62 20 -92 0 -28 3 -58 6 -67 10 -26 24 -18 24 14 0 42 14 37 33 -10 8 -22
20 -40 26 -40 31 0 -4 103 -95 281 -64 127 -74 140 -178 244 -181 181 -354
336 -361 325 -4 -6 35 -53 86 -105 51 -52 89 -95 86 -95 -16 0 -136 65 -212
115 -163 105 -288 234 -402 412 -42 66 -51 74 -117 104 -39 18 -75 38 -81 45
-5 6 -32 15 -60 19 -169 24 -513 140 -523 177 -3 12 -14 18 -36 18 -17 1 -42
7 -56 15 -32 18 -41 19 -34 1 6 -15 -42 -45 -96 -61 -61 -18 -118 -48 -123
-64 -3 -12 -35 -28 -95 -49 -50 -18 -94 -32 -98 -32 -4 0 12 14 34 30 74 53
50 66 -48 26 -77 -32 -179 -53 -309 -66 -57 -5 -107 -10 -111 -10 -4 0 -11 12
-15 28 -24 100 -140 193 -238 191 l-42 0 53 -15 c74 -19 102 -36 149 -87 41
-44 70 -108 58 -127 -7 -11 -66 -44 -69 -38 -35 64 -146 196 -146 173 0 -5 20
-34 44 -64 46 -60 76 -112 76 -133 -1 -14 -30 18 -74 83 -46 66 -42 29 4 -42
l40 -62 -22 -25 c-13 -14 -40 -37 -61 -53 l-39 -28 -69 46 c-38 25 -72 44 -74
41 -6 -5 50 -58 97 -93 l27 -20 -50 -65 c-28 -36 -67 -89 -85 -118 -34 -53
-78 -82 -123 -82 -24 0 -52 68 -88 216 l-25 102 27 53 c14 30 39 71 56 91 16
20 29 42 29 47 0 41 -76 -47 -119 -138 -16 -34 -35 -95 -43 -134 l-13 -72 -3
81 c-1 44 2 91 7 105 7 17 10 19 10 7 2 -36 21 -16 21 21 0 36 31 109 85 198
23 37 14 54 -15 28 -12 -10 9 32 44 95 36 62 63 116 60 119 -8 8 -54 -55 -151
-206 -19 -30 5 54 34 114 29 62 119 179 159 209 56 39 57 40 52 5 -6 -40 -2
-39 16 3 21 50 65 70 156 70 41 0 93 -5 116 -12 67 -20 128 -74 163 -143 44
-88 39 -98 -19 -46 -55 50 -122 77 -184 76 l-41 -1 50 -12 c81 -19 141 -54
189 -107 42 -46 86 -137 86 -177 0 -9 5 -24 10 -32 15 -24 12 48 -4 106 -8 27
-22 87 -31 134 -10 47 -23 96 -30 110 -15 28 -85 96 -131 128 -27 18 -136 55
-154 51 -3 -1 -42 -7 -87 -14z m1332 -486 c34 -23 49 -38 35 -34 -38 11 -95
42 -109 59 -25 30 11 18 74 -25z m-115 0 c0 -5 -15 -9 -32 -9 l-33 1 25 13
c25 14 40 13 40 -5z m233 -14 c117 -47 243 -83 325 -92 l67 -7 -45 -7 c-77
-13 -156 -10 -196 7 -79 32 -263 134 -243 134 3 0 44 -16 92 -35z m17 -87 c10
-6 7 -7 -10 -2 -14 3 -32 11 -40 16 -10 6 -7 7 10 2 14 -3 32 -11 40 -16z
m-741 -22 c-6 -6 -168 -66 -177 -66 -24 0 72 49 113 57 62 13 69 14 64 9z
m1292 -131 c20 -13 62 -61 94 -107 145 -207 341 -362 554 -438 98 -34 134 -61
233 -175 85 -97 104 -134 36 -68 -126 119 -233 180 -483 273 -77 29 -165 67
-195 85 -64 39 -156 126 -198 187 -27 39 -152 280 -152 293 0 8 71 -24 111
-50z m-1810 -29 c-12 -12 -40 -33 -64 -45 l-42 -23 45 42 c25 22 52 48 60 56
24 24 25 -4 1 -30z m-545 -155 c6 -53 4 -61 -10 -61 -13 0 -16 13 -15 83 0 92
13 81 25 -22z m374 24 c-24 -25 -46 -45 -49 -45 -3 0 15 20 39 45 24 25 46 45
49 45 3 0 -15 -20 -39 -45z m2041 -161 c59 -74 129 -130 227 -178 73 -37 87
-50 80 -81 -2 -13 -19 -6 -83 35 -141 93 -253 216 -324 357 -44 89 -38 91 10
3 22 -41 63 -102 90 -136z m-2481 27 c0 -10 -11 -28 -25 -41 l-25 -23 0 94 0
94 25 -53 c14 -30 25 -62 25 -71z m250 -65 c0 -21 -16 -28 -42 -20 -21 6 -21
7 -3 20 24 18 45 18 45 0z m-159 -107 l28 -36 -45 -89 c-58 -116 -86 -232
-130 -534 -39 -273 -67 -408 -120 -585 -45 -151 -53 -258 -30 -440 23 -188 20
-208 -16 -101 -50 153 -68 322 -48 451 5 33 18 122 30 199 24 161 58 320 100
460 34 114 35 116 17 116 -12 0 -45 -75 -82 -190 l-18 -55 -10 30 c-17 54 -13
263 7 350 18 79 74 240 82 233 2 -3 -3 -41 -12 -86 -8 -45 -14 -99 -12 -119
l4 -38 17 60 c56 187 101 323 134 400 l36 88 20 -39 c11 -22 32 -55 48 -75z
m2769 -125 c0 -43 -15 -44 -29 -3 -15 44 -14 48 9 42 15 -4 20 -14 20 -39z
m-3153 -1046 c-3 -8 -6 -5 -6 6 -1 11 2 17 5 13 3 -3 4 -12 1 -19z m-10 -105
c-3 -10 -5 -2 -5 17 0 19 2 27 5 18 2 -10 2 -26 0 -35z m686 -80 c-7 -2 -19
-2 -25 0 -7 3 -2 5 12 5 14 0 19 -2 13 -5z m-108 -53 c-11 -5 -29 -9 -40 -9
-17 -1 -17 1 -5 9 8 5 26 9 40 9 23 0 23 -1 5 -9z m342 -26 c-3 -3 -12 -4 -19
-1 -8 3 -5 6 6 6 11 1 17 -2 13 -5z m-110 -240 c-3 -3 -12 -4 -19 -1 -8 3 -5
6 6 6 11 1 17 -2 13 -5z m-22 -46 c-16 -4 -31 -5 -33 -3 -8 7 42 23 53 17 5
-3 -4 -9 -20 -14z m-95 3 c-8 -5 -26 -11 -40 -15 -21 -5 -20 -3 5 9 32 15 60
20 35 6z m90 -62 c0 -10 8 -9 85 7 11 2 7 -3 -10 -11 -39 -19 -70 -19 -85 0
-9 10 -9 15 -1 15 6 0 11 -5 11 -11z m177 -5 c-3 -3 -12 -4 -19 -1 -8 3 -5 6
6 6 11 1 17 -2 13 -5z m-497 -24 c0 -5 -4 -10 -8 -10 -5 0 -36 -27 -70 -59
l-61 -60 -6 29 c-11 48 16 80 84 101 37 11 61 11 61 -1z m140 0 l25 -7 -28
-12 c-37 -14 -52 -14 -66 2 -21 26 14 34 69 17z m164 -11 c-8 -14 -24 -10 -24
6 0 9 6 12 15 9 8 -4 12 -10 9 -15z"/>
<path d="M6824 13360 c-153 -22 -282 -160 -315 -334 -7 -40 -7 -62 0 -69 10
-10 11 -9 31 88 16 73 57 140 122 200 99 92 240 116 401 69 9 -3 17 -1 17 5 0
27 -166 54 -256 41z"/>
<path d="M6917 13286 c-83 -30 -201 -96 -247 -139 -47 -44 -22 -45 46 -1 65
41 245 129 287 139 15 4 30 11 33 16 10 17 -51 9 -119 -15z"/>
<path d="M7759 13300 c-145 -14 -292 -81 -407 -186 -63 -57 -74 -64 -92 -54
-12 6 -31 10 -43 8 -20 -3 -19 -6 13 -26 50 -32 401 -180 458 -193 64 -15 193
-13 272 4 36 7 72 12 81 10 41 -11 247 -179 369 -302 131 -132 202 -225 354
-469 15 -24 30 -42 32 -39 15 15 -137 269 -229 385 -115 145 -309 321 -449
407 -26 16 -44 33 -42 37 7 11 82 10 127 -3 23 -6 62 -33 101 -70 64 -59 81
-69 88 -48 3 10 46 -74 91 -179 l11 -27 3 26 c5 33 -35 143 -78 216 -47 78
-140 168 -242 231 -127 79 -144 62 -22 -20 55 -36 118 -85 140 -108 l40 -41
-85 45 c-123 65 -219 100 -350 129 -152 33 -198 39 -205 27 -6 -10 23 -19 164
-50 111 -23 265 -69 258 -76 -12 -12 -249 -54 -307 -54 -98 0 -238 42 -439
132 l-64 29 29 30 c51 54 167 124 249 151 114 37 246 51 370 38 129 -13 248
-42 330 -79 159 -72 268 -254 299 -501 l7 -55 -25 24 c-45 42 -39 16 9 -40
121 -142 218 -295 324 -511 106 -218 142 -275 96 -153 -62 164 -179 377 -304
550 l-58 80 -7 99 c-22 300 -149 493 -376 572 -126 44 -343 68 -491 54z"/>
<path d="M8710 13256 c0 -2 37 -29 83 -60 177 -118 282 -239 384 -441 79 -156
98 -151 31 7 -82 195 -210 341 -401 457 -59 36 -97 50 -97 37z"/>
<path d="M8930 13206 c186 -124 318 -305 368 -503 10 -40 21 -76 25 -80 17
-16 4 65 -23 152 -35 107 -93 202 -188 306 -62 67 -201 169 -230 169 -9 0 13
-20 48 -44z"/>
<path d="M5810 13129 c36 -17 78 -42 93 -57 36 -34 82 -107 97 -154 6 -21 16
-38 21 -38 13 0 11 19 -6 77 -28 94 -155 204 -235 202 -34 0 -33 -2 30 -30z"/>
<path d="M8790 13045 c0 -2 35 -31 78 -64 102 -77 194 -177 282 -306 68 -100
90 -127 90 -107 0 15 -107 180 -160 247 -86 108 -290 270 -290 230z"/>
<path d="M7670 12815 c0 -3 55 -32 123 -64 190 -92 363 -213 540 -379 44 -40
81 -71 84 -68 17 17 -165 192 -302 292 -149 109 -445 254 -445 219z"/>
<path d="M7993 12733 c4 -6 45 -25 91 -42 116 -44 224 -117 327 -220 77 -78
88 -93 114 -166 84 -235 190 -430 365 -669 58 -79 132 -183 165 -230 33 -47
64 -86 68 -86 9 0 8 1 -40 77 -18 28 -28 53 -23 55 6 2 -14 33 -44 69 -68 82
-297 413 -342 494 -36 65 -117 244 -129 285 -4 15 6 5 25 -24 34 -54 51 -57
24 -4 -64 125 -203 275 -326 351 -97 61 -293 139 -275 110z"/>
<path d="M8689 12671 c6 -11 16 -23 21 -26 36 -22 137 -240 215 -465 64 -184
100 -272 146 -361 55 -105 170 -243 169 -201 0 4 -23 34 -51 67 -66 79 -142
237 -224 465 -37 102 -87 232 -111 290 -49 115 -130 243 -158 248 -15 3 -16 1
-7 -17z"/>
<path d="M8676 12368 c37 -73 174 -312 251 -436 79 -129 107 -185 173 -347
109 -271 207 -423 380 -595 103 -102 180 -164 180 -145 0 4 -67 75 -148 159
-153 156 -231 256 -284 361 -34 68 -35 69 54 -40 74 -90 176 -190 185 -181 3
3 -23 36 -59 74 -136 144 -239 284 -302 410 -31 62 -29 80 3 29 12 -19 29 -41
38 -48 15 -12 16 -12 10 4 -4 10 -62 105 -130 210 -130 201 -220 350 -306 505
-55 97 -90 128 -45 40z"/>
<path d="M7553 12118 c6 -24 11 -122 11 -218 1 -191 -6 -236 -70 -445 -54
-176 -41 -186 25 -20 69 173 91 346 71 546 -13 131 -21 171 -37 176 -8 3 -8
-8 0 -39z"/>
<path d="M7670 11928 c0 -108 -14 -197 -51 -321 -25 -84 -19 -109 10 -43 44
100 64 204 65 328 0 79 -4 122 -12 130 -9 9 -12 -11 -12 -94z"/>
<path d="M5425 11953 c-12 -34 -27 -318 -20 -393 12 -114 21 -57 29 178 4 111
9 209 12 217 4 8 2 15 -4 15 -5 0 -13 -8 -17 -17z"/>
<path d="M7446 11776 c-6 -134 -12 -184 -35 -270 -16 -58 -25 -106 -21 -106
16 0 61 159 70 247 12 111 13 280 1 287 -4 3 -11 -68 -15 -158z"/>
<path d="M8320 11885 c27 -71 98 -198 147 -265 76 -102 209 -229 307 -294 44
-29 119 -88 165 -130 47 -42 87 -74 89 -71 3 3 -16 27 -41 54 -26 28 -47 52
-47 55 0 2 10 2 23 -1 22 -4 22 -4 2 12 -11 9 -35 26 -54 38 -40 26 -140 146
-249 300 -42 59 -78 103 -80 97 -5 -13 74 -133 166 -255 33 -44 58 -82 56 -84
-8 -9 -137 94 -216 172 -95 95 -147 168 -215 305 -26 50 -50 92 -54 92 -5 0
-4 -11 1 -25z"/>
<path d="M5345 11707 c-11 -26 4 -168 25 -253 18 -69 47 -140 55 -132 2 2 -7
44 -20 94 -13 50 -27 131 -31 180 -4 49 -10 98 -14 109 -7 19 -8 19 -15 2z"/>
<path d="M8109 11633 c-37 -181 -112 -333 -261 -530 -55 -74 -23 -58 39 19 79
97 115 152 157 235 37 73 79 206 91 286 11 69 -11 60 -26 -10z"/>
<path d="M8314 11673 c19 -49 150 -214 298 -375 50 -54 84 -102 97 -136 11
-28 37 -84 57 -123 38 -76 114 -248 114 -258 0 -3 -22 33 -48 80 -61 112 -70
125 -75 119 -3 -3 19 -57 49 -120 92 -197 173 -487 160 -569 -3 -18 1 -61 9
-95 17 -73 51 -344 65 -516 12 -137 26 -204 40 -195 14 9 13 -13 -10 -192 -16
-126 -59 -368 -84 -475 -2 -10 -1 -18 3 -18 10 0 46 119 67 219 35 172 49 318
84 880 5 85 12 156 15 159 3 3 5 -42 5 -99 1 -116 11 -174 35 -198 15 -15 17
-14 31 3 8 11 14 41 14 66 0 26 5 73 12 105 l11 58 23 -45 c32 -64 46 -73 75
-49 23 19 23 20 5 34 -31 23 -14 51 27 43 75 -15 125 -18 131 -8 3 6 -12 33
-35 62 -27 34 -34 48 -20 41 11 -6 23 -16 26 -21 3 -6 11 -10 17 -10 5 0 -2
21 -17 48 l-27 47 30 -32 c40 -43 76 -51 116 -27 37 22 226 35 226 15 0 -6 5
-11 10 -11 6 0 10 18 10 41 0 36 3 41 35 55 46 19 44 32 -5 40 -30 5 -40 11
-40 25 0 11 1 19 3 19 1 0 29 -14 61 -30 32 -17 68 -30 79 -30 20 0 20 0 -1
23 -13 13 -66 50 -119 83 -53 32 -134 95 -181 139 -108 102 -198 231 -116 166
15 -11 31 -21 36 -21 14 0 -105 138 -120 139 -42 3 -292 318 -398 501 -30 52
-50 78 -52 68 -2 -9 2 -26 8 -37 26 -50 -4 -13 -70 84 -69 101 -90 125 -76 88
14 -36 250 -383 261 -383 6 0 43 -42 82 -92 39 -51 112 -137 161 -191 56 -63
94 -114 103 -139 28 -87 118 -202 219 -281 76 -60 80 -65 80 -94 0 -28 -12
-28 -65 -4 -61 28 -127 93 -191 187 -42 61 -63 84 -75 81 -14 -4 -19 5 -24 42
-9 57 -30 111 -45 111 -7 0 -9 -8 -5 -19 19 -61 32 -166 24 -194 -11 -38 -11
-124 0 -192 5 -27 6 -57 3 -65 -10 -25 -20 27 -21 108 -1 73 -14 94 -28 45 -5
-16 -8 -67 -7 -114 1 -80 3 -90 38 -154 l38 -67 -30 22 c-45 33 -53 62 -63
220 -4 80 -11 170 -14 200 -9 78 -45 243 -56 255 -14 14 -11 -39 10 -155 11
-58 25 -158 32 -223 12 -115 12 -118 -8 -132 -11 -8 -28 -34 -38 -57 l-18 -43
-10 30 c-7 21 -7 67 2 155 18 194 -11 353 -92 504 -46 85 -66 83 -23 -2 81
-161 100 -264 91 -485 -4 -87 -9 -156 -12 -153 -3 2 -9 83 -13 178 -13 254
-38 351 -142 550 -49 94 -73 127 -83 116 -3 -3 19 -52 49 -109 107 -203 151
-387 144 -599 -3 -101 -8 -133 -25 -170 l-21 -45 -1 52 c-2 96 -44 382 -72
485 -11 44 -34 53 -25 11 15 -75 36 -252 45 -373 13 -176 24 -466 18 -460 -3
3 -13 55 -23 115 -12 77 -18 170 -19 310 -1 164 -5 218 -23 301 -27 127 -81
281 -138 399 l-43 90 77 -82 c43 -46 84 -83 90 -83 19 0 3 25 -75 116 -96 112
-103 123 -58 86 83 -67 43 -7 -77 116 -68 70 -143 153 -166 184 -46 62 -70 83
-59 52 10 -28 -104 97 -185 203 -66 86 -99 117 -84 76z m1293 -1370 c34 -43
63 -83 63 -89 0 -6 12 -28 26 -49 l25 -38 -36 6 c-47 8 -64 22 -86 74 -10 24
-37 71 -61 105 -47 70 -67 118 -68 163 0 27 4 24 37 -33 20 -34 65 -97 100
-139z m-98 14 c11 -19 25 -57 32 -85 6 -28 22 -68 35 -88 30 -44 24 -55 -14
-27 -35 26 -69 86 -81 144 -9 39 -6 89 4 89 2 0 13 -15 24 -33z m299 -143 c13
-9 21 -18 19 -21 -11 -10 -65 9 -83 29 -19 21 -19 21 11 14 17 -4 41 -14 53
-22z m-511 -116 c-3 -8 -6 -5 -6 6 -1 11 2 17 5 13 3 -3 4 -12 1 -19z m-70
-40 c-2 -13 -4 -5 -4 17 -1 22 1 32 4 23 2 -10 2 -28 0 -40z"/>
<path d="M8177 11460 c-3 -8 -15 -48 -27 -88 -26 -91 -91 -218 -156 -307 -76
-105 -80 -112 -40 -75 55 51 101 117 150 217 47 95 90 224 83 251 -3 14 -5 15
-10 2z"/>
<path d="M9180 11314 c98 -179 233 -365 394 -546 78 -89 106 -112 106 -90 0 4
-53 68 -117 142 -148 172 -207 251 -317 428 -96 152 -135 191 -66 66z"/>
<path d="M8279 11283 c-45 -114 -118 -250 -188 -347 -69 -97 -88 -132 -55
-105 76 63 236 339 272 472 16 57 -3 43 -29 -20z"/>
<path d="M8337 11026 c-43 -63 -107 -151 -142 -195 -66 -81 -87 -125 -39 -80
66 61 270 356 262 379 -2 6 -38 -40 -81 -104z"/>
<path d="M6086 11078 c-9 -35 -7 -171 3 -187 15 -23 32 60 29 136 -3 67 -20
94 -32 51z"/>
<path d="M6955 11050 c-138 -8 -158 -12 -191 -42 -17 -15 -38 -20 -98 -21 -42
-1 -76 -5 -76 -9 0 -11 36 -28 60 -28 12 0 19 -4 15 -9 -3 -5 -22 -7 -43 -5
l-37 5 24 -20 c27 -24 18 -27 -19 -6 -29 17 -64 20 -55 4 4 -5 28 -23 53 -40
40 -25 42 -28 18 -23 -26 6 -28 5 -21 -12 5 -10 12 -70 16 -133 4 -63 11 -136
14 -163 12 -88 21 -49 17 73 -3 89 -2 120 7 115 6 -4 11 -25 11 -46 0 -21 5
-73 11 -115 l10 -76 -31 -36 c-17 -19 -36 -46 -42 -59 -6 -13 -15 -24 -20 -24
-4 0 -8 -12 -8 -27 0 -34 -17 -20 -29 25 -8 27 -6 34 9 42 43 23 54 163 21
271 -11 35 -21 80 -23 99 -4 44 -22 46 -26 2 l-3 -33 -36 27 -36 28 6 -124 c4
-70 12 -129 18 -135 9 -7 10 18 5 98 -4 59 -3 107 2 107 4 0 17 -15 27 -32 16
-27 21 -57 25 -165 3 -72 2 -129 -2 -126 -5 2 -8 17 -8 34 0 42 -27 37 -47 -8
-26 -58 -29 -330 -6 -397 10 -27 24 -52 32 -54 9 -3 11 1 7 14 -14 47 -26 169
-25 279 0 138 13 130 23 -15 4 -52 12 -122 17 -155 11 -65 57 -178 69 -170 4
3 -5 53 -21 112 -31 116 -49 252 -29 220 6 -9 16 -45 21 -80 13 -80 45 -148
101 -217 24 -30 60 -80 80 -110 42 -66 120 -140 148 -140 31 0 24 13 -32 66
-87 79 -86 85 2 47 44 -19 97 -37 117 -40 37 -6 38 -5 21 13 -9 11 -52 37 -95
58 l-79 38 -38 98 c-42 107 -76 236 -76 288 0 17 -5 32 -11 32 -9 0 -10 -25
-7 -87 5 -86 5 -87 -7 -38 -7 28 -14 67 -14 87 -1 42 -9 68 -22 68 -13 0 -11
-47 7 -140 8 -45 13 -84 11 -86 -7 -7 -37 121 -44 186 l-6 60 41 37 40 38 -8
70 c-5 39 -9 95 -8 125 l1 55 12 -73 c6 -39 15 -75 18 -79 4 -3 7 30 7 75 0
81 0 82 25 82 23 0 25 -3 25 -52 0 -64 9 -100 22 -92 5 3 6 35 2 75 -6 67 -6
71 21 99 65 68 192 95 365 79 168 -16 356 -17 353 -2 -2 7 47 -5 118 -29 137
-46 136 -43 34 -116 -27 -20 -52 -37 -54 -39 -2 -2 -2 -6 2 -9 8 -8 88 39 133
78 32 28 37 29 64 18 17 -7 30 -16 30 -21 0 -12 -74 -64 -142 -101 -66 -35
-77 -54 -19 -33 51 18 96 41 149 77 35 24 50 29 78 24 38 -8 42 -1 18 25 -15
17 -15 19 10 30 14 7 26 17 26 23 -1 34 -55 89 -153 155 -85 58 -170 86 -136
45 6 -7 -16 0 -50 18 -38 19 -79 32 -108 34 -27 1 -111 9 -188 17 -220 24
-252 25 -390 17z m98 -47 c-40 -2 -107 -2 -150 0 -43 1 -10 3 72 3 83 0 118
-2 78 -3z m140 -40 c-7 -2 -19 -2 -25 0 -7 3 -2 5 12 5 14 0 19 -2 13 -5z
m277 -98 l45 -15 -40 6 c-22 3 -47 10 -55 15 -23 13 0 10 50 -6z m-820 -90 c0
-14 -4 -25 -10 -25 -11 0 -14 33 -3 43 11 11 13 8 13 -18z m37 -7 c-3 -8 -6
-5 -6 6 -1 11 2 17 5 13 3 -3 4 -12 1 -19z m69 7 c-20 -15 -36 -19 -36 -10 0
5 38 23 50 24 3 0 -4 -6 -14 -14z m-137 -558 c11 -42 27 -90 36 -107 24 -46
13 -47 -13 -2 -22 40 -52 141 -52 176 0 33 9 12 29 -67z m88 -69 c-3 -8 -6 -5
-6 6 -1 11 2 17 5 13 3 -3 4 -12 1 -19z"/>
<path d="M8549 10888 c-13 -18 -43 -57 -67 -86 -48 -56 -52 -75 -9 -42 28 22
117 137 117 151 0 19 -20 8 -41 -23z"/>
<path d="M7965 10665 c-88 -66 -203 -137 -244 -151 -41 -14 -43 -30 -4 -27 55
4 368 226 316 223 -5 -1 -35 -21 -68 -45z"/>
<path d="M7020 10686 c-70 -15 -111 -37 -144 -76 -50 -60 -27 -67 47 -14 74
53 128 74 207 81 39 3 70 10 70 14 0 13 -116 9 -180 -5z"/>
<path d="M7220 10684 c0 -3 17 -12 38 -20 20 -9 95 -40 166 -70 70 -30 130
-53 133 -51 8 9 -82 78 -132 101 -70 33 -205 59 -205 40z"/>
<path d="M8098 10655 c-43 -51 -167 -143 -269 -200 -55 -31 -98 -59 -95 -62
23 -24 318 171 375 247 29 40 20 51 -11 15z"/>
<path d="M5790 10657 c0 -3 30 -22 66 -42 36 -20 81 -50 99 -67 45 -39 63 -33
33 12 -34 50 -98 91 -152 97 -25 3 -46 3 -46 0z"/>
<path d="M7012 10595 c-18 -8 -45 -23 -58 -34 -14 -11 -46 -23 -72 -26 -81
-11 -92 -17 -54 -27 l34 -9 -41 -30 c-43 -31 -50 -46 -26 -55 25 -10 58 4 109
46 26 22 58 40 70 40 46 0 130 -51 195 -118 104 -108 170 -235 171 -332 1 -80
7 -91 49 -84 46 8 45 8 30 35 -7 13 -18 55 -25 92 -16 84 -50 161 -111 250
-25 37 -43 70 -40 73 4 4 44 -1 89 -10 81 -16 239 -22 251 -10 28 28 -123 107
-339 178 -119 38 -179 44 -232 21z m48 -50 c0 -9 -9 -15 -24 -15 -30 0 -43 17
-19 23 34 9 43 7 43 -8z m113 -2 c-7 -2 -19 -2 -25 0 -7 3 -2 5 12 5 14 0 19
-2 13 -5z m127 -23 c12 -8 9 -10 -12 -10 -16 0 -28 5 -28 10 0 13 20 13 40 0z
m156 -70 c51 -27 53 -30 31 -35 -13 -4 -39 -5 -58 -3 -30 3 -34 7 -37 36 -2
17 -1 32 3 32 3 0 30 -13 61 -30z"/>
<path d="M7412 10444 c1 -9 9 -19 16 -22 9 -3 13 2 10 14 -1 9 -9 19 -16 22
-9 3 -13 -2 -10 -14z"/>
<path d="M6412 10578 c-17 -22 -61 -139 -82 -222 -24 -94 -36 -251 -22 -286 9
-23 10 -22 16 20 3 25 8 81 11 125 8 104 30 202 67 294 28 72 32 95 10 69z"/>
<path d="M6417 10488 c-44 -116 -65 -278 -48 -377 19 -115 29 -91 35 86 5 142
22 267 43 321 2 6 0 12 -5 12 -5 0 -17 -19 -25 -42z"/>
<path d="M8866 10458 c22 -86 62 -332 84 -518 11 -96 22 -176 25 -178 41 -42
-40 578 -95 723 -18 46 -28 26 -14 -27z"/>
<path d="M7595 10480 c-8 -12 91 -110 111 -110 25 0 15 22 -26 61 -50 47 -76
63 -85 49z"/>
<path d="M7997 10411 c-48 -32 -101 -64 -117 -71 -26 -11 -41 -30 -24 -30 17
0 164 85 199 114 66 56 35 49 -58 -13z"/>
<path d="M6865 10330 c-14 -23 60 -111 117 -141 45 -23 62 -24 54 -4 -5 14 -2
14 24 0 32 -16 70 -20 70 -6 0 4 -20 16 -45 25 -25 10 -64 33 -86 52 -23 19
-43 34 -45 34 -13 0 1 -24 34 -56 35 -35 35 -36 5 -16 -17 12 -52 45 -76 72
-27 30 -48 46 -52 40z"/>
<path d="M5565 10258 c-66 -26 -69 -32 -15 -25 l45 5 -40 -14 -40 -14 48 4
c54 4 69 13 47 26 -8 6 -10 10 -4 10 5 0 19 7 30 15 19 14 19 14 -1 14 -11 -1
-42 -10 -70 -21z"/>
<path d="M7070 10262 c0 -11 109 -74 122 -70 6 2 -3 14 -20 26 -38 27 -102 55
-102 44z"/>
<path d="M9952 10134 c-18 -7 -59 -34 -91 -59 -31 -25 -64 -45 -73 -45 -9 0
-18 -7 -22 -15 -3 -8 -28 -29 -56 -46 -57 -35 -70 -63 -14 -30 20 12 38 20 40
18 3 -2 -2 -33 -11 -68 -16 -71 -21 -208 -4 -154 5 17 16 69 25 116 22 120 36
140 127 178 122 50 144 42 213 -75 25 -42 25 -45 14 -121 -15 -100 -35 -187
-66 -291 -14 -46 -23 -90 -20 -98 3 -8 -8 -42 -25 -76 -17 -33 -28 -63 -25
-66 14 -14 86 116 122 221 18 52 28 108 35 202 5 72 12 142 15 158 7 36 -29
144 -66 196 -42 57 -76 73 -118 55z m155 -436 c-3 -7 -5 -2 -5 12 0 14 2 19 5
13 2 -7 2 -19 0 -25z m-27 -109 c-28 -95 -34 -84 -7 13 12 42 24 73 25 67 2
-5 -6 -41 -18 -80z m-39 -106 c-12 -20 -14 -14 -5 12 4 9 9 14 11 11 3 -2 0
-13 -6 -23z"/>
<path d="M8662 10003 c-5 -10 -20 -49 -32 -88 -94 -288 -231 -546 -407 -764
-51 -64 -93 -119 -93 -123 0 -55 224 245 342 457 87 155 176 376 203 503 7 35
1 42 -13 15z"/>
<path d="M10016 9838 c-4 -95 -13 -204 -20 -243 -7 -38 -11 -72 -9 -75 8 -9
22 26 32 84 16 87 27 406 14 406 -6 0 -13 -69 -17 -172z"/>
<path d="M9629 9934 c-7 -16 -12 -75 -13 -131 -1 -91 -2 -99 -13 -70 -6 17
-12 49 -12 69 -1 42 -9 68 -22 68 -19 0 0 -106 32 -185 l12 -30 7 25 c5 14 8
57 9 96 1 39 6 95 11 124 11 61 6 77 -11 34z"/>
<path d="M9950 9928 c-33 -55 -44 -130 -60 -403 -4 -88 -13 -173 -19 -189 -17
-44 -127 -152 -203 -199 -37 -23 -68 -47 -68 -54 0 -37 117 10 194 79 109 95
136 171 136 383 0 185 13 294 44 361 20 43 22 54 10 54 -8 0 -23 -14 -34 -32z"/>
<path d="M7310 9912 c-62 -51 -116 -72 -225 -87 -46 -6 -48 -8 -30 -21 22 -17
123 -19 177 -4 20 6 58 26 85 46 26 19 56 37 66 41 11 3 17 13 15 27 -5 33
-47 32 -88 -2z"/>
<path d="M8709 9815 c-4 -5 -14 -38 -23 -73 -32 -125 -89 -239 -300 -597 -93
-158 -117 -205 -102 -205 6 0 96 143 176 280 127 218 218 402 240 483 19 70
24 137 9 112z"/>
<path d="M4914 9771 c-46 -28 -59 -69 -44 -139 8 -42 9 -69 2 -97 -6 -22 -14
-78 -17 -125 -3 -47 -13 -159 -22 -249 -17 -181 -14 -236 14 -256 17 -12 17
-25 5 -326 -20 -481 -6 -1347 28 -1744 1 -5 6 1 11 15 7 17 10 477 8 1360 -1
734 2 1343 6 1353 4 9 13 17 20 17 7 0 18 7 25 15 10 13 10 19 -4 34 -9 10
-19 35 -23 54 -4 30 -1 40 22 61 15 14 24 30 20 35 -9 15 -15 14 -51 -8z"/>
<path d="M9540 9748 c0 -10 10 -53 22 -95 18 -65 22 -105 22 -235 1 -86 -2
-159 -5 -163 -4 -3 -18 -3 -33 1 l-26 6 0 180 0 181 -39 42 c-21 23 -40 48
-43 55 -2 8 -9 10 -17 6 -18 -11 -6 -69 25 -125 13 -24 24 -52 24 -63 0 -10
-48 -69 -107 -131 -59 -62 -109 -114 -112 -117 -2 -3 -2 0 2 5 11 20 28 254
21 291 -11 59 -24 19 -24 -74 0 -46 -7 -133 -16 -194 -16 -107 -16 -111 3
-137 29 -39 57 -38 121 5 68 45 137 56 177 30 14 -9 25 -23 25 -31 0 -8 5 -15
10 -15 6 0 10 5 10 11 0 6 11 8 28 4 23 -5 36 1 74 35 25 22 50 40 55 40 10 0
44 159 37 172 -3 5 -12 4 -19 -2 -11 -9 -15 -6 -20 17 -14 61 -19 55 -25 -27
-4 -68 -20 -130 -33 -130 -1 0 -2 46 -3 103 -1 161 -21 169 -26 11 -4 -118
-15 -174 -36 -174 -4 0 -7 80 -7 178 -1 142 -4 189 -19 236 -24 78 -45 126
-46 104z m-45 -383 c-6 -67 -9 -73 -31 -78 -30 -5 -34 -1 -34 36 0 30 62 143
69 125 2 -5 0 -43 -4 -83z m-99 -91 c-3 -8 -10 -14 -16 -14 -14 0 -13 37 2 63
13 22 13 22 16 -6 2 -16 1 -35 -2 -43z m-59 -11 c-3 -10 -5 -2 -5 17 0 19 2
27 5 18 2 -10 2 -26 0 -35z"/>
<path d="M7815 9553 c-146 -153 -291 -279 -433 -378 -66 -46 -85 -65 -64 -65
20 0 191 124 301 217 110 95 257 247 325 336 60 79 15 40 -129 -110z"/>
<path d="M8040 9672 c-54 -80 -363 -379 -485 -468 -66 -48 -135 -98 -153 -112
-50 -36 -31 -38 31 -3 124 71 365 268 491 402 109 115 179 219 149 219 -5 0
-19 -17 -33 -38z"/>
<path d="M6606 9663 c10 -16 29 -47 42 -70 22 -41 42 -56 42 -33 0 31 -71 130
-93 130 -5 0 -1 -12 9 -27z"/>
<path d="M5727 9609 c-48 -110 -62 -162 -62 -244 0 -93 14 -125 80 -189 l43
-42 -30 -35 c-16 -18 -23 -23 -14 -9 19 30 20 40 3 40 -24 0 -187 -265 -187
-305 0 -34 21 -12 71 73 17 28 36 52 43 52 7 0 21 9 31 20 17 19 19 19 31 2
13 -16 16 -14 46 18 18 19 43 49 55 65 l23 30 -11 -32 c-6 -17 -19 -39 -30
-49 -10 -9 -19 -28 -19 -41 0 -13 -4 -32 -9 -42 -6 -10 -6 -23 0 -32 8 -11 13
-10 29 11 53 69 92 198 63 207 -6 2 -9 13 -6 23 10 37 -17 20 -64 -40 -25 -33
-48 -60 -51 -60 -7 0 29 53 56 82 24 26 24 28 8 53 -9 14 -20 25 -25 25 -18 0
-85 76 -103 118 -27 61 -19 119 39 275 30 82 23 102 -10 26z"/>
<path d="M8885 9608 c-2 -7 -11 -67 -20 -133 -38 -278 -107 -509 -237 -788
-52 -113 -60 -151 -14 -73 33 57 131 280 163 371 32 93 78 279 97 390 19 112
31 245 22 245 -4 0 -8 -6 -11 -12z"/>
<path d="M7979 9493 c-100 -130 -265 -297 -374 -377 -44 -33 -82 -61 -84 -63
-2 -2 -2 -6 2 -9 20 -20 287 200 395 325 90 105 174 231 153 231 -5 0 -47 -48
-92 -107z"/>
<path d="M9315 9563 c-12 -79 -33 -189 -40 -205 -4 -10 -3 -18 3 -18 16 0 62
179 62 242 0 33 -19 18 -25 -19z"/>
<path d="M8766 9563 c-4 -5 -30 -54 -56 -111 -97 -204 -258 -459 -432 -680
-94 -120 -118 -163 -62 -111 40 36 244 311 311 419 139 222 296 540 239 483z"/>
<path d="M9167 9486 c-4 -43 -7 -105 -7 -136 0 -32 -11 -102 -25 -156 -29
-113 -30 -130 -9 -91 39 71 77 363 56 432 -7 26 -10 19 -15 -49z"/>
<path d="M5075 9418 c53 -420 103 -723 141 -854 16 -57 23 -100 19 -119 -3
-16 -10 -66 -15 -109 -6 -44 -19 -118 -31 -164 -15 -57 -18 -86 -11 -91 7 -4
6 -21 -2 -56 -22 -84 -26 -135 -11 -135 15 0 42 53 51 99 7 32 24 53 24 30 0
-10 3 -10 12 -1 8 8 14 59 16 142 3 72 8 130 12 130 12 0 -1 263 -15 285 -7
11 -16 41 -20 65 -11 68 -123 665 -142 753 -18 88 -38 105 -28 25z"/>
<path d="M5750 9462 c-1 -42 100 -162 137 -162 20 0 17 5 -44 68 -32 32 -66
69 -75 83 -9 13 -17 18 -18 11z"/>
<path d="M6111 9408 c-30 -33 -70 -67 -89 -75 -23 -10 -31 -18 -25 -24 32 -32
183 92 183 151 0 20 -16 9 -69 -52z"/>
<path d="M6722 9432 c22 -86 -36 -175 -149 -230 -43 -21 -59 -34 -67 -59 -15
-44 -21 -47 -48 -29 -12 9 -29 16 -38 16 -18 1 -121 95 -113 104 4 3 16 6 28
6 33 0 118 31 139 50 62 59 -117 124 -236 85 -91 -29 -146 -87 -106 -111 15
-9 -16 -23 -52 -23 -22 0 -23 1 -5 8 15 6 11 9 -20 14 -61 10 -127 8 -120 -3
3 -5 18 -10 33 -10 25 -1 26 -1 7 -12 -19 -11 -19 -11 0 -19 33 -13 104 -10
142 6 69 29 88 22 134 -50 43 -67 57 -76 144 -91 l40 -7 -33 -14 c-29 -12 -33
-18 -30 -45 2 -17 9 -33 16 -36 7 -2 13 2 11 9 -3 27 1 39 15 39 22 0 44 -37
57 -97 7 -29 17 -53 24 -53 12 0 45 -93 45 -129 0 -13 21 -62 46 -109 25 -48
40 -80 32 -71 -72 85 -119 157 -157 242 -2 5 9 1 24 -9 26 -17 27 -17 23 4 -4
26 -168 223 -180 216 -11 -7 17 -54 80 -130 31 -38 47 -64 38 -64 -14 0 -86
76 -86 92 0 4 -7 8 -15 8 -8 0 -24 6 -35 12 -80 50 -67 -152 17 -273 30 -43
38 -66 41 -111 5 -70 -11 -77 -27 -14 -12 47 -31 70 -32 39 0 -15 -2 -14 -11
5 -6 12 -17 22 -25 22 -7 0 -13 6 -13 14 0 8 -9 17 -19 21 -27 8 -32 43 -16
105 18 66 17 60 5 60 -6 0 -16 -12 -23 -26 l-12 -27 -6 24 c-11 38 -10 108 1
130 8 15 7 23 -4 35 -9 8 -21 12 -27 8 -23 -14 -1 70 23 88 22 17 23 16 28
-10 l6 -27 28 43 c29 42 29 73 1 36 -14 -18 -14 -18 -15 5 0 20 -3 22 -27 16
-16 -3 -41 -13 -56 -20 -24 -12 -29 -12 -34 1 -10 26 -28 14 -41 -28 -8 -24
-31 -69 -53 -100 -21 -32 -39 -62 -39 -68 0 -14 23 -13 38 2 9 9 12 9 12 -1 0
-27 -22 -50 -64 -66 -41 -16 -47 -16 -77 -1 -39 20 -39 20 -39 1 0 -30 46 -48
106 -40 38 4 60 3 70 -6 18 -15 48 -70 37 -68 -19 3 -22 -3 -13 -26 6 -15 6
-26 0 -30 -17 -10 -11 -25 10 -25 20 0 44 -32 33 -44 -3 -3 -22 -6 -42 -6 -39
0 -70 -14 -58 -27 5 -4 37 -8 73 -8 l65 0 25 -40 c22 -37 22 -40 6 -47 -26
-10 -93 -9 -134 2 -43 12 -56 31 -65 95 -9 70 -23 64 -23 -9 0 -43 -4 -66 -11
-66 -8 0 -10 19 -5 64 5 51 3 67 -9 79 -8 9 -15 23 -15 31 0 33 -29 15 -36
-21 -4 -21 -10 -42 -14 -48 -4 -5 -13 -27 -20 -48 -7 -22 -31 -63 -55 -91 -23
-29 -46 -63 -50 -74 -9 -31 20 -40 48 -14 12 11 42 30 66 42 42 21 45 21 107
6 82 -21 131 -20 196 2 132 46 156 50 200 33 13 -5 43 -15 68 -22 32 -9 63
-30 108 -73 55 -54 64 -59 82 -49 12 8 21 9 25 3 3 -6 16 -10 27 -10 20 0 21
4 15 69 -6 74 -29 141 -48 141 -8 0 -9 -11 -5 -32 4 -18 9 -51 12 -73 4 -38 3
-36 -27 28 -31 66 -49 84 -49 50 0 -26 -16 0 -36 62 -12 35 -32 63 -70 97 -56
52 -97 123 -92 160 2 18 14 4 50 -62 47 -86 127 -170 162 -170 8 0 33 -9 55
-21 42 -22 45 -28 56 -129 11 -102 17 -130 26 -124 5 3 10 29 10 57 l2 52 6
-43 c7 -42 25 -71 37 -60 3 4 2 27 -4 53 -8 38 -7 44 4 34 7 -6 17 -8 22 -5 5
3 19 -17 32 -44 13 -28 30 -50 38 -50 9 0 12 6 7 18 -10 24 -36 214 -31 220 7
6 14 -31 21 -110 7 -70 20 -90 28 -40 4 27 4 27 6 -3 1 -23 12 -40 47 -69 54
-45 77 -38 51 16 -16 35 -47 171 -47 209 0 45 37 -9 55 -79 34 -137 65 -230
81 -243 27 -23 63 -105 85 -196 26 -108 35 -133 50 -133 17 0 5 87 -26 189
-14 47 -25 89 -25 95 1 37 80 -179 80 -219 0 -13 5 -36 10 -50 8 -22 13 -25
25 -15 8 6 19 9 24 6 18 -11 33 -116 36 -254 3 -192 3 -185 20 -178 17 6 21
-19 5 -29 -5 -3 -10 -17 -10 -31 0 -37 -12 -29 -45 32 -16 30 -36 60 -43 66
-10 9 -8 13 10 22 33 17 32 45 -6 200 -55 219 -79 205 -31 -18 14 -64 25 -125
25 -136 0 -40 -17 -19 -34 43 -31 115 -144 317 -177 317 -14 0 -11 -21 7 -44
9 -12 -9 5 -40 38 -32 32 -55 64 -52 71 9 24 -90 149 -155 196 -51 36 -43 15
20 -57 34 -38 61 -79 61 -91 0 -29 74 -124 165 -212 107 -103 162 -225 121
-270 -24 -27 -3 -71 34 -71 22 0 33 -11 68 -73 42 -73 55 -109 27 -71 -14 18
-14 18 -14 -6 0 -14 4 -45 9 -70 9 -45 1 -90 -23 -135 -16 -28 -22 -294 -8
-308 18 -18 26 2 26 70 0 61 1 63 13 34 6 -17 18 -31 25 -31 8 0 41 25 74 54
68 63 109 137 148 273 28 95 32 137 13 131 -7 -3 -15 -27 -18 -54 l-5 -49 -13
68 c-14 72 -30 117 -44 117 -11 0 -11 -2 8 -74 24 -93 15 -181 -25 -240 -38
-54 -51 -58 -51 -13 0 17 -3 50 -6 72 -6 39 -6 40 10 18 27 -36 50 -30 42 10
-3 17 -10 66 -16 108 -5 42 -17 96 -25 120 -18 50 -37 227 -39 374 -1 85 -12
178 -32 283 -6 31 -22 28 -27 -5 -3 -24 -4 -23 -6 7 -1 19 -6 89 -11 154 -8
99 -14 123 -30 138 -11 11 -52 83 -91 161 -56 111 -83 153 -129 199 -31 32
-61 58 -66 58 -5 0 -35 23 -67 50 -81 69 -106 65 -37 -5 30 -30 50 -55 44 -55
-12 0 -115 106 -181 185 -48 58 -64 56 -33 -5 35 -68 15 -57 -25 14 -20 36
-41 69 -46 72 -33 20 -13 -27 98 -226 l26 -45 -26 30 c-33 38 -100 165 -131
247 -13 34 -29 64 -35 66 -14 5 -7 -28 20 -102 10 -28 16 -52 14 -54 -6 -7
-34 60 -55 134 l-18 62 39 5 c61 8 128 45 155 87 33 49 42 131 21 183 -21 49
-38 49 -25 -1z m-432 -242 c11 -21 29 -42 41 -45 11 -4 18 -9 15 -12 -15 -15
-96 61 -96 89 0 27 17 13 40 -32z m377 -437 c48 -87 93 -183 108 -233 15 -47
28 -91 31 -99 4 -11 2 -11 -10 -2 -8 7 -29 47 -47 89 -68 164 -116 245 -127
213 -6 -19 -81 148 -91 205 l-9 49 31 -37 c18 -20 69 -103 114 -185z m-557
122 c-27 -29 -37 -27 -20 4 6 12 18 21 27 21 13 0 12 -5 -7 -25z m220 -37 c0
-16 -3 -16 -20 -6 -11 7 -20 24 -20 37 0 23 1 24 20 6 11 -10 20 -26 20 -37z
m455 15 c27 -40 34 -71 9 -38 -20 26 -46 75 -40 75 3 0 17 -17 31 -37z m-690
-33 c-3 -5 -12 -10 -18 -10 -7 0 -6 4 3 10 19 12 23 12 15 0z m59 -71 c12
-116 10 -119 -30 -53 -19 32 -39 63 -44 68 -10 10 34 44 56 45 6 1 14 -25 18
-60z m614 -5 c11 7 66 -136 60 -155 -3 -10 -128 172 -128 187 0 2 13 -5 29
-17 16 -12 34 -19 39 -15z m67 -4 c9 -16 13 -30 11 -30 -3 0 -12 14 -21 30 -9
17 -13 30 -11 30 3 0 12 -13 21 -30z m128 -41 c16 -7 39 -30 54 -58 15 -25 38
-61 50 -80 13 -19 23 -42 23 -53 0 -25 -40 22 -105 122 -41 64 -49 72 -58 58
-10 -15 -14 -12 -34 20 -31 51 -29 59 10 28 17 -15 44 -31 60 -37z m-805 -75
c5 3 12 -13 16 -35 4 -23 14 -55 23 -73 14 -27 14 -29 0 -18 -23 19 -48 78
-41 97 5 12 2 16 -11 13 -10 -2 -24 8 -33 21 l-17 25 27 -18 c15 -10 31 -15
36 -12z m81 -78 c2 -30 -17 -6 -19 24 -4 43 2 56 10 25 4 -16 8 -39 9 -49z
m642 42 c7 -13 18 -61 24 -108 7 -47 15 -101 19 -120 5 -25 4 -30 -3 -19 -5 8
-17 60 -27 115 -9 54 -23 111 -30 127 -17 32 0 37 17 5z m-592 -70 c1 -10 -3
-18 -9 -18 -5 0 -10 17 -9 38 0 30 2 33 9 17 5 -11 9 -28 9 -37z m185 -13 l6
-30 -14 25 c-7 14 -17 36 -21 50 -7 24 -6 24 8 5 8 -11 17 -33 21 -50z m-579
13 c-4 -27 -16 -51 -31 -65 -41 -38 -45 -26 -8 28 19 28 34 57 34 65 0 8 3 14
6 14 3 0 3 -19 -1 -42z m1176 -138 c23 -92 32 -159 19 -140 -9 14 -70 192 -70
206 0 3 8 4 18 2 12 -2 22 -22 33 -68z m186 -150 c2 -47 0 -105 -5 -130 l-9
-45 -22 48 c-12 26 -29 84 -37 129 -9 44 -22 98 -30 120 -8 22 -14 47 -14 54
0 24 17 15 30 -16 16 -39 31 -29 19 13 -14 49 -11 47 28 -23 32 -58 37 -74 40
-150z m70 -262 c-3 -8 -6 -5 -6 6 -1 11 2 17 5 13 3 -3 4 -12 1 -19z m10 -50
c-3 -8 -6 -5 -6 6 -1 11 2 17 5 13 3 -3 4 -12 1 -19z m22 -68 c6 -19 7 -30 2
-25 -5 6 -13 24 -17 40 -9 39 0 30 15 -15z m23 -545 c-2 -41 -7 -63 -14 -59
-13 8 1 124 15 124 1 0 0 -29 -1 -65z m-65 -27 c-3 -8 -6 -5 -6 6 -1 11 2 17
5 13 3 -3 4 -12 1 -19z m95 -286 c-17 -21 -39 -45 -48 -53 -16 -13 -17 -11
-10 31 4 25 12 50 18 55 8 7 9 6 4 -2 -10 -18 15 -16 40 1 30 23 29 10 -4 -32z"/>
<path d="M8967 9423 c-3 -5 -17 -55 -31 -111 -67 -263 -150 -499 -271 -768
-42 -92 -74 -172 -71 -178 8 -22 184 368 238 524 69 205 156 525 145 536 -3 3
-7 1 -10 -3z"/>
<path d="M7827 9174 c-120 -119 -216 -218 -213 -221 10 -10 149 110 281 243
118 119 179 195 158 194 -4 -1 -106 -98 -226 -216z"/>
<path d="M5730 9336 c0 -17 20 -40 114 -127 43 -40 71 -59 73 -51 4 10 8 10
19 1 28 -23 26 1 -2 35 -16 20 -39 49 -52 66 -24 30 -87 72 -129 85 -17 5 -23
2 -23 -9z"/>
<path d="M6612 9316 c-18 -13 -53 -29 -78 -36 -54 -15 -59 -35 -7 -27 40 7
124 55 131 75 6 18 -9 14 -46 -12z"/>
<path d="M6495 9220 c-78 -28 -99 -47 -48 -43 26 2 153 58 153 67 0 10 -24 5
-105 -24z"/>
<path d="M7990 9173 c-36 -43 -98 -113 -138 -156 -79 -84 -91 -120 -16 -46 47
46 160 176 208 242 51 67 12 39 -54 -40z"/>
<path d="M8666 9078 c-11 -18 -61 -99 -113 -179 -92 -144 -107 -173 -79 -150
27 23 201 295 219 344 11 29 -8 19 -27 -15z"/>
<path d="M5997 9093 c-38 -6 -57 -39 -104 -185 -8 -26 10 -22 37 7 17 18 26
22 31 13 12 -19 39 10 71 77 43 92 41 99 -35 88z"/>
<path d="M7989 8953 c-71 -74 -95 -103 -85 -103 11 0 105 90 138 132 48 61 18
44 -53 -29z"/>
<path d="M5515 8864 c-31 -65 -66 -141 -77 -169 -11 -27 -24 -55 -29 -61 -5
-6 -23 -36 -39 -65 -22 -41 -30 -48 -30 -31 0 13 11 38 25 56 13 17 47 101 75
185 56 172 54 161 39 161 -14 0 -50 -84 -88 -209 -36 -116 -52 -134 -20 -22
20 69 19 102 -2 71 -18 -29 -48 -141 -60 -224 -11 -75 -10 -88 5 -111 9 -14
20 -25 25 -25 5 0 19 29 31 64 11 35 46 99 76 142 32 47 53 86 50 97 -2 9 18
67 46 129 34 76 46 114 39 121 -7 7 -28 -27 -66 -109z"/>
<path d="M8955 8898 c-3 -13 -17 -79 -31 -148 -27 -130 -85 -317 -130 -417
-46 -104 -64 -153 -55 -153 13 0 104 190 140 292 45 131 108 448 87 448 -3 0
-8 -10 -11 -22z"/>
<path d="M5737 8893 c-2 -5 -17 -60 -32 -123 -30 -120 -62 -195 -84 -195 -7 0
-23 -32 -36 -73 -13 -41 -25 -76 -27 -78 -3 -2 -5 31 -7 74 -1 42 -2 93 -3
112 -1 19 8 68 20 108 32 112 4 84 -45 -44 -46 -120 -51 -144 -28 -144 20 0
19 -14 -11 -116 -16 -56 -31 -144 -39 -234 -15 -151 -44 -273 -71 -288 -20
-11 -15 -57 6 -57 18 0 77 106 86 155 9 49 22 70 38 64 17 -6 26 34 27 125 l1
66 10 -47 c13 -61 28 -62 28 -3 0 33 4 45 15 45 8 0 21 12 29 28 8 15 29 40
46 56 32 30 114 145 144 204 11 22 13 32 4 32 -6 0 -24 -15 -39 -32 l-27 -33
18 55 c23 70 28 112 13 117 -6 2 -20 -21 -33 -54 -37 -102 -55 -142 -71 -165
-16 -20 -16 -19 -9 29 5 28 16 65 24 82 40 76 92 341 68 341 -6 0 -13 -3 -15
-7z m-200 -615 c-3 -7 -5 -2 -5 12 0 14 2 19 5 13 2 -7 2 -19 0 -25z"/>
<path d="M8008 8832 c-22 -21 -39 -44 -37 -51 2 -6 26 10 54 39 57 58 44 68
-17 12z"/>
<path d="M8832 8770 c-72 -261 -108 -362 -192 -535 -33 -66 -87 -165 -123
-220 -35 -56 -67 -106 -71 -113 -4 -7 -3 -12 3 -12 16 0 123 168 188 295 33
66 82 173 108 238 49 124 108 338 102 372 -2 13 -7 5 -15 -25z"/>
<path d="M5630 8765 c-45 -118 -68 -215 -51 -215 8 0 45 105 78 223 7 27 -16
20 -27 -8z"/>
<path d="M5965 8640 c42 -21 55 -20 35 5 -7 8 -26 15 -43 15 l-31 0 39 -20z"/>
<path d="M7280 8579 c0 -20 61 -120 108 -177 29 -36 51 -77 64 -118 10 -34 26
-68 35 -75 15 -13 16 -10 10 29 -5 42 -5 43 14 26 18 -16 19 -16 19 5 0 39
-121 255 -162 289 -29 23 -28 -4 1 -50 74 -116 60 -112 -18 5 -48 72 -71 93
-71 66z"/>
<path d="M8977 8580 c-3 -8 -16 -49 -27 -90 -26 -88 -80 -233 -86 -227 -2 2 3
38 11 81 18 92 18 93 5 80 -5 -5 -27 -62 -50 -127 -48 -141 -97 -240 -177
-362 -122 -185 -295 -366 -447 -465 -72 -48 -374 -203 -385 -198 -5 2 11 44
35 93 41 85 43 87 38 45 -4 -25 -13 -58 -21 -73 -18 -36 -10 -46 17 -22 25 23
110 190 110 216 0 30 -16 23 -49 -23 l-30 -41 -3 119 c-2 96 -5 114 -14 95
-10 -23 -12 -20 -32 45 -11 38 -24 81 -27 97 -4 15 -11 27 -16 27 -5 0 -7 -12
-3 -27 19 -85 37 -153 50 -195 14 -44 14 -53 -5 -127 -11 -43 -29 -96 -40
-118 -20 -38 -20 -38 -21 -10 0 19 -11 39 -31 58 -30 28 -32 33 -40 143 -8
110 -39 288 -59 341 -12 31 -32 33 -25 3 35 -150 56 -313 65 -506 0 -2 9 0 20
3 23 7 50 -10 50 -30 0 -7 -20 -35 -45 -62 l-44 -48 -1 54 c0 30 -6 62 -13 70
-8 9 -19 55 -25 102 -16 117 -64 281 -121 419 -26 63 -51 124 -56 135 -15 40
-18 -7 -5 -97 13 -98 44 -216 60 -232 14 -14 13 -6 -10 86 -34 130 -17 111 28
-33 35 -112 62 -237 109 -497 7 -39 -31 -103 -74 -124 -23 -11 -34 -30 -61
-107 -30 -87 -34 -118 -13 -95 5 5 28 45 51 89 43 80 80 130 80 107 0 -28 22
-8 44 41 22 49 86 123 86 100 0 -6 2 -18 5 -25 4 -9 -5 -19 -21 -27 -15 -6
-24 -14 -21 -17 16 -16 460 196 583 278 105 70 296 257 374 366 74 102 123
202 196 398 61 166 97 288 91 312 -3 14 -5 15 -10 2z"/>
<path d="M7190 8571 c0 -33 181 -251 208 -251 27 0 23 30 -7 56 -17 14 -65 66
-107 115 -70 82 -94 103 -94 80z"/>
<path d="M7554 8278 c35 -68 81 -164 102 -215 60 -144 66 -99 9 67 -36 106
-137 270 -166 270 -5 0 19 -55 55 -122z"/>
<path d="M5326 8337 c-3 -12 -6 -52 -6 -89 0 -78 -15 -154 -42 -218 -19 -45
-68 -311 -68 -373 0 -18 9 -57 21 -87 14 -37 21 -76 20 -119 -1 -69 6 -104 18
-96 5 2 11 -23 15 -57 4 -38 13 -70 24 -82 10 -12 29 -52 41 -90 43 -134 118
-273 137 -253 9 9 -18 96 -57 184 -21 46 -26 69 -18 73 8 5 6 16 -5 39 -9 17
-14 36 -11 41 3 5 1 28 -5 51 -22 82 -42 196 -50 292 -9 103 -14 121 -31 97
-22 -32 -1 184 30 308 34 133 37 166 19 160 -6 -2 -20 -42 -31 -89 -10 -46
-22 -87 -26 -92 -4 -4 3 41 16 100 27 124 41 307 26 316 -6 4 -13 -3 -17 -16z"/>
<path d="M8747 8318 c-13 -24 -41 -74 -62 -113 -132 -247 -288 -432 -535 -635
-71 -58 -96 -90 -34 -44 207 153 380 333 503 523 50 79 164 301 158 308 -3 2
-16 -15 -30 -39z"/>
<path d="M8563 8335 c-9 -25 4 -29 17 -6 7 15 7 21 0 21 -6 0 -13 -7 -17 -15z"/>
<path d="M7640 8272 c0 -5 8 -20 19 -33 10 -13 30 -47 44 -74 28 -57 66 -106
67 -87 0 25 -80 167 -105 185 -14 10 -25 14 -25 9z"/>
<path d="M6810 8244 c0 -22 141 -165 208 -211 46 -32 61 -50 91 -112 41 -86
68 -107 57 -45 -4 22 -20 67 -36 101 -50 109 -171 270 -192 257 -13 -8 -5 -26
43 -89 23 -31 40 -58 37 -60 -3 -3 -48 35 -101 85 -53 49 -99 90 -102 90 -3 0
-5 -7 -5 -16z"/>
<path d="M7720 8259 c0 -4 15 -29 33 -55 17 -27 46 -79 62 -116 17 -37 33 -68
38 -68 28 -1 -35 138 -92 201 -22 24 -40 41 -41 38z"/>
<path d="M7840 8256 c0 -10 64 -184 77 -209 24 -46 26 -24 4 41 -40 117 -63
172 -72 172 -5 0 -9 -2 -9 -4z"/>
<path d="M5770 8220 c0 -15 76 -67 124 -85 24 -9 54 -15 67 -12 l24 4 -22 8
c-42 14 -23 21 84 34 113 13 123 16 123 33 0 16 -197 4 -242 -15 -37 -15 -39
-15 -93 14 -60 32 -65 33 -65 19z"/>
<path d="M6347 8196 c-90 -17 -95 -26 -12 -26 69 0 145 16 145 32 0 11 -50 8
-133 -6z"/>
<path d="M7995 8151 c-6 -11 55 -85 63 -77 5 6 -44 86 -53 86 -2 0 -6 -4 -10
-9z"/>
<path d="M7955 8090 c14 -27 30 -50 35 -50 6 0 -1 23 -15 50 -14 28 -30 50
-35 50 -6 0 1 -22 15 -50z"/>
<path d="M6125 8021 c-8 -17 -20 -57 -26 -89 -17 -97 -46 -166 -77 -180 -33
-15 -218 -164 -244 -197 -52 -66 -79 -187 -59 -261 10 -39 49 -100 57 -91 3 2
-3 33 -12 68 -22 87 -15 172 21 238 15 28 36 58 46 67 17 16 17 13 -1 -39 -21
-60 -26 -127 -10 -127 6 0 10 6 10 14 0 21 58 154 86 195 23 35 112 117 119
110 1 -2 -10 -38 -26 -79 -16 -41 -28 -84 -27 -95 4 -31 45 41 79 137 25 74
28 77 34 49 11 -53 22 -25 28 76 3 54 13 124 22 157 19 69 7 98 -20 47z"/>
<path d="M6633 7997 c10 -60 50 -131 117 -202 36 -38 81 -93 99 -122 47 -75
115 -135 149 -131 35 4 44 38 11 38 -35 0 -116 92 -179 203 -30 53 -60 97 -67
97 -16 0 -16 -5 -2 -33 7 -16 3 -14 -16 8 -15 17 -42 63 -61 103 -36 77 -60
96 -51 39z"/>
<path d="M6850 7961 c0 -35 153 -211 184 -211 3 0 6 4 6 10 0 11 -167 213
-181 218 -5 2 -9 -5 -9 -17z"/>
<path d="M7370 7977 c0 -17 70 -379 75 -387 3 -5 11 -10 17 -10 13 0 5 78 -22
219 -27 143 -39 181 -55 181 -8 0 -15 -1 -15 -3z"/>
<path d="M6806 7923 c10 -44 93 -213 104 -213 6 0 10 5 10 10 0 18 -59 163
-80 198 -24 40 -43 42 -34 5z"/>
<path d="M6490 7935 c0 -24 114 -198 154 -234 33 -31 33 -20 -1 38 -65 113
-126 201 -139 201 -8 0 -14 -2 -14 -5z"/>
<path d="M7725 7923 c30 -78 57 -175 71 -259 21 -118 34 -141 34 -58 0 99 -72
334 -102 334 -6 0 -7 -8 -3 -17z"/>
<path d="M5502 7889 c-9 -17 -35 -53 -57 -79 -51 -62 -108 -156 -103 -171 2
-6 28 27 58 74 30 47 55 85 56 84 1 -1 -11 -51 -26 -112 -29 -110 -39 -212
-20 -200 5 3 16 26 23 52 13 45 13 44 13 -53 -1 -55 3 -116 7 -136 15 -72 27
-39 27 77 0 63 5 148 11 190 12 76 7 102 -12 75 -10 -13 -10 -13 -6 0 6 21 57
192 63 213 9 29 -16 19 -34 -14z"/>
<path d="M6302 7873 c-7 -21 -29 -64 -49 -96 l-38 -58 -3 48 c-6 117 -32 119
-32 2 0 -48 -5 -73 -18 -90 -30 -40 -130 -212 -137 -236 -13 -46 17 -21 66 55
l51 77 -6 -53 c-12 -98 14 -157 52 -118 15 15 15 16 -2 16 -17 0 -18 7 -14 83
5 84 14 111 68 202 46 77 90 168 90 188 0 30 -16 18 -28 -20z"/>
<path d="M8787 7816 c-131 -202 -450 -520 -702 -703 -53 -38 -18 -38 40 0 172
115 543 485 653 651 40 60 72 113 72 118 0 21 -19 2 -63 -66z"/>
<path d="M6526 7804 c-3 -9 -6 -37 -6 -62 -1 -26 -7 -76 -15 -112 -17 -78 -17
-80 -7 -80 12 0 39 65 52 120 16 75 11 150 -10 150 -4 0 -11 -7 -14 -16z"/>
<path d="M6234 7655 c-9 -21 5 -241 17 -271 12 -32 46 -31 61 2 10 22 9 28
-15 47 -24 20 -27 30 -33 125 -7 98 -17 132 -30 97z"/>
<path d="M6336 7592 c-8 -14 17 -87 64 -188 35 -77 55 -103 67 -91 6 7 -1 26
-57 162 -42 103 -63 135 -74 117z"/>
<path d="M6440 7538 c0 -7 13 -47 30 -88 33 -84 39 -169 16 -223 -7 -18 -35
-53 -62 -79 -48 -48 -49 -48 -21 -48 l28 0 -32 -47 c-40 -57 -52 -128 -39
-227 9 -71 26 -98 46 -71 9 12 8 30 -4 76 -10 43 -12 72 -6 101 8 36 16 45 59
68 63 33 111 107 121 186 5 44 1 70 -21 142 -38 119 -85 222 -101 222 -8 0
-14 -6 -14 -12z m97 -354 c-7 -43 -48 -106 -85 -130 l-27 -18 18 25 c9 13 34
54 55 91 20 37 39 68 41 68 2 0 1 -16 -2 -36z"/>
<path d="M5490 7459 c0 -62 15 -208 30 -284 7 -39 7 -39 18 -15 l11 25 1 -25
c1 -36 11 -70 21 -70 12 0 11 105 -2 231 -10 105 -23 149 -33 119 -3 -8 -7
-26 -9 -40 -2 -14 -5 1 -6 32 -1 61 -8 88 -22 88 -5 0 -9 -28 -9 -61z"/>
<path d="M8620 7449 c-59 -81 -203 -218 -356 -336 -69 -54 -121 -99 -115 -101
16 -5 46 15 174 117 190 153 399 381 349 381 -4 0 -27 -27 -52 -61z"/>
<path d="M6960 7403 c0 -11 24 -49 54 -85 74 -89 86 -116 81 -175 -2 -26 -7
-58 -11 -71 -12 -41 25 -13 51 38 13 26 32 50 41 54 12 5 15 14 11 36 -10 50
-79 190 -93 190 -18 0 -18 4 12 -69 14 -35 23 -65 21 -67 -2 -2 -27 24 -56 58
-29 35 -66 73 -82 86 -27 22 -29 22 -29 5z"/>
<path d="M8465 7143 c-71 -75 -172 -170 -222 -211 -90 -72 -125 -114 -62 -74
108 68 379 329 420 405 22 39 -13 9 -136 -120z"/>
<path d="M6920 7200 c0 -6 12 -33 26 -61 14 -28 27 -74 30 -102 l6 -52 -27 45
c-32 54 -74 100 -92 100 -18 0 -16 -15 2 -30 13 -11 13 -15 3 -21 -9 -6 -14
-40 -16 -104 -5 -115 4 -173 21 -156 8 8 12 53 12 131 0 132 8 140 45 44 25
-69 25 -92 -1 -120 -27 -29 -18 -47 16 -32 14 6 35 34 51 65 35 72 31 153 -13
239 -27 53 -63 84 -63 54z"/>
<path d="M8510 7040 c-22 -27 -93 -93 -156 -147 -63 -54 -110 -99 -105 -101
32 -11 331 253 331 292 0 20 -34 -1 -70 -44z"/>
<path d="M7151 6983 c-22 -128 -32 -173 -42 -173 -5 0 -9 16 -9 35 0 27 -4 35
-19 35 -13 0 -24 -14 -36 -47 -10 -27 -24 -56 -31 -66 -12 -18 -12 -18 -19 2
-9 30 -34 26 -41 -6 -10 -48 -66 -218 -74 -226 -4 -5 -16 28 -26 73 -14 68
-20 81 -34 77 -16 -4 -16 0 -4 45 19 73 28 178 16 178 -13 0 -17 -15 -32 -99
-6 -36 -20 -81 -29 -100 -10 -20 -24 -58 -30 -86 -7 -27 -16 -54 -20 -60 -5
-5 -14 -28 -21 -50 -7 -22 -17 -48 -22 -58 -9 -18 -10 -18 -23 0 -13 17 -14
17 -20 0 -11 -28 14 -79 37 -74 13 4 18 0 18 -14 0 -22 32 -39 38 -20 2 6 16
26 30 43 l26 31 10 -42 c6 -24 16 -43 21 -44 6 0 31 40 57 89 26 49 51 90 56
92 5 1 14 -9 20 -23 6 -14 16 -25 21 -25 11 0 44 68 61 128 14 45 19 49 38 30
17 -17 27 -2 41 64 7 32 21 68 31 80 l19 23 1 -28 c0 -32 16 -67 30 -67 28 0
41 200 19 300 -8 38 -15 50 -29 50 -14 0 -20 -13 -29 -67z m6 -145 c-3 -8 -6
-5 -6 6 -1 11 2 17 5 13 3 -3 4 -12 1 -19z m-133 -182 c-9 -26 -18 -45 -20
-43 -2 2 3 25 12 51 9 26 18 45 20 43 2 -2 -3 -25 -12 -51z m-175 -191 c0 -5
-4 -3 -9 5 -5 8 -9 22 -9 30 0 16 17 -16 18 -35z"/>
<path d="M6506 6938 c-3 -24 -8 -79 -11 -123 -3 -54 -10 -84 -20 -91 -21 -16
-19 -34 4 -34 37 0 45 27 49 161 3 87 1 129 -6 129 -6 0 -13 -19 -16 -42z"/>
<path d="M6558 6948 c12 -56 8 -216 -5 -230 -17 -16 -16 -48 1 -48 7 0 19 7
26 15 7 8 20 15 29 15 22 0 56 36 71 75 17 43 26 205 12 205 -11 0 -16 -22
-27 -118 -6 -58 -32 -132 -46 -132 -9 0 -15 33 -25 135 -7 76 -18 115 -34 115
-6 0 -7 -13 -2 -32z"/>
<path d="M6736 6918 c-3 -13 -7 -45 -10 -73 -7 -55 -56 -168 -88 -202 -24 -25
-48 -29 -66 -11 -17 17 -26 3 -13 -20 39 -72 126 -1 182 148 24 63 31 170 12
177 -7 3 -14 -6 -17 -19z"/>
<path d="M4915 6847 c-14 -34 3 -337 24 -442 12 -55 21 -107 21 -117 0 -11
-21 -22 -72 -38 -88 -27 -174 -69 -337 -168 -216 -130 -345 -179 -761 -292
-395 -107 -429 -121 -575 -230 -160 -120 -234 -152 -522 -230 -395 -107 -481
-146 -658 -296 -61 -52 -68 -55 -95 -46 -19 7 -41 7 -65 1 -42 -12 -83 -60
-214 -254 -135 -199 -144 -223 -119 -306 10 -36 9 -41 -11 -63 -12 -13 -57
-38 -99 -56 -91 -38 -139 -72 -153 -108 -6 -15 -10 -64 -10 -110 1 -77 -1 -85
-24 -107 -14 -12 -38 -26 -52 -30 -78 -19 -112 -81 -173 -320 -47 -179 -76
-248 -148 -350 -104 -147 -155 -199 -204 -212 -82 -22 -122 -79 -294 -428
-146 -295 -187 -395 -171 -412 15 -14 41 14 93 101 28 48 58 93 66 99 8 7 25
39 38 72 35 91 194 404 230 454 29 39 34 42 64 37 30 -6 36 -1 110 80 149 163
199 260 267 517 22 83 50 172 62 197 20 41 29 48 96 75 102 41 111 56 120 193
4 65 13 117 20 126 7 9 29 18 50 22 55 10 114 48 147 96 27 40 29 49 29 143
l0 100 40 55 c168 233 239 320 261 320 6 0 14 -13 17 -28 3 -16 15 -39 26 -53
26 -32 45 -20 89 54 18 31 58 84 89 117 83 90 150 118 475 200 282 70 409 111
484 155 24 14 92 62 151 106 175 131 218 149 624 259 453 123 636 199 862 358
74 51 177 101 239 116 31 7 38 -2 58 -79 35 -134 298 -745 321 -745 5 0 -1 24
-12 53 -77 190 -285 785 -277 792 2 1 73 12 158 24 198 28 257 43 340 87 85
44 145 95 182 153 31 50 34 61 16 61 -7 0 -26 -20 -41 -45 -57 -89 -175 -163
-304 -190 -100 -21 -352 -40 -364 -28 -14 14 -44 168 -74 378 -30 205 -30 207
-40 182z"/>
<path d="M10015 6589 c11 -13 61 -67 110 -119 105 -111 262 -304 330 -405 66
-99 193 -359 261 -533 61 -157 92 -205 122 -186 26 17 26 55 -3 141 -105 315
-430 782 -720 1034 -97 85 -137 112 -100 68z"/>
<path d="M10123 6025 c-69 -31 -69 -49 -1 -23 56 21 144 28 191 15 35 -10 37
10 1 23 -47 18 -135 12 -191 -15z"/>
<path d="M9900 5905 c-92 -51 -136 -69 -220 -89 -100 -24 -276 -49 -442 -62
-124 -9 -95 -28 62 -41 152 -12 314 27 520 123 132 63 242 135 203 134 -5 0
-60 -29 -123 -65z"/>
<path d="M4558 5493 c-286 -344 -382 -468 -558 -723 -223 -323 -280 -399 -295
-394 -23 9 -18 -33 9 -81 23 -38 65 -73 191 -158 27 -19 70 -60 95 -93 37 -47
63 -68 131 -104 46 -25 122 -74 169 -109 47 -35 99 -70 117 -77 50 -22 143
-17 143 7 0 5 -28 23 -62 40 -35 17 -111 63 -170 101 -68 43 -135 77 -179 91
-63 19 -78 29 -118 76 -25 29 -90 85 -143 123 -108 77 -158 120 -158 137 0 6
54 82 120 168 198 259 554 734 595 794 l39 57 61 -89 c81 -119 171 -230 309
-379 81 -88 130 -151 167 -216 60 -106 85 -141 94 -132 4 3 -25 69 -64 145
-68 132 -77 144 -212 288 -136 145 -321 371 -327 401 -4 17 70 121 188 264
113 137 144 180 133 180 -6 0 -129 -143 -275 -317z"/>
<path d="M10172 5784 c-84 -22 -193 -69 -284 -120 -108 -62 -189 -94 -345
-140 -165 -48 -199 -62 -185 -76 14 -14 105 1 252 43 123 35 203 72 359 168
128 79 222 108 383 118 48 3 88 10 88 14 0 14 -211 9 -268 -7z"/>
<path d="M10290 5631 c-63 -26 -187 -81 -275 -121 -146 -66 -298 -122 -415
-151 -67 -17 -28 -24 54 -9 96 17 197 53 410 144 98 43 244 99 323 126 80 27
148 51 151 54 3 3 -26 6 -64 6 -60 -1 -85 -7 -184 -49z"/>
<path d="M11058 5645 c-6 -6 30 -230 62 -390 31 -157 93 -405 146 -582 75
-252 195 -566 210 -550 8 7 -13 80 -86 302 -94 287 -175 593 -265 1000 -44
198 -54 233 -67 220z"/>
<path d="M4144 5538 c-94 -146 -179 -249 -659 -793 -335 -381 -348 -396 -340
-403 9 -9 45 29 359 378 514 570 635 719 691 853 25 60 -1 42 -51 -35z"/>
<path d="M4701 5463 c7 -10 63 -79 124 -153 62 -74 153 -188 204 -252 86 -109
128 -150 100 -95 -53 100 -397 517 -428 517 -11 0 -11 -3 0 -17z"/>
<path d="M11250 5441 c0 -5 25 -67 56 -138 106 -241 164 -425 230 -723 20 -91
40 -169 46 -175 12 -12 6 33 -28 200 -56 275 -154 567 -265 786 -28 56 -39 70
-39 50z"/>
<path d="M10123 5332 c-127 -26 -153 -35 -141 -48 7 -7 316 54 338 67 30 17
-65 8 -197 -19z"/>
<path d="M10758 5227 c-75 -58 -178 -104 -258 -116 -36 -6 -150 -15 -255 -21
-291 -16 -376 -28 -467 -67 -60 -25 -44 -46 17 -23 58 22 221 40 445 50 346
14 478 47 575 145 78 78 35 102 -57 32z"/>
<path d="M3595 5187 c-89 -126 -333 -417 -642 -768 -170 -193 -204 -235 -166
-208 26 19 231 234 339 354 166 188 514 631 514 656 0 19 -16 7 -45 -34z"/>
<path d="M2962 5148 c-150 -190 -249 -402 -297 -636 -16 -81 -15 -119 4 -107
5 3 15 31 21 63 51 258 145 477 281 658 32 43 59 79 59 81 0 16 -27 -8 -68
-59z"/>
<path d="M12210 5113 c1 -15 116 -229 173 -319 67 -107 93 -141 102 -132 9 8
3 18 -138 256 -106 178 -138 222 -137 195z"/>
<path d="M4441 4923 c146 -153 248 -281 377 -475 93 -140 122 -176 122 -150 0
36 -163 297 -251 402 -117 141 -322 340 -350 340 -6 0 40 -53 102 -117z"/>
<path d="M2647 4863 c-100 -209 -143 -358 -149 -528 -3 -81 13 -101 25 -29 41
267 77 387 205 686 2 5 0 8 -5 8 -5 0 -39 -62 -76 -137z"/>
<path d="M9727 4844 c3 -8 48 -52 99 -97 77 -69 126 -100 296 -191 323 -173
453 -266 493 -356 l18 -40 -93 -162 c-136 -237 -316 -521 -412 -650 -101 -135
-172 -219 -410 -480 -320 -350 -516 -597 -736 -926 -90 -135 -122 -191 -120
-211 1 -14 -2 -32 -6 -39 -4 -7 -60 -56 -124 -109 -206 -170 -263 -231 -480
-519 -181 -240 -286 -357 -542 -605 -128 -123 -236 -232 -241 -241 -42 -79
148 70 385 302 199 195 292 304 429 500 223 322 266 373 414 491 132 106 207
185 224 236 33 102 338 512 589 793 57 63 211 228 343 365 347 361 428 463
576 727 81 146 221 424 246 490 24 64 13 87 -78 175 -96 93 -160 134 -396 257
-233 121 -312 171 -400 249 -65 58 -85 69 -74 41z"/>
<path d="M11076 4703 c12 -51 163 -601 255 -930 120 -430 148 -567 155 -758 3
-82 8 -161 10 -175 11 -50 23 6 30 132 8 146 -2 233 -52 433 -80 320 -375
1317 -392 1323 -9 3 -11 -4 -6 -25z"/>
<path d="M4386 4701 c-15 -24 69 -152 180 -276 64 -71 139 -163 167 -202 52
-74 74 -92 62 -50 -19 64 -58 118 -186 258 -80 87 -155 180 -176 216 -36 66
-38 68 -47 54z"/>
<path d="M12590 4523 c96 -171 378 -560 470 -648 63 -59 39 -21 -128 210 -80
110 -192 266 -250 348 -105 150 -150 193 -92 90z"/>
<path d="M4444 4353 c19 -27 75 -105 123 -175 88 -127 130 -171 77 -80 -64
112 -206 302 -225 302 -6 0 5 -21 25 -47z"/>
<path d="M3570 4229 c-205 -309 -345 -493 -570 -749 -114 -129 -128 -150 -106
-150 26 0 295 307 451 516 145 193 331 490 323 515 -2 6 -46 -53 -98 -132z"/>
<path d="M3348 4293 c-34 -36 -215 -263 -533 -668 -82 -104 -199 -241 -259
-302 -117 -121 -131 -151 -24 -53 92 84 201 212 464 545 358 452 459 589 352
478z"/>
<path d="M12570 4264 c0 -23 141 -225 275 -394 97 -122 125 -151 125 -130 0
15 -7 25 -213 303 -148 200 -187 245 -187 221z"/>
<path d="M7826 4143 c-9 -31 -112 -581 -181 -972 -63 -356 -85 -513 -72 -500
12 10 150 743 237 1254 16 99 32 192 35 208 5 30 -10 38 -19 10z"/>
<path d="M10102 4148 c-5 -7 -42 -71 -82 -143 -146 -264 -350 -548 -636 -886
-112 -133 -198 -248 -190 -256 8 -8 4 -12 148 157 238 280 417 514 551 720
105 162 270 483 209 408z"/>
<path d="M9805 4027 c-32 -50 -134 -214 -225 -362 -223 -362 -294 -466 -401
-588 -91 -103 -216 -263 -238 -304 -23 -44 4 -22 51 40 25 34 91 113 147 175
134 150 195 227 278 352 132 199 463 750 463 772 0 23 -20 -1 -75 -85z"/>
<path d="M10196 3913 c-60 -98 -160 -256 -223 -351 -63 -96 -111 -177 -108
-180 23 -23 391 542 445 682 23 61 -12 15 -114 -151z"/>
<path d="M11043 4044 c3 -11 25 -82 47 -159 133 -448 225 -911 296 -1490 31
-260 50 -306 40 -100 -17 368 -73 716 -192 1195 -63 253 -162 562 -183 568 -9
3 -11 -2 -8 -14z"/>
<path d="M12481 4013 c13 -16 58 -64 100 -108 68 -73 100 -114 232 -293 47
-65 60 -61 22 5 -78 133 -328 423 -366 423 -7 0 -2 -12 12 -27z"/>
<path d="M8009 3994 c-15 -40 -45 -184 -58 -279 -6 -44 -14 -95 -17 -112 -3
-18 -1 -33 4 -33 4 0 16 51 26 113 10 61 28 161 41 222 24 109 25 143 4 89z"/>
<path d="M3679 3943 c-14 -16 -54 -64 -89 -108 -35 -44 -102 -122 -148 -173
-85 -95 -100 -126 -39 -79 56 42 256 288 292 358 19 36 16 37 -16 2z"/>
<path d="M9161 3956 c-13 -15 -80 -123 -169 -269 -19 -32 -32 -60 -30 -63 11
-11 222 318 216 337 -2 7 -9 5 -17 -5z"/>
<path d="M7881 3873 c-54 -203 -128 -612 -138 -763 -9 -144 12 -102 37 75 41
289 76 483 135 743 3 12 1 22 -4 22 -5 0 -18 -35 -30 -77z"/>
<path d="M9353 3888 c-43 -46 -603 -796 -609 -816 -11 -34 102 98 287 338 194
251 369 489 369 503 0 15 -17 6 -47 -25z"/>
<path d="M2278 3828 c4 -35 7 -133 6 -218 -1 -308 -54 -474 -278 -885 -157
-286 -234 -605 -296 -1225 -36 -364 -80 -903 -80 -984 0 -150 7 -116 100 489
83 542 103 693 130 980 26 274 45 397 77 500 14 44 82 193 151 330 209 418
227 481 225 800 -1 202 -8 265 -31 273 -9 3 -10 -12 -4 -60z"/>
<path d="M4585 3735 c-22 -13 -93 -45 -157 -71 -126 -50 -163 -70 -321 -181
-102 -71 -405 -237 -524 -287 -39 -16 -81 -26 -112 -26 -27 0 -52 -4 -56 -9
-6 -11 56 -31 98 -31 47 0 174 47 322 119 152 75 252 137 360 225 43 35 118
80 195 118 184 88 188 91 226 121 59 49 38 65 -31 22z"/>
<path d="M1360 3378 c-28 -90 -80 -246 -116 -348 -81 -230 -78 -220 -67 -220
6 0 24 30 41 68 88 193 154 395 207 640 3 12 1 22 -4 22 -5 0 -33 -73 -61
-162z"/>
<path d="M10974 3439 c-19 -31 24 -262 111 -604 29 -115 63 -266 75 -335 30
-176 42 -191 35 -45 -5 130 -10 151 -109 540 -37 143 -72 304 -79 358 -11 93
-18 110 -33 86z"/>
<path d="M1525 3374 c-92 -138 -245 -524 -208 -524 6 0 29 51 53 113 23 61 80
190 126 286 46 96 84 176 84 178 0 1 -4 3 -9 3 -5 0 -26 -25 -46 -56z"/>
<path d="M4661 3218 c-65 -352 -66 -370 -66 -838 0 -465 2 -491 56 -768 30
-155 45 -209 55 -200 3 3 -9 102 -25 219 -46 326 -53 462 -49 879 4 340 7 392
31 560 15 102 29 202 32 223 3 20 1 37 -4 37 -5 0 -18 -51 -30 -112z"/>
<path d="M1670 3245 c-29 -70 -181 -537 -177 -548 8 -25 201 533 194 562 -3
11 -7 7 -17 -14z"/>
<path d="M3384 3118 c3 -18 13 -76 21 -128 34 -205 81 -450 205 -1075 71 -357
156 -787 189 -955 77 -391 90 -445 108 -467 28 -35 23 -4 -208 1212 -184 972
-259 1341 -288 1418 -15 38 -33 35 -27 -5z"/>
<path d="M4387 2770 c-7 -52 9 -722 23 -990 27 -510 74 -1027 95 -1048 15 -16
14 31 -9 289 -43 481 -58 759 -77 1379 -11 369 -19 463 -32 370z"/>
<path d="M8101 2627 c-188 -285 -390 -668 -502 -950 -81 -204 -206 -603 -193
-616 10 -11 25 23 79 179 83 239 170 469 222 590 67 154 230 478 319 631 122
211 126 219 117 219 -4 0 -23 -24 -42 -53z"/>
<path d="M8604 2248 c-103 -123 -508 -777 -491 -794 5 -6 7 -3 162 251 71 116
176 282 235 370 107 161 135 205 126 205 -2 0 -17 -15 -32 -32z"/>
<path d="M9424 2178 c3 -18 20 -152 36 -298 17 -146 45 -373 61 -505 23 -182
32 -301 36 -492 3 -139 10 -253 14 -253 4 0 13 26 20 58 19 85 15 312 -10 517
-48 402 -123 938 -137 988 -9 30 -25 18 -20 -15z"/>
<path d="M9665 2113 c6 -43 21 -353 31 -633 10 -269 22 -304 23 -65 1 202 -14
574 -27 674 -4 30 -13 56 -20 59 -9 3 -11 -6 -7 -35z"/>
<path d="M8123 2093 c-101 -145 -409 -737 -578 -1108 -89 -194 -107 -242 -96
-250 5 -2 44 71 87 163 114 242 340 696 424 852 131 242 192 362 187 366 -3 3
-14 -7 -24 -23z"/>
<path d="M4201 1705 c-1 -239 18 -846 30 -960 5 -55 16 -127 24 -160 25 -101
131 -292 151 -272 5 4 -11 45 -34 91 -99 200 -111 290 -143 1125 -12 331 -27
424 -28 176z"/>
<path d="M7397 1525 c-58 -179 -215 -718 -252 -866 -75 -295 -129 -629 -106
-652 14 -14 16 -5 36 113 46 272 127 616 271 1143 95 346 119 472 51 262z"/>
<path d="M8009 1424 c-182 -266 -290 -428 -324 -489 -25 -43 -26 -47 -7 -31
47 41 477 687 470 707 -2 6 -65 -78 -139 -187z"/>
<path d="M4066 1102 c-15 -25 39 -478 80 -676 32 -152 62 -256 74 -256 15 0
14 4 -39 291 -27 145 -59 342 -71 438 -23 184 -32 223 -44 203z"/>
</g>
</svg>
