<svg width="123" height="60" viewBox="0 0 123 60" fill="none" xmlns="http://www.w3.org/2000/svg">
<path fill-rule="evenodd" clip-rule="evenodd" d="M19.9813 0.0376049C19.2269 0.119226 18.5043 0.327716 17.8631 0.648665C17.3795 0.890717 17.3602 0.893529 17.4072 0.715263C17.4627 0.505016 17.4316 0.516701 16.8495 0.924016L16.4921 1.17406L16.1226 0.997115C15.5157 0.706301 14.7795 0.556589 13.9567 0.556589C13.3033 0.556589 13.1887 0.535766 13.2316 0.4248C13.2936 0.264721 13.164 0.251981 13.0093 0.402835C12.9186 0.491397 12.9084 0.46583 12.9569 0.271047C13.0393 -0.0600067 12.8963 -0.0352305 12.565 0.338874C12.3434 0.589097 12.2484 0.637683 12.0684 0.592875C11.8999 0.550966 11.8459 0.571789 11.8459 0.678889C11.8459 0.788801 11.7524 0.820254 11.425 0.820694C10.2473 0.822099 8.50591 1.24075 7.4229 1.78284C5.84997 2.57015 4.2431 4.29904 3.82645 5.65242C3.78924 5.77323 3.62008 6.02538 3.45048 6.21279C3.06218 6.64171 2.84252 7.13083 2.73167 7.81305C2.60407 8.59887 2.43943 8.92342 2.06779 9.12189C1.73081 9.30183 1.67994 9.38055 1.8382 9.47754C1.89757 9.51392 1.87312 9.57981 1.77174 9.65678C1.65354 9.74639 1.63945 9.797 1.71813 9.84875C1.79859 9.90173 1.77236 10.0627 1.61207 10.5006C1.48952 10.8354 1.35625 11.4863 1.29785 12.0353C1.21881 12.779 1.13818 13.1074 0.931181 13.5285C0.654006 14.0924 0.461809 15.2315 0.664906 15.1071C0.737123 15.0628 0.750061 15.2347 0.712047 15.7306C0.673501 16.2327 0.697692 16.5421 0.802784 16.8914C0.881648 17.1533 0.923561 17.3905 0.896003 17.4185C0.868445 17.4465 0.679172 17.5134 0.475367 17.5671L0.104973 17.6647L0.370806 17.7751L0.636639 17.8853L0.282195 17.994C-0.0668432 18.101 -0.0688813 18.1041 0.149279 18.1928C0.271119 18.2424 0.447277 18.2975 0.540762 18.3155C0.696185 18.3453 0.712401 18.442 0.730477 19.4463C0.761314 21.1566 1.05967 22.2578 1.49218 22.2578C2.05007 22.2578 2.56189 22.8928 3.23524 24.4205C3.46359 24.9386 3.70001 25.3789 3.7607 25.3989C3.8899 25.4416 3.90603 24.8053 3.79065 24.214C3.72118 23.8582 3.72659 23.8441 3.91604 23.8913L4.11408 23.9406L3.89637 23.209C3.57063 22.1144 3.51694 20.5374 3.77125 19.5342C3.87537 19.1234 4.05906 18.5501 4.17948 18.2602C4.48563 17.5229 4.46197 17.4215 4.07031 17.7927C3.77214 18.0753 3.42974 18.3041 3.30498 18.3041C3.27972 18.3041 3.45083 18.114 3.68521 17.8816C4.14377 17.427 4.49609 16.6729 4.48492 16.1702L4.47872 15.888L4.30779 16.2697C4.07403 16.7919 3.82778 17.1184 3.4908 17.3531L3.20635 17.5511L3.48858 17.2282C4.26517 16.3397 4.56742 15.3468 4.5053 13.8892C4.49493 13.6468 4.45249 13.5597 4.34456 13.5597C4.20943 13.5597 4.20978 13.5467 4.34837 13.3949C4.48785 13.2421 4.48811 13.2259 4.35218 13.1742C4.22662 13.1264 4.2229 13.0974 4.32613 12.9734C4.42343 12.8564 4.42467 12.8208 4.33242 12.7901C4.24346 12.7604 4.24142 12.7239 4.32303 12.6264C4.39658 12.5386 4.41315 12.2321 4.37832 11.605L4.32852 10.7092L4.81021 9.97641C5.96924 8.21343 6.932 7.60957 8.14969 7.88176C9.39077 8.15931 10.1629 8.1355 10.9231 7.79645L11.2699 7.64182L10.4724 7.57829C9.34629 7.48868 8.73638 7.23986 8.10273 6.61158C7.48936 6.00342 7.4175 5.78456 8.0135 6.33974C8.24504 6.55535 8.73346 6.87437 9.09898 7.04868C9.71926 7.3445 9.81974 7.36559 10.6054 7.36497C11.0684 7.36462 11.5228 7.32034 11.6152 7.26648C11.7628 7.18047 11.7252 7.1498 11.305 7.01266C10.5296 6.75971 9.87362 6.24406 9.46282 5.56456C9.16854 5.07791 9.24536 5.0671 9.60849 5.54418C9.98323 6.03636 10.3369 6.3495 10.7626 6.56598C11.1038 6.73941 11.9855 6.91583 12.1149 6.83659C12.1644 6.80627 12.0022 6.60086 11.7546 6.38016C11.0773 5.77639 10.8449 5.25837 10.8171 4.2906L10.7943 3.49987L10.8723 4.17577C11.0202 5.45483 11.5621 6.21279 12.6304 6.63512C13.0656 6.80707 13.2952 6.83325 14.3933 6.83571C15.0877 6.83729 15.6559 6.84748 15.656 6.85838C15.6561 6.86927 15.5067 6.95651 15.3239 7.05219C14.4834 7.4921 16.1622 7.04815 17.2955 6.53075C18.0358 6.19275 19.213 5.916 19.9103 5.916C20.6974 5.916 21.2971 6.10656 21.9897 6.5767L22.5655 6.96758L22.7194 6.73476C22.8041 6.60666 22.9449 6.2416 23.0323 5.92338C23.1878 5.35792 23.1903 5.35475 23.1417 5.78421C23.1125 6.04155 22.9308 6.55104 22.7029 7.01424C22.0883 8.26342 21.996 9.12699 22.3839 10.0014C22.7028 10.7204 23.2849 11.2144 24.1185 11.4738C24.619 11.6296 25.0489 11.7106 25.0489 11.6492C25.0489 11.6266 24.8496 11.4225 24.6059 11.1956C24.2075 10.8248 24.1628 10.7452 24.1628 10.4056C24.1628 9.86966 24.3479 9.54625 25.0251 8.89917C25.3515 8.58727 25.5403 8.42613 25.4445 8.54097C25.2727 8.74717 25.2726 8.75104 25.4418 8.84847C26.4151 9.40866 27.1756 10.8864 27.1756 12.2173C27.1756 12.4719 27.2303 12.6833 27.3223 12.784C27.4592 12.9341 27.4583 12.9447 27.3085 12.9447C27.1537 12.9447 27.1537 12.9509 27.3085 13.1204C27.4528 13.2785 27.4541 13.2962 27.3223 13.2962C27.1605 13.2962 27.125 13.4305 27.2642 13.5158C27.4027 13.6007 27.3686 13.7109 27.1895 13.7573C27.0585 13.7913 27.0149 13.9194 26.9686 14.4045C26.896 15.1673 26.9058 16.1967 26.991 16.7666C27.0524 17.1771 27.063 17.1915 27.1516 16.9863C27.2416 16.7779 27.2499 16.7757 27.3133 16.9423C27.5265 17.5026 27.9047 18.2576 28.147 18.6069C28.3242 18.8621 28.456 19.1923 28.509 19.5129C28.6084 20.115 28.6115 22.5681 28.5135 23.1584C28.4357 23.627 28.5185 23.6947 28.7282 23.3341C28.8627 23.1028 28.8667 23.124 28.8219 23.8239C28.7657 24.7024 28.85 24.7262 29.278 23.953C29.9486 22.7411 30.2965 20.4773 30.3114 17.2283C30.3205 15.2204 30.3332 15.0542 30.4764 15.0538C30.6547 15.0533 30.6809 14.8739 30.5251 14.7195C30.4424 14.6375 30.4571 14.6138 30.5916 14.6127C30.9634 14.6098 31.0077 14.4801 30.7357 14.1914C30.4094 13.8449 30.2926 13.3862 30.2293 12.2016C30.2018 11.6854 30.1426 11.1673 30.0976 11.0503C30.0528 10.9334 30.0366 10.7848 30.0616 10.7202C30.0866 10.6556 30.0642 10.4913 30.0119 10.355C29.9249 10.128 29.9295 10.1174 30.066 10.2298C30.2035 10.343 30.21 10.3185 30.1489 9.91333C30.0631 9.34259 29.8804 8.91709 29.5938 8.62048C29.4348 8.45592 29.3013 8.1391 29.1643 7.60175C28.9364 6.70805 28.7186 6.24046 28.2235 5.58319C27.9057 5.16102 27.2519 4.59811 27.0795 4.59811C27.0414 4.59811 26.9935 4.70679 26.9732 4.83972C26.9454 5.02168 26.9329 4.99462 26.9225 4.7299C26.8607 3.15081 25.6093 1.4748 24.176 1.0515C23.9495 0.984551 23.5045 0.788098 23.1874 0.615015C22.2587 0.108156 21.1591 -0.0899667 19.9813 0.0376049ZM11.8016 16.8984C11.7715 16.9467 11.5424 16.9863 11.2925 16.9863C10.2897 16.9863 8.62961 17.6144 7.85019 18.2889C6.86412 19.1421 6.57826 19.4555 6.71038 19.5384C7.01822 19.7315 7.50797 19.6206 8.45717 19.1428C9.97702 18.3779 11.153 18.1668 12.4473 18.4269C12.8454 18.5068 13.3543 18.6501 13.5782 18.7453L13.9853 18.9183L14.277 18.6116C14.4375 18.4428 14.7537 18.2237 14.9796 18.1246C15.2055 18.0255 15.3904 17.911 15.3904 17.8699C15.3904 17.741 13.9347 17.0839 13.3426 16.9455C12.6938 16.7938 11.8822 16.7691 11.8016 16.8984ZM20.993 17.1131C20.6386 17.227 20.2519 17.3829 20.1337 17.4596C20.0155 17.5364 19.8569 17.5757 19.7812 17.547C19.7053 17.5181 19.6437 17.5406 19.6437 17.597C19.6437 17.6534 19.604 17.6752 19.5554 17.6455C19.5069 17.6157 19.4176 17.6991 19.3571 17.8309C19.2682 18.0244 19.2691 18.0778 19.3619 18.1085C19.425 18.1294 19.6542 18.2808 19.8711 18.445C20.088 18.6091 20.2998 18.7434 20.3419 18.7434C20.3839 18.7434 20.8721 18.6051 21.4266 18.4362C22.6435 18.0654 23.0767 18.0529 24.2736 18.3536C24.7664 18.4775 25.3119 18.5708 25.4859 18.561C25.6598 18.5512 25.9147 18.5735 26.0523 18.6105C26.2027 18.651 26.3399 18.6407 26.3964 18.5848C26.5062 18.4758 25.384 17.7116 24.6147 17.3715C23.4244 16.8452 22.1177 16.752 20.993 17.1131ZM15.8334 18.0242C14.7284 18.3106 14.1498 18.8213 14.1498 19.5102C14.1498 19.6702 14.0668 19.8444 13.9297 19.9721L13.7096 20.1771L13.334 20.0094C13.0342 19.8756 12.7518 19.8417 11.9369 19.8417C10.9758 19.8417 10.8809 19.8579 10.3286 20.1174C9.62861 20.4462 9.08746 20.91 8.76288 21.4592C8.52514 21.8614 8.47658 22.3466 8.57059 23.3809C8.60639 23.774 8.49899 23.856 8.10556 23.7362C7.55263 23.568 7.03062 23.8929 6.95229 24.4543C6.92411 24.6557 6.86129 24.7859 6.5492 25.2889C6.27522 25.7307 6.22214 25.948 6.22737 26.6068C6.23215 27.2168 6.28284 27.4375 6.61052 28.2762C8.05904 31.9833 8.59726 34.4479 8.82942 38.4365C8.96819 40.8201 9.36499 42.3421 10.3199 44.1537C10.8156 45.094 10.955 45.2496 11.1865 45.1211C11.2837 45.0673 11.2354 44.9305 10.956 44.4679C10.1427 43.1215 9.50943 41.1053 9.3618 39.3926C9.31377 38.8357 9.21435 37.6613 9.1408 36.7828C8.88055 33.6745 8.47126 32.0215 6.89328 27.7051C6.60547 26.9178 6.55443 26.4182 6.71517 25.961C6.7982 25.7248 6.85597 25.6843 7.10949 25.6843C7.27289 25.6843 7.43841 25.6349 7.4774 25.5745C7.51639 25.5141 7.70575 25.4595 7.8983 25.4531C8.17034 25.4441 8.30352 25.3802 8.49642 25.1661C8.63289 25.0147 8.74454 24.7935 8.74454 24.6745C8.74454 24.5453 8.8273 24.4046 8.95038 24.3246C9.14275 24.1996 9.19849 24.2124 9.8037 24.5203C10.4423 24.8452 10.4653 24.8496 11.4808 24.8496C12.4531 24.8496 12.5436 24.8341 13.1024 24.5716C14.6172 23.8601 15.315 22.4985 14.7725 21.3133L14.6015 20.94L14.8852 20.7971C15.4029 20.5365 15.4145 20.5071 15.1256 20.1809C14.6598 19.6549 14.6505 19.1661 15.1007 18.8662C16.0749 18.2169 18.662 18.2722 19.4086 18.9583C19.7396 19.2624 19.7033 19.5027 19.2377 20.0908C19.0144 20.3728 18.8449 20.6128 18.8612 20.6243C18.8773 20.6358 19.05 20.7042 19.2449 20.7763C19.5247 20.8797 19.5901 20.9433 19.5551 21.0774C19.5307 21.1709 19.5109 21.5242 19.5111 21.8624C19.5116 22.5954 19.6882 23.0082 20.2322 23.5484C20.9135 24.2247 21.794 24.5538 22.916 24.5514C24.09 24.5488 25.136 24.0139 25.6446 23.1562C25.8583 22.7958 25.8907 22.6484 25.8907 22.0382C25.8907 21.4331 25.8575 21.2792 25.6519 20.9325C24.7467 19.4058 22.5401 18.8439 20.8461 19.7087C20.234 20.0213 20.1286 19.9761 20.1634 19.4159C20.2045 18.7526 19.6259 18.2672 18.4723 17.9976C17.7397 17.8263 16.5509 17.8383 15.8334 18.0242ZM23.2059 19.8964C24.1403 20.0928 24.8468 20.5699 25.1775 21.2279C25.5877 22.044 25.4197 22.8081 24.6948 23.4233C24.1742 23.8651 23.5179 24.0461 22.6265 23.9937C21.7618 23.9429 21.2294 23.7328 20.6701 23.2216C19.4074 22.0676 19.9954 20.3571 21.8044 19.9218C22.391 19.7806 22.6339 19.7762 23.2059 19.8964ZM13.0321 20.4754C14.1416 20.8217 14.6855 21.8796 14.2467 22.8378C13.557 24.3436 10.947 24.8922 9.66192 23.8015C8.97847 23.2214 8.83899 22.5454 9.23881 21.75C9.84154 20.5506 11.4941 19.9953 13.0321 20.4754ZM8.0415 24.2816C8.29262 24.4149 8.26444 24.7862 7.994 24.9083C7.82662 24.984 7.74314 24.981 7.63956 24.8958C7.47758 24.7625 7.46207 24.4431 7.61032 24.2961C7.74049 24.1671 7.82041 24.1643 8.0415 24.2816ZM16.2427 28.2659C16.1824 28.5042 15.179 29.4623 14.9897 29.4623C14.9211 29.4623 14.8223 29.5413 14.7701 29.638C14.7179 29.7346 14.6125 29.8137 14.536 29.8137C14.4525 29.8137 14.4159 29.8633 14.4446 29.9377C14.4998 30.0801 13.6321 30.5627 12.6857 30.9159C11.9593 31.1869 11.4745 31.4284 10.9752 31.7674C10.7304 31.9337 10.4802 32.0277 10.2825 32.0277C10.0536 32.0277 9.98535 32.0598 10.0205 32.1507C10.049 32.2243 10.0117 32.2737 9.92767 32.2737C9.83108 32.2737 9.80158 32.3283 9.8333 32.4486C9.86794 32.5799 9.74965 32.7383 9.35772 33.0856L8.83607 33.5477L8.92273 33.8991C9.0817 34.5438 9.35382 36.8719 9.41045 38.0725C9.46485 39.2259 9.62994 40.4852 9.81832 41.1835C9.91216 41.5316 10.8264 42.5911 10.9613 42.5084C10.9982 42.4859 11.049 42.546 11.0744 42.6421C11.1251 42.8342 11.308 42.8817 11.3247 42.707C11.3305 42.6467 11.3626 42.7158 11.3961 42.8608C11.4296 43.0057 11.5047 43.1144 11.5629 43.1024C11.6211 43.0903 11.6687 43.1189 11.6687 43.1659C11.6687 43.319 12.5825 43.8678 13.2865 44.1376C15.4192 44.9548 18.4343 44.9283 20.4807 44.0743C21.1745 43.7848 21.9476 43.2899 21.9476 43.1352C21.9476 43.0675 22.0174 43.0176 22.1026 43.0243C22.2119 43.0329 22.2664 42.9607 22.2872 42.7796C22.3092 42.5888 22.337 42.5548 22.3955 42.6478C22.4554 42.743 22.5117 42.7501 22.6318 42.6772C22.9871 42.4616 23.9247 41.2288 24.2965 40.4886C24.6661 39.7527 25.1376 38.2231 25.1376 37.7599C25.1376 37.6488 25.2032 37.4928 25.2834 37.4132C25.4218 37.276 25.452 37.1643 25.5233 36.5261C25.54 36.3763 25.5733 36.2182 25.597 36.1747C25.6208 36.1312 25.6353 35.8517 25.6293 35.5537L25.6183 35.0117L25.9981 34.9552C26.2072 34.9242 26.3781 34.8666 26.3781 34.8274C26.3781 34.6985 24.5734 33.0317 23.8529 32.4952C23.0086 31.8665 21.7885 31.1272 21.0902 30.821C20.4315 30.5321 19.972 30.1838 20.0349 30.021C20.0617 29.9516 20.0246 29.8724 19.9523 29.8449C19.88 29.8174 19.8209 29.7424 19.8209 29.6784C19.8209 29.6143 19.7312 29.5348 19.6215 29.5017C19.3218 29.4111 19.135 29.217 18.8289 28.6773C18.6763 28.4084 18.54 28.1739 18.5262 28.1563C18.5123 28.1387 18.3268 28.2079 18.1139 28.3101C17.6083 28.5527 17.2813 28.5445 16.7723 28.2762C16.5432 28.1553 16.3422 28.0565 16.3256 28.0565C16.3092 28.0565 16.2719 28.1507 16.2427 28.2659ZM18.0754 31.2022C18.8027 32.2313 19.6648 32.9272 20.8657 33.4546C21.3413 33.6634 21.3231 33.8231 20.793 34.0936C20.229 34.3813 19.5178 34.4557 19.2895 34.2508C19.1446 34.1208 19.0921 34.1137 18.9768 34.2085C18.86 34.3047 18.816 34.2908 18.6954 34.1201C18.5601 33.9286 18.5461 33.9262 18.4362 34.0753C18.3263 34.2242 18.3104 34.2213 18.1446 34.0221L17.9693 33.8113L17.8184 34.0208L17.6674 34.2304L17.5451 33.9989C17.3976 33.7197 17.2903 33.7063 17.1587 33.9504C17.0639 34.1259 17.0528 34.127 16.8871 33.9784C16.7213 33.8296 16.7089 33.8312 16.5761 34.0192C16.462 34.1806 16.4143 34.1958 16.3045 34.1053C16.1944 34.0149 16.1439 34.0315 16.015 34.2009C15.9112 34.3374 15.8378 34.3727 15.7964 34.3062C15.7529 34.2366 15.6836 34.2329 15.568 34.2942C15.3042 34.4343 14.5811 34.3932 14.1871 34.2158C13.8631 34.0699 13.4409 33.6682 13.4409 33.5058C13.4409 33.4717 13.6103 33.3934 13.8175 33.3318C15.0124 32.977 16.3177 32.0305 17.0337 30.9996C17.2182 30.7339 17.4191 30.5166 17.4801 30.5166C17.541 30.5166 17.8089 30.8251 18.0754 31.2022ZM7.45968 34.4869C7.11853 34.7758 6.66998 35.1114 6.4628 35.2328C6.25563 35.3541 6.08621 35.4861 6.08621 35.5259C6.08621 35.6548 6.6138 35.718 7.16274 35.6548C7.69653 35.5934 7.69751 35.5937 7.59171 35.7897C7.50886 35.9433 7.50948 36.0007 7.59481 36.053C7.6548 36.0898 7.67757 36.1621 7.64541 36.2138C7.58311 36.3137 7.89786 37.6414 8.05098 37.9252C8.10104 38.018 8.23219 38.4189 8.34242 38.8161C8.67746 40.0234 8.75517 40.0241 8.69704 38.8193C8.59629 36.7308 8.29847 34.1796 8.13666 34.0183C8.10547 33.9872 7.80083 34.1981 7.45968 34.4869Z" fill="black"/>
<path d="M46.5797 13.5332V12.7813L47.25 12.6523V8.24378H46.1114L46.0426 8.99144H45.093V7.27699H50.6746V8.99144H49.7207L49.652 8.24378H48.5047V12.6523L49.1793 12.7813V13.5332H46.5797ZM52.3375 13.6234C51.8763 13.6234 51.5096 13.5003 51.2375 13.2539C50.9654 13.0047 50.8293 12.6667 50.8293 12.2399C50.8293 11.9477 50.9081 11.6913 51.0656 11.4707C51.2261 11.2501 51.4609 11.0768 51.7703 10.9508C52.0826 10.8248 52.4664 10.7617 52.9219 10.7617H53.5363V10.418C53.5363 10.1946 53.4704 10.0141 53.3387 9.87659C53.2098 9.73622 53.015 9.66604 52.7543 9.66604C52.6197 9.66604 52.4993 9.68323 52.3934 9.7176C52.2874 9.74911 52.19 9.79495 52.1012 9.8551L52.0023 10.4696H51.1L51.0828 9.26214C51.3263 9.12464 51.5898 9.01292 51.8734 8.92698C52.157 8.84105 52.4736 8.79808 52.823 8.79808C53.4303 8.79808 53.9101 8.93987 54.2625 9.22346C54.6148 9.50419 54.791 9.90666 54.791 10.4309V12.3473C54.791 12.4103 54.791 12.4733 54.791 12.5363C54.7939 12.5965 54.7996 12.6552 54.8082 12.7125L55.2937 12.7813V13.5332H53.7383C53.7068 13.453 53.6753 13.3671 53.6437 13.2754C53.6122 13.1837 53.5893 13.0921 53.575 13.0004C53.426 13.1895 53.2499 13.3413 53.0465 13.4559C52.846 13.5676 52.6096 13.6234 52.3375 13.6234ZM52.6727 12.6953C52.8474 12.6953 53.0135 12.6566 53.1711 12.5793C53.3286 12.4991 53.4504 12.3945 53.5363 12.2656V11.5309H52.9176C52.6426 11.5309 52.4335 11.5939 52.2902 11.7199C52.1499 11.846 52.0797 11.9978 52.0797 12.1754C52.0797 12.3415 52.1313 12.4704 52.2344 12.5621C52.3404 12.6509 52.4865 12.6953 52.6727 12.6953ZM55.7277 13.5332V12.7813L56.3937 12.6523V9.76916L55.7277 9.64026V8.88401H59.8011V10.5211H59.0148L58.9632 9.8551H57.6484V12.6523L58.3144 12.7813V13.5332H55.7277ZM61.971 13.6234C61.5098 13.6234 61.1432 13.5003 60.871 13.2539C60.5989 13.0047 60.4628 12.6667 60.4628 12.2399C60.4628 11.9477 60.5416 11.6913 60.6992 11.4707C60.8596 11.2501 61.0945 11.0768 61.4038 10.9508C61.7161 10.8248 62.0999 10.7617 62.5554 10.7617H63.1699V10.418C63.1699 10.1946 63.104 10.0141 62.9722 9.87659C62.8433 9.73622 62.6485 9.66604 62.3878 9.66604C62.2532 9.66604 62.1329 9.68323 62.0269 9.7176C61.9209 9.74911 61.8235 9.79495 61.7347 9.8551L61.6359 10.4696H60.7335L60.7164 9.26214C60.9598 9.12464 61.2234 9.01292 61.507 8.92698C61.7906 8.84105 62.1071 8.79808 62.4566 8.79808C63.0639 8.79808 63.5437 8.93987 63.896 9.22346C64.2484 9.50419 64.4245 9.90666 64.4245 10.4309V12.3473C64.4245 12.4103 64.4245 12.4733 64.4245 12.5363C64.4274 12.5965 64.4331 12.6552 64.4417 12.7125L64.9273 12.7813V13.5332H63.3718C63.3403 13.453 63.3088 13.3671 63.2773 13.2754C63.2458 13.1837 63.2228 13.0921 63.2085 13.0004C63.0596 13.1895 62.8834 13.3413 62.68 13.4559C62.4795 13.5676 62.2432 13.6234 61.971 13.6234ZM62.3062 12.6953C62.4809 12.6953 62.6471 12.6566 62.8046 12.5793C62.9622 12.4991 63.0839 12.3945 63.1699 12.2656V11.5309H62.5511C62.2761 11.5309 62.067 11.5939 61.9238 11.7199C61.7834 11.846 61.7132 11.9978 61.7132 12.1754C61.7132 12.3415 61.7648 12.4704 61.8679 12.5621C61.9739 12.6509 62.12 12.6953 62.3062 12.6953ZM65.4687 13.5332V12.7813L66.139 12.6523V9.76916L65.4687 9.64026V8.88401H67.9308V9.64026L67.3894 9.76916V10.766H68.919V9.76916L68.3819 9.64026V8.88401H68.919H70.1737H70.844V9.64026L70.1737 9.76916V12.6523L70.844 12.7813V13.5332H68.3819V12.7813L68.919 12.6523V11.7285H67.3894V12.6523L67.9308 12.7813V13.5332H65.4687ZM71.4284 15.3207V14.5644L72.0343 14.4355V9.76916L71.3639 9.64026V8.88401H73.1858L73.246 9.42542C73.3835 9.2249 73.5496 9.07021 73.7444 8.96136C73.9392 8.8525 74.1712 8.79808 74.4405 8.79808C74.8157 8.79808 75.1366 8.9012 75.403 9.10745C75.6694 9.31083 75.8728 9.59586 76.0131 9.96252C76.1564 10.3292 76.228 10.7574 76.228 11.2473V11.3375C76.228 11.7958 76.1564 12.1969 76.0131 12.5406C75.8728 12.8815 75.668 13.1479 75.3987 13.3398C75.1323 13.5289 74.81 13.6234 74.4319 13.6234C74.1827 13.6234 73.9621 13.579 73.7702 13.4902C73.5811 13.3986 73.4193 13.2654 73.2846 13.0906V14.4355L73.8905 14.5644V15.3207H71.4284ZM74.0581 12.6609C74.3789 12.6609 74.6109 12.5421 74.7542 12.3043C74.9002 12.0665 74.9733 11.7443 74.9733 11.3375V11.2473C74.9733 10.9522 74.9404 10.6959 74.8745 10.4781C74.8086 10.2576 74.7069 10.0857 74.5694 9.96252C74.4348 9.83648 74.2615 9.77346 74.0495 9.77346C73.8776 9.77346 73.7258 9.81213 73.594 9.88948C73.4651 9.96682 73.362 10.0771 73.2846 10.2203V12.257C73.362 12.3888 73.4651 12.4891 73.594 12.5578C73.7258 12.6266 73.8805 12.6609 74.0581 12.6609ZM79.0639 13.6234C78.6056 13.6234 78.2117 13.5232 77.8823 13.3227C77.5528 13.1221 77.3008 12.8443 77.126 12.4891C76.9513 12.131 76.8639 11.7199 76.8639 11.2559V11.1656C76.8639 10.7044 76.9513 10.2962 77.126 9.94104C77.3008 9.58297 77.5514 9.30367 77.878 9.10315C78.2074 8.89977 78.5998 8.79808 79.0553 8.79808C79.5165 8.79808 79.9104 8.89977 80.2369 9.10315C80.5635 9.30367 80.8141 9.58154 80.9889 9.93674C81.1636 10.2919 81.251 10.7016 81.251 11.1656V11.2559C81.251 11.7199 81.1636 12.131 80.9889 12.4891C80.8141 12.8443 80.5635 13.1221 80.2369 13.3227C79.9104 13.5232 79.5194 13.6234 79.0639 13.6234ZM79.0639 12.6609C79.2816 12.6609 79.4592 12.6022 79.5967 12.4848C79.7342 12.3673 79.8359 12.204 79.9018 11.9949C79.9677 11.783 80.0006 11.5366 80.0006 11.2559V11.1656C80.0006 10.8906 79.9677 10.6486 79.9018 10.4395C79.8359 10.2275 79.7328 10.0628 79.5924 9.94534C79.4549 9.82502 79.2759 9.76487 79.0553 9.76487C78.8405 9.76487 78.6629 9.82502 78.5225 9.94534C78.3821 10.0628 78.279 10.2275 78.2131 10.4395C78.1501 10.6486 78.1186 10.8906 78.1186 11.1656V11.2559C78.1186 11.5366 78.1501 11.783 78.2131 11.9949C78.279 12.2069 78.3821 12.3716 78.5225 12.4891C78.6629 12.6037 78.8433 12.6609 79.0639 12.6609ZM81.7666 13.5332V12.7813L82.4326 12.6523V9.76916L81.7666 9.64026V8.88401H85.84V10.5211H85.0537L85.0021 9.8551H83.6873V12.6523L84.3533 12.7813V13.5332H81.7666ZM88.4267 13.6234C87.9799 13.6234 87.5931 13.5232 87.2666 13.3227C86.9429 13.1221 86.6937 12.8457 86.5189 12.4934C86.3442 12.1382 86.2568 11.7328 86.2568 11.2774V11.1485C86.2568 10.6901 86.3456 10.2848 86.5232 9.93244C86.7008 9.5801 86.9515 9.30367 87.2752 9.10315C87.5989 8.89977 87.9799 8.79808 88.4181 8.79808C88.8364 8.79808 89.1959 8.86396 89.4966 8.99573C89.8003 9.12464 90.0466 9.27503 90.2357 9.4469L90.2271 10.7789H89.2818L89.1142 9.94963C89.0455 9.88088 88.9581 9.82502 88.8521 9.78206C88.7461 9.73909 88.6387 9.7176 88.5299 9.7176C88.3007 9.7176 88.1102 9.77489 87.9584 9.88948C87.8094 10.0041 87.6977 10.1673 87.6232 10.3793C87.5487 10.5913 87.5115 10.8477 87.5115 11.1485V11.2774C87.5115 11.5953 87.553 11.8574 87.6361 12.0637C87.7192 12.2671 87.8295 12.4175 87.967 12.5149C88.1073 12.6122 88.2634 12.6609 88.4353 12.6609C88.6559 12.6609 88.8321 12.6037 88.9638 12.4891C89.0985 12.3716 89.1901 12.2069 89.2388 11.9949H90.313L90.3259 12.0207C90.2772 12.3501 90.1798 12.6352 90.0337 12.8758C89.8905 13.1164 89.6871 13.3012 89.4236 13.4301C89.1629 13.559 88.8306 13.6234 88.4267 13.6234ZM91.0091 13.5332V12.7813L91.6794 12.6523V9.76916L91.0091 9.64026V8.88401H93.5013V9.64026L92.9298 9.76916V10.6543H93.3595L94.0556 9.62307C94.2303 9.3538 94.4122 9.15185 94.6013 9.01722C94.7904 8.87972 95.0195 8.81097 95.2888 8.81097C95.4492 8.81097 95.5881 8.83102 95.7056 8.87112C95.823 8.91123 95.9376 8.96565 96.0493 9.0344L95.8388 9.90237C95.7586 9.88231 95.7027 9.86942 95.6712 9.8637C95.6426 9.8551 95.6068 9.8508 95.5638 9.8508C95.4664 9.8508 95.3719 9.88375 95.2802 9.94963C95.1885 10.0155 95.1083 10.0986 95.0396 10.1988L94.438 11.0754L95.5165 12.6781L96.1482 12.7813V13.5332H94.4251L93.4111 11.793H92.9298V12.6523L93.5013 12.7813V13.5332H91.0091ZM96.6982 13.5332V12.7813L97.3685 12.6523V9.76916L96.6982 9.64026V8.88401H98.6231H99.2247V9.64026L98.6231 9.76916V11.707L98.6489 11.7113L100.161 8.88401H101.416H102.082V9.64026L101.416 9.76916V12.6523L102.082 12.7813V13.5332H99.5599V12.7813L100.161 12.6523V10.7059L100.136 10.7016L98.6231 13.5332H96.6982ZM102.791 13.5332V12.7813L103.461 12.6523V9.76916L102.791 9.64026V8.88401H104.716H105.318V9.64026L104.716 9.76916V11.707L104.742 11.7113L106.254 8.88401H107.509H108.175V9.64026L107.509 9.76916V12.6523L108.175 12.7813V13.5332H105.653V12.7813L106.254 12.6523V10.7059L106.229 10.7016L104.716 13.5332H102.791ZM105.498 8.10628C105.037 8.10628 104.67 7.99027 104.398 7.75824C104.126 7.52335 103.996 7.22257 104.007 6.8559L104.016 6.83012H104.866C104.866 6.99627 104.917 7.13376 105.017 7.24262C105.12 7.35147 105.28 7.4059 105.498 7.4059C105.713 7.4059 105.87 7.3529 105.971 7.24692C106.071 7.14093 106.121 7.00199 106.121 6.83012H106.981L106.989 6.8559C106.995 7.22257 106.863 7.52335 106.594 7.75824C106.325 7.99027 105.959 8.10628 105.498 8.10628ZM45.2649 25.5332V24.7813L45.9352 24.6523V21.7692L45.2649 21.6403V20.884H47.1899H47.7914V21.6403L47.1899 21.7692V23.707L47.2157 23.7113L48.7281 20.884H49.9828H50.6488V21.6403L49.9828 21.7692V24.6523L50.6488 24.7813V25.5332H48.1266V24.7813L48.7281 24.6523V22.7059L48.7024 22.7016L47.1899 25.5332H45.2649ZM51.3578 25.5332V24.7813L52.0281 24.6523V21.7692L51.3578 21.6403V20.884H53.8199V21.6403L53.2785 21.7692V22.766H54.8082V21.7692L54.2711 21.6403V20.884H54.8082H56.0629H56.7332V21.6403L56.0629 21.7692V24.6523L56.7332 24.7813V25.5332H54.2711V24.7813L54.8082 24.6523V23.7285H53.2785V24.6523L53.8199 24.7813V25.5332H51.3578ZM59.5347 25.6234C59.0878 25.6234 58.7011 25.5232 58.3746 25.3227C58.0509 25.1221 57.8017 24.8457 57.6269 24.4934C57.4522 24.1382 57.3648 23.7328 57.3648 23.2774V23.1485C57.3648 22.6901 57.4536 22.2848 57.6312 21.9324C57.8088 21.5801 58.0595 21.3037 58.3832 21.1032C58.7069 20.8998 59.0878 20.7981 59.5261 20.7981C59.9444 20.7981 60.3039 20.864 60.6046 20.9957C60.9083 21.1246 61.1546 21.275 61.3437 21.4469L61.3351 22.7789H60.3898L60.2222 21.9496C60.1535 21.8809 60.0661 21.825 59.9601 21.7821C59.8541 21.7391 59.7467 21.7176 59.6378 21.7176C59.4087 21.7176 59.2182 21.7749 59.0664 21.8895C58.9174 22.0041 58.8057 22.1673 58.7312 22.3793C58.6567 22.5913 58.6195 22.8477 58.6195 23.1485V23.2774C58.6195 23.5953 58.661 23.8574 58.7441 24.0637C58.8272 24.2671 58.9375 24.4175 59.075 24.5149C59.2153 24.6122 59.3714 24.6609 59.5433 24.6609C59.7639 24.6609 59.9401 24.6037 60.0718 24.4891C60.2065 24.3716 60.2981 24.2069 60.3468 23.9949H61.421L61.4339 24.0207C61.3852 24.3501 61.2878 24.6352 61.1417 24.8758C60.9985 25.1164 60.7951 25.3012 60.5316 25.4301C60.2709 25.559 59.9386 25.6234 59.5347 25.6234ZM63.0839 25.5332V24.7813L63.7499 24.6523V21.8422H62.9722L62.9249 22.4696H61.9624V20.884H66.8179V22.4696H65.8554L65.8038 21.8422H65.0089V24.6523L65.6749 24.7813V25.5332H63.0839ZM67.4366 25.5332V24.7813L68.1069 24.6523V21.7692L67.4366 21.6403V20.884H69.3616H69.9632V21.6403L69.3616 21.7692V23.707L69.3874 23.7113L70.8999 20.884H72.1546H72.8206V21.6403L72.1546 21.7692V24.6523L72.8206 24.7813V25.5332H70.2983V24.7813L70.8999 24.6523V22.7059L70.8741 22.7016L69.3616 25.5332H67.4366ZM74.5221 25.5332V24.7813L75.1881 24.6523V21.8422H74.4104L74.3631 22.4696H73.4006V20.884H78.2561V22.4696H77.2936L77.242 21.8422H76.4471V24.6523L77.1131 24.7813V25.5332H74.5221ZM80.1209 27.4109C80.0121 27.4109 79.896 27.4009 79.7729 27.3808C79.6526 27.3637 79.538 27.3393 79.4291 27.3078L79.5709 26.3883C79.6253 26.3997 79.6855 26.4083 79.7514 26.4141C79.8173 26.4198 79.8746 26.4227 79.9233 26.4227C80.1037 26.4227 80.2598 26.3754 80.3916 26.2809C80.5234 26.1863 80.6194 26.0503 80.6795 25.8727L80.7826 25.5848L79.2272 21.7219L78.6557 21.6403V20.884H81.1221V21.6403L80.5549 21.7262L81.2854 23.7758L81.3756 24.0293H81.4014L82.265 21.7176L81.7108 21.6403V20.884H84.0096V21.6403L83.4853 21.7133L81.7108 26.225C81.6248 26.4398 81.5145 26.6361 81.3799 26.8137C81.2481 26.9941 81.0791 27.1388 80.8729 27.2476C80.6695 27.3565 80.4188 27.4109 80.1209 27.4109ZM85.4447 25.5332V24.7813L86.1107 24.6523V21.8422H85.333L85.2857 22.4696H84.3232V20.884H89.1787V22.4696H88.2162L88.1646 21.8422H87.3697V24.6523L88.0357 24.7813V25.5332H85.4447ZM91.9544 25.5332V24.7813L92.6247 24.6523V21.7692L91.9544 21.6403V20.884H93.8794H94.481V21.6403L93.8794 21.7692V23.707L93.9052 23.7113L95.4177 20.884H96.6724H97.3384V21.6403L96.6724 21.7692V24.6523L97.3384 24.7813V25.5332H94.8161V24.7813L95.4177 24.6523V22.7059L95.3919 22.7016L93.8794 25.5332H91.9544ZM98.0731 25.5332V24.7813L98.7435 24.6523V21.7692L98.0731 21.6403V20.884H98.7435H100.295L101.481 24.0723H101.506L102.701 20.884H104.273H104.94V21.6403L104.273 21.7692V24.6523L104.94 24.7813V25.5332H102.546V24.7813L103.019 24.6523V22.766L102.993 22.7617L101.915 25.5332H101.072L100.02 22.8133L99.9938 22.8176V24.6523L100.471 24.7813V25.5332H98.0731ZM107.758 25.6234C107.314 25.6234 106.926 25.526 106.594 25.3313C106.262 25.1336 106.004 24.8629 105.82 24.5191C105.64 24.1754 105.55 23.783 105.55 23.3418V23.1699C105.55 22.7087 105.636 22.3005 105.807 21.9453C105.979 21.5873 106.221 21.3065 106.534 21.1032C106.849 20.8969 107.22 20.7952 107.647 20.7981C108.068 20.7981 108.421 20.8811 108.708 21.0473C108.994 21.2134 109.212 21.4526 109.361 21.7649C109.51 22.0771 109.584 22.4552 109.584 22.8992V23.5824H106.852L106.843 23.6082C106.86 23.8116 106.91 23.9935 106.993 24.1539C107.079 24.3115 107.2 24.4361 107.354 24.5277C107.509 24.6165 107.697 24.6609 107.917 24.6609C108.146 24.6609 108.36 24.6323 108.557 24.575C108.758 24.5149 108.953 24.4275 109.142 24.3129L109.481 25.0863C109.289 25.241 109.047 25.3699 108.755 25.473C108.466 25.5733 108.133 25.6234 107.758 25.6234ZM106.86 22.7531H108.411V22.6414C108.411 22.4524 108.386 22.2905 108.334 22.1559C108.285 22.0184 108.205 21.9124 108.093 21.8379C107.985 21.7634 107.843 21.7262 107.668 21.7262C107.502 21.7262 107.361 21.7706 107.247 21.8594C107.132 21.9453 107.042 22.0642 106.976 22.216C106.913 22.3679 106.87 22.5397 106.847 22.7317L106.86 22.7531ZM110.259 25.5332V24.7813L110.929 24.6523V21.7692L110.259 21.6403V20.884H112.721V21.6403L112.18 21.7692V22.766H113.709V21.7692L113.172 21.6403V20.884H113.709H114.964H115.634V21.6403L114.964 21.7692V24.6523L115.634 24.7813V25.5332H113.172V24.7813L113.709 24.6523V23.7285H112.18V24.6523L112.721 24.7813V25.5332H110.259ZM116.343 25.5332V24.7813L117.014 24.6523V21.7692L116.343 21.6403V20.884H118.268H118.87V21.6403L118.268 21.7692V23.707L118.294 23.7113L119.807 20.884H121.061H121.727V21.6403L121.061 21.7692V24.6523L121.727 24.7813V25.5332H119.205V24.7813L119.807 24.6523V22.7059L119.781 22.7016L118.268 25.5332H116.343ZM45.0758 37.5332V36.7813L45.5227 36.7168L47.5121 31.277H48.7969L50.7734 36.7168L51.2203 36.7813V37.5332H49.0891V36.7813L49.5231 36.7039L49.2481 35.8445H47.0481L46.7731 36.7039L47.2071 36.7813V37.5332H45.0758ZM47.3446 34.9207H48.9516L48.2211 32.7766L48.161 32.5875H48.1352L48.0707 32.7895L47.3446 34.9207ZM51.9508 37.5332V36.4332H53.2012V37.5332H51.9508ZM53.9187 37.5332V36.7813L54.5848 36.6523V32.1621L53.9187 32.0332V31.277H60.3125V32.0332L59.6464 32.1621V36.6523L60.3125 36.7813V37.5332H57.7257V36.7813L58.3918 36.6523V32.2438H55.8394V36.6523L56.5097 36.7813V37.5332H53.9187ZM61.0773 37.5332V36.4332H62.3277V37.5332H61.0773ZM66.6374 37.5332V36.7813L67.3034 36.6523V35.1227C67.1029 35.1685 66.9024 35.2043 66.7019 35.2301C66.5013 35.253 66.2793 35.2645 66.0359 35.2645C65.2681 35.2645 64.6738 35.0983 64.2527 34.766C63.8344 34.4337 63.6253 33.9196 63.6253 33.2235V32.1621L62.955 32.0332V31.277H65.546V32.0332L64.8757 32.1621V33.2235C64.8757 33.6302 64.9674 33.911 65.1507 34.0656C65.334 34.2203 65.6291 34.2977 66.0359 34.2977C66.2421 34.2977 66.4541 34.2862 66.6718 34.2633C66.8924 34.2375 67.1029 34.2017 67.3034 34.1559V32.1621L66.6374 32.0332V31.277H69.2284V32.0332L68.5581 32.1621V36.6523L69.2284 36.7813V37.5332H66.6374ZM71.9397 37.6234C71.4957 37.6234 71.1076 37.526 70.7753 37.3313C70.443 37.1336 70.1852 36.8629 70.0018 36.5191C69.8214 36.1754 69.7311 35.783 69.7311 35.3418V35.1699C69.7311 34.7087 69.8171 34.3005 69.989 33.9453C70.1608 33.5873 70.4029 33.3065 70.7151 33.1032C71.0302 32.8969 71.4012 32.7952 71.828 32.7981C72.2491 32.7981 72.6029 32.8811 72.8893 33.0473C73.1758 33.2134 73.3935 33.4526 73.5424 33.7649C73.6914 34.0771 73.7659 34.4552 73.7659 34.8992V35.5824H71.0331L71.0245 35.6082C71.0417 35.8116 71.0918 35.9935 71.1749 36.1539C71.2608 36.3115 71.3811 36.4361 71.5358 36.5277C71.6905 36.6165 71.8781 36.6609 72.0987 36.6609C72.3279 36.6609 72.5413 36.6323 72.7389 36.575C72.9395 36.5149 73.1342 36.4275 73.3233 36.3129L73.6628 37.0863C73.4708 37.241 73.2288 37.3699 72.9366 37.473C72.6473 37.5733 72.315 37.6234 71.9397 37.6234ZM71.0417 34.7531H72.5928V34.6414C72.5928 34.4524 72.5671 34.2905 72.5155 34.1559C72.4668 34.0184 72.3866 33.9124 72.2749 33.8379C72.166 33.7634 72.0242 33.7262 71.8495 33.7262C71.6833 33.7262 71.543 33.7706 71.4284 33.8594C71.3138 33.9453 71.2236 34.0642 71.1577 34.216C71.0947 34.3679 71.0517 34.5397 71.0288 34.7317L71.0417 34.7531ZM74.2042 37.5332V36.7813L74.8014 36.7039L76.1334 35.2043L74.8745 33.7133L74.3116 33.6403V32.884H76.6147V33.6059L76.2538 33.6617L76.9284 34.5469L77.603 33.6617L77.2034 33.6059V32.884H79.4248V33.6403L78.9049 33.7133L77.7147 35.1527L79.0424 36.7039L79.6139 36.7813V37.5332H77.2291V36.8156L77.633 36.7598L76.9155 35.8703L76.2151 36.7641L76.6104 36.8156V37.5332H74.2042ZM82.149 37.6234C81.6907 37.6234 81.2968 37.5232 80.9674 37.3227C80.638 37.1221 80.3859 36.8443 80.2112 36.4891C80.0364 36.131 79.949 35.7199 79.949 35.2559V35.1656C79.949 34.7044 80.0364 34.2962 80.2112 33.941C80.3859 33.583 80.6365 33.3037 80.9631 33.1032C81.2925 32.8998 81.685 32.7981 82.1404 32.7981C82.6016 32.7981 82.9955 32.8998 83.3221 33.1032C83.6486 33.3037 83.8993 33.5815 84.074 33.9367C84.2488 34.2919 84.3361 34.7016 84.3361 35.1656V35.2559C84.3361 35.7199 84.2488 36.131 84.074 36.4891C83.8993 36.8443 83.6486 37.1221 83.3221 37.3227C82.9955 37.5232 82.6045 37.6234 82.149 37.6234ZM82.149 36.6609C82.3667 36.6609 82.5443 36.6022 82.6818 36.4848C82.8193 36.3673 82.921 36.204 82.9869 35.9949C83.0528 35.783 83.0857 35.5366 83.0857 35.2559V35.1656C83.0857 34.8906 83.0528 34.6486 82.9869 34.4395C82.921 34.2275 82.8179 34.0628 82.6775 33.9453C82.54 33.825 82.361 33.7649 82.1404 33.7649C81.9256 33.7649 81.748 33.825 81.6076 33.9453C81.4673 34.0628 81.3641 34.2275 81.2983 34.4395C81.2352 34.6486 81.2037 34.8906 81.2037 35.1656V35.2559C81.2037 35.5366 81.2352 35.783 81.2983 35.9949C81.3641 36.2069 81.4673 36.3716 81.6076 36.4891C81.748 36.6037 81.9285 36.6609 82.149 36.6609ZM84.985 37.5332V36.7813L85.6553 36.6523V33.7692L84.985 33.6403V32.884H85.6553H87.5974C88.2162 32.884 88.6974 32.9914 89.0412 33.2063C89.3878 33.4211 89.5611 33.7377 89.5611 34.1559C89.5611 34.385 89.4923 34.5856 89.3548 34.7574C89.2173 34.9264 89.0082 35.0568 88.7275 35.1485C89.097 35.2201 89.3677 35.3518 89.5396 35.5438C89.7143 35.7328 89.8017 35.962 89.8017 36.2313C89.8017 36.6552 89.637 36.9789 89.3076 37.2023C88.981 37.4229 88.5112 37.5332 87.8982 37.5332H84.985ZM86.9056 36.5793H87.8939C88.1145 36.5793 88.2778 36.5392 88.3838 36.459C88.4926 36.3759 88.547 36.2527 88.547 36.0895C88.547 35.9319 88.4969 35.8102 88.3966 35.7242C88.2964 35.6383 88.1302 35.5953 87.8982 35.5953H86.9056V36.5793ZM86.9056 34.7789H87.6318C87.8667 34.7761 88.0371 34.736 88.1431 34.6586C88.252 34.5784 88.3064 34.4624 88.3064 34.3106C88.3064 33.9983 88.073 33.8422 87.606 33.8422H86.9056V34.7789ZM91.9287 37.6234C91.4675 37.6234 91.1008 37.5003 90.8287 37.2539C90.5565 37.0047 90.4205 36.6667 90.4205 36.2399C90.4205 35.9477 90.4992 35.6913 90.6568 35.4707C90.8172 35.2501 91.0521 35.0768 91.3615 34.9508C91.6737 34.8248 92.0576 34.7617 92.513 34.7617H93.1275V34.418C93.1275 34.1946 93.0616 34.0141 92.9298 33.8766C92.8009 33.7362 92.6061 33.666 92.3455 33.666C92.2108 33.666 92.0905 33.6832 91.9845 33.7176C91.8785 33.7491 91.7811 33.7949 91.6923 33.8551L91.5935 34.4696H90.6912L90.674 33.2621C90.9175 33.1246 91.181 33.0129 91.4646 32.927C91.7482 32.841 92.0647 32.7981 92.4142 32.7981C93.0215 32.7981 93.5013 32.9399 93.8536 33.2235C94.206 33.5042 94.3822 33.9067 94.3822 34.4309V36.3473C94.3822 36.4103 94.3822 36.4733 94.3822 36.5363C94.385 36.5965 94.3908 36.6552 94.3993 36.7125L94.8849 36.7813V37.5332H93.3294C93.2979 37.453 93.2664 37.3671 93.2349 37.2754C93.2034 37.1837 93.1805 37.0921 93.1661 37.0004C93.0172 37.1895 92.841 37.3413 92.6376 37.4559C92.4371 37.5676 92.2008 37.6234 91.9287 37.6234ZM92.2638 36.6953C92.4385 36.6953 92.6047 36.6566 92.7622 36.5793C92.9198 36.4991 93.0415 36.3945 93.1275 36.2656V35.5309H92.5087C92.2337 35.5309 92.0246 35.5939 91.8814 35.7199C91.741 35.846 91.6708 35.9978 91.6708 36.1754C91.6708 36.3415 91.7224 36.4704 91.8255 36.5621C91.9315 36.6509 92.0776 36.6953 92.2638 36.6953Z" fill="black"/>
<path d="M5.43082 50.344V51.308H1.98458V50.344H5.43082ZM2.15469 50.344V57.1609H0.98914V50.344H2.15469ZM6.46406 50.344V57.1609H5.29221V50.344H6.46406ZM9.50078 51.6545V59.7818H8.32893V50.344H9.39998L9.50078 51.6545ZM14.0937 53.6957V53.8281C14.0937 54.3237 14.0349 54.7836 13.9173 55.2078C13.7997 55.6278 13.6274 55.9932 13.4006 56.3041C13.178 56.6149 12.9029 56.8564 12.5753 57.0286C12.2477 57.2008 11.8718 57.2869 11.4476 57.2869C11.0149 57.2869 10.6327 57.2155 10.3009 57.0727C9.9691 56.9299 9.68769 56.722 9.45668 56.449C9.22567 56.1759 9.04086 55.8483 8.90226 55.4661C8.76785 55.0839 8.67545 54.6534 8.62505 54.1746V53.4689C8.67545 52.9649 8.76995 52.5134 8.90856 52.1144C9.04716 51.7154 9.22987 51.3752 9.45668 51.0937C9.68769 50.8081 9.967 50.5918 10.2946 50.4448C10.6222 50.2936 11.0002 50.218 11.4287 50.218C11.8571 50.218 12.2372 50.302 12.569 50.47C12.9008 50.6338 13.1801 50.869 13.4069 51.1756C13.6337 51.4823 13.8039 51.8498 13.9173 52.2782C14.0349 52.7024 14.0937 53.1749 14.0937 53.6957ZM12.9218 53.8281V53.6957C12.9218 53.3555 12.8861 53.0363 12.8147 52.7381C12.7433 52.4357 12.632 52.1711 12.4808 51.9443C12.3338 51.7133 12.1448 51.5327 11.9138 51.4025C11.6828 51.2681 11.4077 51.2008 11.0884 51.2008C10.7944 51.2008 10.5382 51.2513 10.3198 51.3521C10.1056 51.4529 9.9229 51.5894 9.77169 51.7616C9.62049 51.9296 9.49658 52.1228 9.39998 52.3412C9.30757 52.5554 9.23827 52.778 9.19207 53.009V54.6408C9.27607 54.9348 9.39368 55.212 9.54488 55.4724C9.69609 55.7286 9.8977 55.9365 10.1497 56.0961C10.4017 56.2516 10.7188 56.3293 11.101 56.3293C11.4161 56.3293 11.687 56.2642 11.9138 56.1339C12.1448 55.9995 12.3338 55.8168 12.4808 55.5858C12.632 55.3548 12.7433 55.0902 12.8147 54.792C12.8861 54.4896 12.9218 54.1683 12.9218 53.8281ZM16.8406 55.3149L19.9844 50.344H21.1563V57.1609H19.9844V52.19L16.8406 57.1609H15.6813V50.344H16.8406V55.3149ZM25.8562 57.2869C25.3816 57.2869 24.9511 57.2071 24.5647 57.0475C24.1825 56.8837 23.8528 56.6548 23.5755 56.3608C23.3025 56.0667 23.0925 55.7181 22.9455 55.3149C22.7985 54.9117 22.725 54.4707 22.725 53.9919V53.7273C22.725 53.1728 22.8069 52.6793 22.9707 52.2467C23.1345 51.8099 23.3571 51.4403 23.6385 51.1378C23.92 50.8354 24.2392 50.6065 24.5962 50.4511C24.9532 50.2957 25.3228 50.218 25.705 50.218C26.1923 50.218 26.6123 50.302 26.9651 50.47C27.3221 50.638 27.614 50.8732 27.8408 51.1756C28.0676 51.4739 28.2356 51.8267 28.3448 52.2341C28.454 52.6373 28.5086 53.0783 28.5086 53.5571V54.0801H23.418V53.1287H27.3431V53.0405C27.3263 52.7381 27.2633 52.4441 27.1541 52.1585C27.0491 51.8729 26.8811 51.6377 26.6501 51.4529C26.4191 51.2681 26.104 51.1756 25.705 51.1756C25.4404 51.1756 25.1968 51.2324 24.9742 51.3458C24.7516 51.455 24.5605 51.6188 24.4009 51.8372C24.2413 52.0556 24.1174 52.3223 24.0292 52.6373C23.941 52.9523 23.8969 53.3156 23.8969 53.7273V53.9919C23.8969 54.3153 23.941 54.6198 24.0292 54.9054C24.1216 55.1868 24.2539 55.4346 24.4261 55.6488C24.6025 55.863 24.8146 56.031 25.0624 56.1528C25.3144 56.2747 25.6 56.3356 25.9192 56.3356C26.3309 56.3356 26.6795 56.2516 26.9651 56.0835C27.2507 55.9155 27.5006 55.6908 27.7148 55.4094L28.4204 55.9701C28.2734 56.1927 28.0865 56.4049 27.8597 56.6065C27.6329 56.8081 27.3536 56.9719 27.0218 57.0979C26.6942 57.2239 26.3057 57.2869 25.8562 57.2869ZM33.7883 55.611L36.1068 50.344H37.2282L34.1915 57.1609H33.385L30.3609 50.344H31.4824L33.7883 55.611ZM31.1422 50.344V57.1609H29.9766V50.344H31.1422ZM36.3966 57.1609V50.344H37.5684V57.1609H36.3966ZM44.0703 53.2988V54.2439H40.4665V53.2988H44.0703ZM40.7122 50.344V57.1609H39.5467V50.344H40.7122ZM45.0153 50.344V57.1609H43.8435V50.344H45.0153ZM50.9123 55.9953V52.4861C50.9123 52.2173 50.8577 51.9842 50.7485 51.7868C50.6435 51.5852 50.4839 51.4298 50.2697 51.3206C50.0555 51.2113 49.7909 51.1567 49.4759 51.1567C49.1819 51.1567 48.9236 51.2071 48.701 51.308C48.4826 51.4088 48.3103 51.5411 48.1843 51.7049C48.0625 51.8687 48.0016 52.0451 48.0016 52.2341H46.8361C46.8361 51.9905 46.8991 51.749 47.0251 51.5096C47.1511 51.2702 47.3317 51.0538 47.5669 50.8606C47.8063 50.6632 48.0919 50.5078 48.4237 50.3944C48.7598 50.2768 49.1336 50.218 49.5452 50.218C50.0408 50.218 50.4776 50.302 50.8556 50.47C51.2379 50.638 51.5361 50.8921 51.7503 51.2324C51.9687 51.5684 52.0779 51.9905 52.0779 52.4987V55.674C52.0779 55.9008 52.0968 56.1423 52.1346 56.3986C52.1766 56.6548 52.2375 56.8753 52.3173 57.0601V57.1609H51.1014C51.0426 57.0265 50.9964 56.848 50.9628 56.6254C50.9291 56.3986 50.9123 56.1885 50.9123 55.9953ZM51.114 53.0279L51.1266 53.847H49.9484C49.6166 53.847 49.3205 53.8743 49.0601 53.9289C48.7997 53.9793 48.5813 54.057 48.4048 54.162C48.2284 54.267 48.094 54.3993 48.0016 54.5589C47.9092 54.7143 47.863 54.897 47.863 55.107C47.863 55.3212 47.9113 55.5165 48.0079 55.6929C48.1045 55.8693 48.2494 56.01 48.4426 56.115C48.6401 56.2159 48.8816 56.2663 49.1672 56.2663C49.5242 56.2663 49.8392 56.1906 50.1122 56.0394C50.3852 55.8882 50.6015 55.7034 50.7611 55.485C50.9249 55.2666 51.0132 55.0545 51.0258 54.8487L51.5235 55.4094C51.4941 55.5858 51.4143 55.7811 51.2841 55.9953C51.1539 56.2096 50.9796 56.4154 50.7611 56.6128C50.5469 56.806 50.2907 56.9677 49.9925 57.0979C49.6985 57.2239 49.3667 57.2869 48.9971 57.2869C48.5351 57.2869 48.1297 57.1966 47.7811 57.016C47.4367 56.8354 47.1679 56.5939 46.9747 56.2915C46.7857 55.9848 46.6912 55.6425 46.6912 55.2645C46.6912 54.8991 46.7626 54.5778 46.9054 54.3006C47.0482 54.0192 47.254 53.7861 47.5228 53.6012C47.7916 53.4122 48.115 53.2694 48.4931 53.1728C48.8711 53.0762 49.2932 53.0279 49.7594 53.0279H51.114ZM55.291 53.91H56.5511L54.5791 57.1609H53.319L55.291 53.91ZM56.2676 50.344H59.1153V57.1609H57.9497V51.2891H56.2676C55.9358 51.2891 55.6648 51.3458 55.4548 51.4592C55.2448 51.5684 55.0915 51.7112 54.9949 51.8876C54.8983 52.064 54.85 52.2467 54.85 52.4357C54.85 52.6205 54.8941 52.799 54.9823 52.9712C55.0705 53.1392 55.2091 53.2778 55.3981 53.387C55.5871 53.4962 55.8307 53.5508 56.129 53.5508H58.2647V54.5085H56.129C55.7383 54.5085 55.3918 54.456 55.0894 54.351C54.787 54.246 54.5308 54.1011 54.3208 53.9163C54.1108 53.7273 53.9512 53.5067 53.842 53.2547C53.7328 52.9985 53.6782 52.7213 53.6782 52.4231C53.6782 52.1249 53.7349 51.8498 53.8483 51.5978C53.9659 51.3458 54.1339 51.1252 54.3523 50.9362C54.5749 50.7472 54.8458 50.6023 55.165 50.5015C55.4884 50.3965 55.8559 50.344 56.2676 50.344ZM65.4596 50.344V57.1609H64.2941V50.344H65.4596ZM69.9328 50.344L66.7008 54.2502H65.069L64.8926 53.2295H66.2283L68.5153 50.344H69.9328ZM68.6791 57.1609L66.1716 54.0738L66.9213 53.2295L70.1596 57.1609H68.6791ZM70.7266 53.8281V53.6831C70.7266 53.1917 70.798 52.736 70.9409 52.316C71.0837 51.8918 71.2895 51.5243 71.5583 51.2134C71.8271 50.8984 72.1526 50.6548 72.5348 50.4826C72.917 50.3062 73.3454 50.218 73.8201 50.218C74.2989 50.218 74.7294 50.3062 75.1116 50.4826C75.498 50.6548 75.8256 50.8984 76.0945 51.2134C76.3675 51.5243 76.5754 51.8918 76.7182 52.316C76.861 52.736 76.9324 53.1917 76.9324 53.6831V53.8281C76.9324 54.3195 76.861 54.7752 76.7182 55.1952C76.5754 55.6152 76.3675 55.9827 76.0945 56.2978C75.8256 56.6086 75.5001 56.8522 75.1179 57.0286C74.7399 57.2008 74.3115 57.2869 73.8327 57.2869C73.3538 57.2869 72.9233 57.2008 72.5411 57.0286C72.1589 56.8522 71.8313 56.6086 71.5583 56.2978C71.2895 55.9827 71.0837 55.6152 70.9409 55.1952C70.798 54.7752 70.7266 54.3195 70.7266 53.8281ZM71.8922 53.6831V53.8281C71.8922 54.1683 71.9321 54.4896 72.0119 54.792C72.0917 55.0902 72.2114 55.3548 72.371 55.5858C72.5348 55.8168 72.7385 55.9995 72.9821 56.1339C73.2257 56.2642 73.5093 56.3293 73.8327 56.3293C74.1519 56.3293 74.4312 56.2642 74.6706 56.1339C74.9142 55.9995 75.1158 55.8168 75.2754 55.5858C75.435 55.3548 75.5547 55.0902 75.6345 54.792C75.7185 54.4896 75.7605 54.1683 75.7605 53.8281V53.6831C75.7605 53.3471 75.7185 53.03 75.6345 52.7318C75.5547 52.4294 75.4329 52.1627 75.2691 51.9317C75.1095 51.6965 74.9079 51.5117 74.6643 51.3773C74.4249 51.2429 74.1435 51.1756 73.8201 51.1756C73.5009 51.1756 73.2194 51.2429 72.9758 51.3773C72.7364 51.5117 72.5348 51.6965 72.371 51.9317C72.2114 52.1627 72.0917 52.4294 72.0119 52.7318C71.9321 53.03 71.8922 53.3471 71.8922 53.6831ZM82.3128 55.611L84.6313 50.344H85.7527L82.716 57.1609H81.9096L78.8855 50.344H80.0069L82.3128 55.611ZM79.6667 50.344V57.1609H78.5012V50.344H79.6667ZM84.9211 57.1609V50.344H86.093V57.1609H84.9211ZM89.2305 55.3149L92.3743 50.344H93.5462V57.1609H92.3743V52.19L89.2305 57.1609H88.0712V50.344H89.2305V55.3149ZM98.1453 56.3293C98.4226 56.3293 98.6788 56.2726 98.914 56.1591C99.1492 56.0457 99.3424 55.8903 99.4936 55.6929C99.6448 55.4913 99.7309 55.2624 99.7519 55.0062H100.861C100.84 55.4094 100.703 55.7853 100.451 56.1339C100.203 56.4784 99.8779 56.7577 99.4747 56.9719C99.0715 57.1819 98.6284 57.2869 98.1453 57.2869C97.6329 57.2869 97.1856 57.1966 96.8034 57.016C96.4254 56.8354 96.1104 56.5876 95.8584 56.2726C95.6105 55.9575 95.4236 55.5963 95.2976 55.1889C95.1758 54.7773 95.1149 54.3426 95.1149 53.8848V53.6201C95.1149 53.1623 95.1758 52.7297 95.2976 52.3223C95.4236 51.9107 95.6105 51.5474 95.8584 51.2324C96.1104 50.9173 96.4254 50.6695 96.8034 50.4889C97.1856 50.3083 97.6329 50.218 98.1453 50.218C98.6788 50.218 99.145 50.3272 99.544 50.5456C99.943 50.7598 100.256 51.0538 100.483 51.4277C100.714 51.7973 100.84 52.2173 100.861 52.6877H99.7519C99.7309 52.4063 99.6511 52.1522 99.5125 51.9254C99.3781 51.6986 99.1933 51.518 98.9581 51.3836C98.7271 51.245 98.4562 51.1756 98.1453 51.1756C97.7883 51.1756 97.488 51.2471 97.2444 51.3899C97.005 51.5285 96.8139 51.7175 96.6711 51.9569C96.5325 52.1921 96.4317 52.4546 96.3687 52.7444C96.3099 53.03 96.2805 53.3219 96.2805 53.6201V53.8848C96.2805 54.183 96.3099 54.477 96.3687 54.7668C96.4275 55.0566 96.5262 55.3191 96.6648 55.5543C96.8076 55.7895 96.9987 55.9785 97.2381 56.1213C97.4817 56.26 97.7841 56.3293 98.1453 56.3293ZM104.899 56.3293C105.176 56.3293 105.433 56.2726 105.668 56.1591C105.903 56.0457 106.096 55.8903 106.247 55.6929C106.399 55.4913 106.485 55.2624 106.506 55.0062H107.615C107.594 55.4094 107.457 55.7853 107.205 56.1339C106.957 56.4784 106.632 56.7577 106.229 56.9719C105.825 57.1819 105.382 57.2869 104.899 57.2869C104.387 57.2869 103.939 57.1966 103.557 57.016C103.179 56.8354 102.864 56.5876 102.612 56.2726C102.364 55.9575 102.178 55.5963 102.052 55.1889C101.93 54.7773 101.869 54.3426 101.869 53.8848V53.6201C101.869 53.1623 101.93 52.7297 102.052 52.3223C102.178 51.9107 102.364 51.5474 102.612 51.2324C102.864 50.9173 103.179 50.6695 103.557 50.4889C103.939 50.3083 104.387 50.218 104.899 50.218C105.433 50.218 105.899 50.3272 106.298 50.5456C106.697 50.7598 107.01 51.0538 107.237 51.4277C107.468 51.7973 107.594 52.2173 107.615 52.6877H106.506C106.485 52.4063 106.405 52.1522 106.266 51.9254C106.132 51.6986 105.947 51.518 105.712 51.3836C105.481 51.245 105.21 51.1756 104.899 51.1756C104.542 51.1756 104.242 51.2471 103.998 51.3899C103.759 51.5285 103.568 51.7175 103.425 51.9569C103.286 52.1921 103.186 52.4546 103.123 52.7444C103.064 53.03 103.034 53.3219 103.034 53.6201V53.8848C103.034 54.183 103.064 54.477 103.123 54.7668C103.181 55.0566 103.28 55.3191 103.419 55.5543C103.561 55.7895 103.753 55.9785 103.992 56.1213C104.236 56.26 104.538 56.3293 104.899 56.3293ZM110.185 55.3149L113.329 50.344H114.501V57.1609H113.329V52.19L110.185 57.1609H109.026V50.344H110.185V55.3149ZM117.752 53.91H119.012L117.04 57.1609H115.78L117.752 53.91ZM118.728 50.344H121.576V57.1609H120.41V51.2891H118.728C118.396 51.2891 118.126 51.3458 117.916 51.4592C117.706 51.5684 117.552 51.7112 117.456 51.8876C117.359 52.064 117.311 52.2467 117.311 52.4357C117.311 52.6205 117.355 52.799 117.443 52.9712C117.531 53.1392 117.67 53.2778 117.859 53.387C118.048 53.4962 118.291 53.5508 118.59 53.5508H120.725V54.5085H118.59C118.199 54.5085 117.853 54.456 117.55 54.351C117.248 54.246 116.992 54.1011 116.781 53.9163C116.571 53.7273 116.412 53.5067 116.303 53.2547C116.193 52.9985 116.139 52.7213 116.139 52.4231C116.139 52.1249 116.196 51.8498 116.309 51.5978C116.427 51.3458 116.595 51.1252 116.813 50.9362C117.036 50.7472 117.307 50.6023 117.626 50.5015C117.949 50.3965 118.317 50.344 118.728 50.344Z" fill="#228BE6"/>
</svg>
