<svg width="207" height="60" viewBox="0 0 207 60" fill="none" xmlns="http://www.w3.org/2000/svg">
<path fill-rule="evenodd" clip-rule="evenodd" d="M26.5413 0.0494743C25.5391 0.157918 24.5793 0.434922 23.7276 0.861342C23.0852 1.18294 23.0595 1.18667 23.122 0.949825C23.1957 0.670486 23.1544 0.686011 22.3811 1.22718L21.9063 1.5594L21.4156 1.3243C20.6094 0.937918 19.6314 0.739008 18.5385 0.739008C17.6705 0.739008 17.5183 0.711342 17.5752 0.56391C17.6575 0.351225 17.4854 0.334299 17.2799 0.534727C17.1594 0.652393 17.1459 0.618424 17.2104 0.35963C17.3198 -0.0802145 17.1298 -0.0472962 16.6897 0.449747C16.3953 0.782198 16.2692 0.846751 16.0301 0.787218C15.8062 0.731537 15.7345 0.759202 15.7345 0.901498C15.7345 1.04753 15.6104 1.08932 15.1754 1.0899C13.611 1.09177 11.2978 1.648 9.85914 2.36823C7.7697 3.41426 5.63519 5.71131 5.08172 7.50944C5.03229 7.66994 4.80758 8.00496 4.58229 8.25395C4.06649 8.82384 3.77469 9.47368 3.62744 10.3801C3.45794 11.4241 3.23924 11.8554 2.74557 12.1191C2.29793 12.3581 2.23036 12.4627 2.44059 12.5916C2.51946 12.6399 2.48697 12.7275 2.35231 12.8297C2.19529 12.9488 2.17657 13.016 2.2811 13.0848C2.38798 13.1552 2.35313 13.369 2.1402 13.9508C1.97741 14.3957 1.80038 15.2604 1.72281 15.9899C1.61781 16.978 1.5107 17.4142 1.23573 17.9737C0.867541 18.723 0.612233 20.2364 0.882019 20.0712C0.977951 20.0123 0.995137 20.2406 0.94464 20.8995C0.893437 21.5666 0.925571 21.9777 1.06517 22.4417C1.16993 22.7897 1.22561 23.1049 1.189 23.1421C1.15239 23.1794 0.90097 23.2682 0.630242 23.3395L0.138223 23.4692L0.491347 23.6158L0.844471 23.7623L0.373639 23.9067C-0.0900132 24.0489 -0.0927205 24.053 0.197077 24.1709C0.358925 24.2367 0.592928 24.31 0.71711 24.3338C0.92357 24.3734 0.945111 24.5019 0.969123 25.8363C1.01009 28.1086 1.40641 29.5717 1.98094 29.5717C2.72203 29.5717 3.40191 30.4154 4.29637 32.4452C4.59971 33.1335 4.91375 33.7185 4.99438 33.7451C5.166 33.8018 5.18742 32.9563 5.03417 32.1707C4.94189 31.698 4.94907 31.6793 5.20073 31.742L5.4638 31.8075L5.17459 30.8354C4.7419 29.3812 4.67057 27.286 5.00839 25.953C5.1467 25.4073 5.39071 24.6456 5.55067 24.2604C5.95735 23.2808 5.92592 23.1461 5.40566 23.6393C5.00957 24.0147 4.55474 24.3188 4.38901 24.3188C4.35546 24.3188 4.58276 24.0662 4.8941 23.7574C5.50323 23.1533 5.97124 22.1515 5.95641 21.4836L5.94817 21.1087L5.72111 21.6157C5.4106 22.3096 5.08349 22.7434 4.63584 23.0552L4.258 23.3183L4.6329 22.8893C5.66449 21.7088 6.066 20.3896 5.98348 18.453C5.96971 18.131 5.91333 18.0153 5.76996 18.0153C5.59046 18.0153 5.59093 17.998 5.77502 17.7963C5.9603 17.5933 5.96065 17.5717 5.78008 17.5031C5.61329 17.4396 5.60835 17.401 5.74548 17.2362C5.87472 17.0808 5.87637 17.0336 5.75384 16.9927C5.63566 16.9533 5.63295 16.9048 5.74136 16.7752C5.83906 16.6585 5.86107 16.2513 5.81481 15.4181L5.74866 14.2279L6.38852 13.2544C7.92814 10.912 9.20704 10.1098 10.8246 10.4714C12.4732 10.8401 13.4989 10.8085 14.5087 10.358L14.9694 10.1526L13.9101 10.0682C12.4141 9.94913 11.6039 9.61854 10.7622 8.7838C9.94742 7.97578 9.85196 7.685 10.6437 8.42263C10.9512 8.70909 11.6 9.13294 12.0856 9.36454C12.9095 9.75757 13.043 9.78559 14.0866 9.78477C14.7016 9.7843 15.3053 9.72547 15.428 9.65391C15.6241 9.53963 15.5742 9.49889 15.016 9.31668C13.986 8.98061 13.1146 8.29551 12.5689 7.39271C12.178 6.74613 12.28 6.73177 12.7624 7.36562C13.2602 8.01955 13.73 8.43559 14.2956 8.72321C14.7487 8.95364 15.9199 9.18804 16.0919 9.08275C16.1576 9.04247 15.9422 8.76955 15.6133 8.47633C14.7135 7.67415 14.4048 6.9859 14.3678 5.7001L14.3376 4.64951L14.4413 5.54753C14.6377 7.24691 15.3575 8.25395 16.7766 8.81508C17.3547 9.04352 17.6598 9.07831 19.1184 9.08158C20.0408 9.08368 20.7956 9.09722 20.7957 9.1117C20.7959 9.12617 20.5974 9.24208 20.3546 9.3692C19.2381 9.95368 21.4681 9.36384 22.9736 8.6764C23.957 8.22734 25.5208 7.85963 26.447 7.85963C27.4926 7.85963 28.2891 8.11282 29.2092 8.73745L29.9741 9.25679L30.1786 8.94745C30.291 8.77726 30.478 8.29224 30.5942 7.86944C30.8008 7.11815 30.8041 7.11395 30.7395 7.68454C30.7008 8.02644 30.4593 8.70337 30.1566 9.31878C29.3402 10.9785 29.2176 12.1258 29.7328 13.2876C30.1565 14.2429 30.9297 14.8992 32.0371 15.2438C32.7019 15.4508 33.273 15.5584 33.273 15.4769C33.273 15.4468 33.0082 15.1757 32.6845 14.8743C32.1553 14.3815 32.0959 14.2758 32.0959 13.8246C32.0959 13.1126 32.3418 12.6829 33.2414 11.8231C33.675 11.4087 33.9257 11.1947 33.7985 11.3472C33.5702 11.6212 33.5701 11.6263 33.7949 11.7558C35.0878 12.5001 36.098 14.4634 36.098 16.2316C36.098 16.5699 36.1706 16.8509 36.2928 16.9847C36.4747 17.184 36.4735 17.1982 36.2746 17.1982C36.0689 17.1982 36.0689 17.2063 36.2746 17.4316C36.4662 17.6416 36.468 17.6651 36.2928 17.6651C36.078 17.6651 36.0308 17.8436 36.2157 17.9569C36.3997 18.0697 36.3544 18.2161 36.1165 18.2778C35.9425 18.3229 35.8845 18.4931 35.823 19.1377C35.7266 20.1511 35.7396 21.5189 35.8528 22.276C35.9344 22.8213 35.9484 22.8405 36.0661 22.5678C36.1857 22.291 36.1968 22.288 36.2809 22.5094C36.5641 23.2538 37.0665 24.2569 37.3884 24.721C37.6237 25.0601 37.7989 25.4988 37.8693 25.9248C38.0014 26.7247 38.0055 29.984 37.8753 30.7682C37.7719 31.3908 37.8819 31.4808 38.1605 31.0017C38.3391 30.6944 38.3444 30.7226 38.2849 31.6524C38.2103 32.8196 38.3222 32.8513 38.8908 31.8239C39.7816 30.2138 40.2437 27.2061 40.2635 22.8894C40.2756 20.2216 40.2924 20.0009 40.4826 20.0003C40.7196 19.9996 40.7543 19.7613 40.5474 19.5561C40.4376 19.4472 40.4571 19.4157 40.6357 19.4143C41.1296 19.4105 41.1884 19.238 40.8272 18.8545C40.3937 18.3942 40.2385 17.7847 40.1545 16.2108C40.1179 15.5249 40.0392 14.8366 39.9796 14.6812C39.92 14.5258 39.8985 14.3284 39.9316 14.2426C39.9648 14.1568 39.9352 13.9384 39.8657 13.7574C39.7501 13.4557 39.7561 13.4417 39.9375 13.591C40.1202 13.7414 40.1288 13.7089 40.0477 13.1706C39.9336 12.4123 39.6909 11.8469 39.3103 11.4529C39.0991 11.2342 38.9217 10.8133 38.7397 10.0994C38.437 8.91197 38.1477 8.29072 37.49 7.41745C37.0678 6.85656 36.1994 6.10866 35.9704 6.10866C35.9197 6.10866 35.8561 6.25306 35.8292 6.42967C35.7922 6.67142 35.7756 6.63547 35.7618 6.28376C35.6797 4.18574 34.0174 1.95897 32.1135 1.39656C31.8125 1.30761 31.2215 1.0466 30.8002 0.816634C29.5665 0.14321 28.1059 -0.12002 26.5413 0.0494743ZM15.6757 22.4511C15.6357 22.5153 15.3314 22.5678 14.9994 22.5678C13.6673 22.5678 11.4621 23.4024 10.4267 24.2986C9.11687 25.4322 8.73714 25.8485 8.91265 25.9586C9.32156 26.2152 9.97214 26.0679 11.233 25.4331C13.252 24.4167 14.8141 24.1363 16.5334 24.4819C17.0622 24.5881 17.7382 24.7785 18.0356 24.9049L18.5764 25.1347L18.964 24.7272C19.1771 24.503 19.5971 24.212 19.8973 24.0803C20.1973 23.9486 20.4429 23.7964 20.4429 23.7419C20.4429 23.5706 18.5091 22.6975 17.7227 22.5136C16.8609 22.3122 15.7828 22.2792 15.6757 22.4511ZM27.8852 22.7364C27.4145 22.8877 26.9008 23.0949 26.7438 23.1968C26.5867 23.2988 26.376 23.351 26.2755 23.3128C26.1748 23.2744 26.0928 23.3043 26.0928 23.3793C26.0928 23.4541 26.0401 23.4831 25.9756 23.4436C25.9112 23.4041 25.7926 23.515 25.7122 23.6901C25.5941 23.9471 25.5953 24.0181 25.7185 24.0588C25.8023 24.0866 26.1068 24.2877 26.3949 24.5059C26.683 24.724 26.9645 24.9024 27.0204 24.9024C27.0762 24.9024 27.7246 24.7187 28.4612 24.4942C30.0777 24.0016 30.6532 23.9849 32.2431 24.3845C32.8978 24.5491 33.6224 24.6731 33.8534 24.6601C34.0845 24.647 34.423 24.6767 34.6058 24.7258C34.8057 24.7796 34.9879 24.766 35.0629 24.6916C35.2088 24.5469 33.7181 23.5315 32.6961 23.0797C31.1151 22.3805 29.3792 22.2566 27.8852 22.7364ZM21.0314 23.9469C19.5636 24.3274 18.7949 25.0059 18.7949 25.9212C18.7949 26.1337 18.6846 26.3652 18.5026 26.5349L18.2102 26.8073L17.7112 26.5844C17.313 26.4066 16.9379 26.3616 15.8554 26.3616C14.5786 26.3616 14.4526 26.3832 13.719 26.7279C12.7891 27.1648 12.0703 27.7809 11.6391 28.5106C11.3233 29.045 11.2588 29.6897 11.3837 31.0639C11.4312 31.5861 11.2886 31.695 10.766 31.5359C10.0315 31.3124 9.33804 31.7442 9.23399 32.49C9.19656 32.7575 9.1131 32.9307 8.69854 33.5989C8.33458 34.1859 8.26408 34.4745 8.27102 35.3499C8.27738 36.1604 8.34471 36.4535 8.77999 37.5678C10.7042 42.4932 11.4191 45.7677 11.7275 51.067C11.9118 54.2339 12.4389 56.2562 13.7075 58.6631C14.3659 59.9123 14.5511 60.1191 14.8585 59.9484C14.9877 59.8768 14.9235 59.6951 14.5524 59.0805C13.4721 57.2917 12.6308 54.6128 12.4347 52.3374C12.3709 51.5974 12.2388 50.0371 12.1411 48.8699C11.7954 44.7402 11.2517 42.544 9.1556 36.8091C8.77328 35.763 8.70548 35.0993 8.919 34.4918C9.0293 34.178 9.10604 34.1242 9.4428 34.1242C9.65986 34.1242 9.87974 34.0586 9.93153 33.9783C9.98332 33.8981 10.2349 33.8255 10.4906 33.817C10.852 33.8051 11.0289 33.7202 11.2852 33.4357C11.4664 33.2346 11.6148 32.9407 11.6148 32.7826C11.6148 32.6109 11.7247 32.4239 11.8882 32.3177C12.1437 32.1516 12.2178 32.1686 13.0217 32.5777C13.87 33.0093 13.9005 33.0153 15.2496 33.0153C16.5411 33.0153 16.6612 32.9946 17.4036 32.6458C19.4158 31.7005 20.3428 29.8915 19.6221 28.3168L19.395 27.8208L19.7718 27.631C20.4596 27.2847 20.4749 27.2457 20.0911 26.8123C19.4725 26.1134 19.4601 25.464 20.0581 25.0655C21.3521 24.2029 24.7887 24.2764 25.7806 25.1878C26.2202 25.592 26.1721 25.9112 25.5535 26.6925C25.2569 27.0672 25.0318 27.3861 25.0534 27.4014C25.0748 27.4167 25.3042 27.5075 25.5631 27.6034C25.9348 27.7408 26.0216 27.8252 25.9751 28.0034C25.9428 28.1276 25.9165 28.597 25.9167 29.0464C25.9173 30.0202 26.1519 30.5687 26.8747 31.2864C27.7796 32.185 28.9493 32.6222 30.4397 32.619C31.9992 32.6156 33.3887 31.9049 34.0643 30.7653C34.3482 30.2865 34.3912 30.0907 34.3912 29.2799C34.3912 28.4759 34.3471 28.2715 34.074 27.8109C32.8715 25.7825 29.9404 25.0359 27.6901 26.185C26.877 26.6002 26.737 26.5402 26.7832 25.7959C26.8378 24.9146 26.0692 24.2698 24.5369 23.9115C23.5636 23.6839 21.9845 23.6999 21.0314 23.9469ZM30.8248 26.4343C32.066 26.6952 33.0045 27.3292 33.4438 28.2034C33.9887 29.2876 33.7655 30.3028 32.8025 31.1203C32.111 31.7072 31.2393 31.9477 30.0551 31.8781C28.9065 31.8105 28.1992 31.5314 27.4562 30.8522C25.779 29.319 26.56 27.0463 28.963 26.468C29.7423 26.2805 30.065 26.2746 30.8248 26.4343ZM17.3102 27.2036C18.7841 27.6637 19.5066 29.0692 18.9237 30.3422C18.0075 32.3429 14.5405 33.0718 12.8334 31.6227C11.9255 30.852 11.7402 29.9538 12.2713 28.897C13.072 27.3035 15.2672 26.5657 17.3102 27.2036ZM10.6809 32.2606C11.0144 32.4377 10.977 32.931 10.6178 33.0933C10.3954 33.1938 10.2845 33.1898 10.1469 33.0766C9.93176 32.8995 9.91116 32.4752 10.1081 32.2799C10.281 32.1084 10.3872 32.1048 10.6809 32.2606ZM21.5751 37.5542C21.4949 37.8708 20.1621 39.1437 19.9106 39.1437C19.8195 39.1437 19.6882 39.2487 19.6189 39.3772C19.5496 39.5056 19.4096 39.6106 19.3079 39.6106C19.197 39.6106 19.1484 39.6766 19.1866 39.7753C19.2599 39.9645 18.1073 40.6058 16.8501 41.075C15.8851 41.4351 15.2411 41.7559 14.5779 42.2064C14.2527 42.4273 13.9204 42.5523 13.6577 42.5523C13.3537 42.5523 13.263 42.5949 13.3097 42.7157C13.3475 42.8134 13.298 42.8791 13.1864 42.8791C13.0581 42.8791 13.0189 42.9516 13.061 43.1114C13.1071 43.2859 12.9499 43.4964 12.4293 43.9577L11.7363 44.5717L11.8515 45.0386C12.0626 45.8951 12.4241 48.9882 12.4993 50.5834C12.5716 52.1158 12.7909 53.7891 13.0411 54.7168C13.1658 55.1792 14.3802 56.587 14.5595 56.477C14.6084 56.4472 14.676 56.527 14.7096 56.6547C14.777 56.91 15.02 56.973 15.0422 56.741C15.0498 56.6608 15.0926 56.7526 15.137 56.9453C15.1815 57.1379 15.2812 57.2823 15.3586 57.2663C15.4359 57.2502 15.4991 57.2882 15.4991 57.3507C15.4991 57.554 16.713 58.2832 17.6481 58.6417C20.4811 59.7274 24.4864 59.6922 27.2047 58.5575C28.1264 58.1729 29.1532 57.5154 29.1532 57.3099C29.1532 57.2199 29.246 57.1536 29.3592 57.1625C29.5044 57.1739 29.5768 57.078 29.6044 56.8374C29.6336 56.5838 29.6706 56.5388 29.7483 56.6623C29.8278 56.7888 29.9027 56.7982 30.0622 56.7014C30.5341 56.4149 31.7797 54.777 32.2736 53.7935C32.7645 52.8158 33.3907 50.7836 33.3907 50.1682C33.3907 50.0205 33.478 49.8132 33.5845 49.7075C33.7683 49.5252 33.8085 49.3768 33.9031 48.5289C33.9254 48.3299 33.9695 48.1198 34.001 48.062C34.0327 48.0042 34.0519 47.6329 34.0439 47.2369L34.0293 46.5168L34.5339 46.4417C34.8116 46.4005 35.0386 46.3241 35.0386 46.2719C35.0386 46.1007 32.6413 43.8861 31.6842 43.1734C30.5627 42.338 28.942 41.3558 28.0143 40.9489C27.1394 40.5651 26.5289 40.1023 26.6125 39.8861C26.6482 39.7939 26.5989 39.6886 26.5028 39.6521C26.4068 39.6155 26.3283 39.5159 26.3283 39.4308C26.3283 39.3458 26.2091 39.2401 26.0634 39.1961C25.6652 39.0758 25.4172 38.8178 25.0105 38.1008C24.8078 37.7435 24.6268 37.4319 24.6084 37.4086C24.5899 37.3851 24.3436 37.4771 24.0607 37.6129C23.3891 37.9353 22.9547 37.9243 22.2786 37.5678C21.9742 37.4073 21.7073 37.276 21.6853 37.276C21.6634 37.276 21.6138 37.4011 21.5751 37.5542ZM24.0096 41.4554C24.9757 42.8227 26.1208 43.7472 27.7161 44.448C28.3479 44.7254 28.3238 44.9375 27.6195 45.297C26.8703 45.6793 25.9257 45.7781 25.6224 45.5059C25.4299 45.3331 25.3601 45.3237 25.207 45.4496C25.0518 45.5775 24.9933 45.559 24.8331 45.3322C24.6534 45.0777 24.6349 45.0746 24.4888 45.2727C24.3429 45.4705 24.3218 45.4667 24.1016 45.2019L23.8686 44.9219L23.6682 45.2003L23.4676 45.4787L23.3052 45.1711C23.1092 44.8003 22.9667 44.7824 22.7918 45.1067C22.6659 45.3399 22.6512 45.3414 22.4311 45.1439C22.2108 44.9462 22.1943 44.9484 22.0179 45.1981C21.8664 45.4126 21.8031 45.4327 21.6571 45.3126C21.5109 45.1924 21.4438 45.2145 21.2726 45.4396C21.1347 45.6209 21.0373 45.6678 20.9822 45.5795C20.9245 45.487 20.8323 45.4821 20.6789 45.5636C20.3284 45.7496 19.3678 45.695 18.8445 45.4593C18.414 45.2654 17.8533 44.7317 17.8533 44.516C17.8533 44.4707 18.0783 44.3667 18.3535 44.2849C19.9408 43.8134 21.6747 42.5559 22.6259 41.1863C22.8709 40.8333 23.1378 40.5445 23.2188 40.5445C23.2997 40.5445 23.6556 40.9544 24.0096 41.4554ZM9.90799 45.8196C9.45481 46.2034 8.85897 46.6493 8.58377 46.8105C8.30857 46.9717 8.08351 47.147 8.08351 47.2C8.08351 47.3713 8.78435 47.4552 9.51355 47.3713C10.2226 47.2897 10.2239 47.29 10.0834 47.5505C9.97331 47.7545 9.97414 47.8309 10.0875 47.9003C10.1672 47.9492 10.1974 48.0453 10.1547 48.1139C10.072 48.2467 10.4901 50.0107 10.6935 50.3877C10.76 50.511 10.9342 51.0437 11.0806 51.5714C11.5256 53.1754 11.6289 53.1763 11.5517 51.5756C11.4178 48.8009 11.0222 45.4112 10.8073 45.1969C10.7658 45.1556 10.3612 45.4359 9.90799 45.8196Z" fill="currentColor"/>
<path d="M59.7317 26.7998V25.8008L60.6223 25.6295V19.7722H59.1094L59.0181 20.7655H57.7564V18.4877H65.1723V20.7655H63.9049L63.8135 19.7722H62.2893V25.6295L63.1856 25.8008V26.7998H59.7317ZM67.3816 26.9197C66.7688 26.9197 66.2817 26.756 65.9201 26.4287C65.5586 26.0976 65.3778 25.6485 65.3778 25.0814C65.3778 24.6932 65.4824 24.3526 65.6918 24.0595C65.9049 23.7665 66.217 23.5362 66.628 23.3688C67.0429 23.2013 67.5529 23.1176 68.158 23.1176H68.9744V22.6609C68.9744 22.364 68.8868 22.1242 68.7118 21.9415C68.5405 21.7551 68.2817 21.6618 67.9354 21.6618C67.7565 21.6618 67.5966 21.6846 67.4558 21.7303C67.315 21.7722 67.1856 21.8331 67.0676 21.913L66.9363 22.7294H65.7374L65.7146 21.1252C66.0381 20.9425 66.3882 20.7941 66.765 20.6799C67.1418 20.5657 67.5624 20.5086 68.0267 20.5086C68.8335 20.5086 69.471 20.697 69.9392 21.0738C70.4073 21.4468 70.6414 21.9815 70.6414 22.678V25.2242C70.6414 25.3079 70.6414 25.3916 70.6414 25.4753C70.6452 25.5553 70.6528 25.6333 70.6642 25.7094L71.3093 25.8008V26.7998H69.2427C69.2008 26.6932 69.159 26.5791 69.1171 26.4573C69.0752 26.3355 69.0448 26.2137 69.0257 26.0919C68.8278 26.3431 68.5938 26.5448 68.3236 26.697C68.0571 26.8455 67.7432 26.9197 67.3816 26.9197ZM67.8269 25.6866C68.059 25.6866 68.2798 25.6352 68.4891 25.5324C68.6984 25.4259 68.8602 25.287 68.9744 25.1157V24.1395H68.1523C67.7869 24.1395 67.5091 24.2232 67.3188 24.3907C67.1323 24.5581 67.0391 24.7598 67.0391 24.9958C67.0391 25.2165 67.1076 25.3878 67.2446 25.5096C67.3854 25.6276 67.5795 25.6866 67.8269 25.6866ZM71.8859 26.7998V25.8008L72.7708 25.6295V21.7988L71.8859 21.6276V20.6228H77.2979V22.7979H76.2532L76.1847 21.913H74.4378V25.6295L75.3226 25.8008V26.7998H71.8859ZM80.1809 26.9197C79.5682 26.9197 79.081 26.756 78.7194 26.4287C78.3579 26.0976 78.1771 25.6485 78.1771 25.0814C78.1771 24.6932 78.2818 24.3526 78.4911 24.0595C78.7042 23.7665 79.0163 23.5362 79.4273 23.3688C79.8422 23.2013 80.3522 23.1176 80.9573 23.1176H81.7737V22.6609C81.7737 22.364 81.6861 22.1242 81.5111 21.9415C81.3398 21.7551 81.081 21.6618 80.7347 21.6618C80.5558 21.6618 80.3959 21.6846 80.2551 21.7303C80.1143 21.7722 79.9849 21.8331 79.8669 21.913L79.7356 22.7294H78.5367L78.5139 21.1252C78.8374 20.9425 79.1876 20.7941 79.5643 20.6799C79.9411 20.5657 80.3617 20.5086 80.826 20.5086C81.6329 20.5086 82.2704 20.697 82.7385 21.0738C83.2066 21.4468 83.4407 21.9815 83.4407 22.678V25.2242C83.4407 25.3079 83.4407 25.3916 83.4407 25.4753C83.4445 25.5553 83.4521 25.6333 83.4635 25.7094L84.1086 25.8008V26.7998H82.042C82.0001 26.6932 81.9583 26.5791 81.9164 26.4573C81.8745 26.3355 81.8441 26.2137 81.8251 26.0919C81.6272 26.3431 81.3931 26.5448 81.1229 26.697C80.8565 26.8455 80.5425 26.9197 80.1809 26.9197ZM80.6262 25.6866C80.8584 25.6866 81.0791 25.6352 81.2884 25.5324C81.4978 25.4259 81.6595 25.287 81.7737 25.1157V24.1395H80.9516C80.5862 24.1395 80.3084 24.2232 80.1181 24.3907C79.9316 24.5581 79.8384 24.7598 79.8384 24.9958C79.8384 25.2165 79.9069 25.3878 80.0439 25.5096C80.1847 25.6276 80.3788 25.6866 80.6262 25.6866ZM84.8279 26.7998V25.8008L85.7185 25.6295V21.7988L84.8279 21.6276V20.6228H88.0991V21.6276L87.3798 21.7988V23.1233H89.4122V21.7988L88.6986 21.6276V20.6228H89.4122H91.0792H91.9698V21.6276L91.0792 21.7988V25.6295L91.9698 25.8008V26.7998H88.6986V25.8008L89.4122 25.6295V24.4021H87.3798V25.6295L88.0991 25.8008V26.7998H84.8279ZM92.7462 29.1747V28.1699L93.5511 27.9987V21.7988L92.6605 21.6276V20.6228H95.0811L95.161 21.3421C95.3437 21.0757 95.5644 20.8702 95.8232 20.7256C96.082 20.5809 96.3903 20.5086 96.7481 20.5086C97.2467 20.5086 97.6729 20.6456 98.0269 20.9197C98.3808 21.1899 98.651 21.5686 98.8375 22.0557C99.0278 22.5429 99.123 23.1119 99.123 23.7627V23.8826C99.123 24.4915 99.0278 25.0243 98.8375 25.4811C98.651 25.934 98.3789 26.2879 98.0212 26.5429C97.6672 26.7941 97.239 26.9197 96.7367 26.9197C96.4056 26.9197 96.1125 26.8607 95.8575 26.7427C95.6063 26.6209 95.3913 26.444 95.2124 26.2118V27.9987L96.0173 28.1699V29.1747H92.7462ZM96.24 25.6409C96.6663 25.6409 96.9745 25.483 97.1648 25.1671C97.3589 24.8512 97.456 24.423 97.456 23.8826V23.7627C97.456 23.3707 97.4122 23.03 97.3247 22.7408C97.2371 22.4477 97.102 22.2194 96.9194 22.0557C96.7405 21.8883 96.5102 21.8045 96.2286 21.8045C96.0002 21.8045 95.7985 21.8559 95.6234 21.9587C95.4522 22.0614 95.3152 22.208 95.2124 22.3983V25.1043C95.3152 25.2793 95.4522 25.4125 95.6234 25.5039C95.7985 25.5952 96.004 25.6409 96.24 25.6409ZM102.891 26.9197C102.282 26.9197 101.759 26.7865 101.321 26.5201C100.883 26.2537 100.548 25.8845 100.316 25.4125C100.084 24.9368 99.9679 24.3907 99.9679 23.7741V23.6542C99.9679 23.0415 100.084 22.4991 100.316 22.0272C100.548 21.5514 100.881 21.1804 101.315 20.9139C101.753 20.6437 102.274 20.5086 102.879 20.5086C103.492 20.5086 104.015 20.6437 104.449 20.9139C104.883 21.1804 105.216 21.5495 105.448 22.0215C105.681 22.4934 105.797 23.0377 105.797 23.6542V23.7741C105.797 24.3907 105.681 24.9368 105.448 25.4125C105.216 25.8845 104.883 26.2537 104.449 26.5201C104.015 26.7865 103.496 26.9197 102.891 26.9197ZM102.891 25.6409C103.18 25.6409 103.416 25.5629 103.599 25.4068C103.781 25.2508 103.917 25.0339 104.004 24.756C104.092 24.4744 104.135 24.1471 104.135 23.7741V23.6542C104.135 23.2888 104.092 22.9672 104.004 22.6894C103.917 22.4078 103.78 22.1889 103.593 22.0329C103.41 21.873 103.172 21.7931 102.879 21.7931C102.594 21.7931 102.358 21.873 102.172 22.0329C101.985 22.1889 101.848 22.4078 101.76 22.6894C101.677 22.9672 101.635 23.2888 101.635 23.6542V23.7741C101.635 24.1471 101.677 24.4744 101.76 24.756C101.848 25.0377 101.985 25.2565 102.172 25.4125C102.358 25.5648 102.598 25.6409 102.891 25.6409ZM106.482 26.7998V25.8008L107.367 25.6295V21.7988L106.482 21.6276V20.6228H111.894V22.7979H110.849L110.781 21.913H109.034V25.6295L109.918 25.8008V26.7998H106.482ZM115.331 26.9197C114.737 26.9197 114.223 26.7865 113.789 26.5201C113.359 26.2537 113.028 25.8864 112.796 25.4183C112.564 24.9463 112.448 24.4078 112.448 23.8026V23.6314C112.448 23.0224 112.566 22.4839 112.801 22.0158C113.037 21.5476 113.37 21.1804 113.801 20.9139C114.231 20.6437 114.737 20.5086 115.319 20.5086C115.875 20.5086 116.352 20.5962 116.752 20.7712C117.155 20.9425 117.483 21.1423 117.734 21.3707L117.723 23.1404H116.467L116.244 22.0386C116.153 21.9473 116.037 21.873 115.896 21.8159C115.755 21.7589 115.612 21.7303 115.468 21.7303C115.163 21.7303 114.91 21.8064 114.708 21.9587C114.51 22.1109 114.362 22.3278 114.263 22.6095C114.164 22.8911 114.115 23.2318 114.115 23.6314V23.8026C114.115 24.2251 114.17 24.5733 114.28 24.8474C114.39 25.1176 114.537 25.3174 114.72 25.4468C114.906 25.5762 115.114 25.6409 115.342 25.6409C115.635 25.6409 115.869 25.5648 116.044 25.4125C116.223 25.2565 116.345 25.0377 116.409 24.756H117.837L117.854 24.7903C117.789 25.228 117.66 25.6066 117.466 25.9263C117.275 26.246 117.005 26.4915 116.655 26.6628C116.309 26.8341 115.867 26.9197 115.331 26.9197ZM118.762 26.7998V25.8008L119.652 25.6295V21.7988L118.762 21.6276V20.6228H122.073V21.6276L121.313 21.7988V22.9749H121.884L122.809 21.6047C123.041 21.247 123.283 20.9786 123.534 20.7998C123.785 20.6171 124.09 20.5257 124.448 20.5257C124.661 20.5257 124.845 20.5524 125.001 20.6057C125.157 20.6589 125.31 20.7313 125.458 20.8226L125.178 21.9758C125.072 21.9492 124.998 21.932 124.956 21.9244C124.918 21.913 124.87 21.9073 124.813 21.9073C124.684 21.9073 124.558 21.9511 124.436 22.0386C124.314 22.1261 124.208 22.2365 124.116 22.3697L123.317 23.5343L124.75 25.6637L125.589 25.8008V26.7998H123.3L121.953 24.4877H121.313V25.6295L122.073 25.8008V26.7998H118.762ZM126.32 26.7998V25.8008L127.211 25.6295V21.7988L126.32 21.6276V20.6228H128.878H129.677V21.6276L128.878 21.7988V24.3735L128.912 24.3792L130.921 20.6228H132.588H133.473V21.6276L132.588 21.7988V25.6295L133.473 25.8008V26.7998H130.122V25.8008L130.921 25.6295V23.0434L130.887 23.0377L128.878 26.7998H126.32ZM134.415 26.7998V25.8008L135.306 25.6295V21.7988L134.415 21.6276V20.6228H136.973H137.772V21.6276L136.973 21.7988V24.3735L137.007 24.3792L139.017 20.6228H140.684H141.569V21.6276L140.684 21.7988V25.6295L141.569 25.8008V26.7998H138.217V25.8008L139.017 25.6295V23.0434L138.982 23.0377L136.973 26.7998H134.415ZM138.012 19.5895C137.399 19.5895 136.912 19.4353 136.55 19.1271C136.189 18.815 136.016 18.4154 136.031 17.9282L136.042 17.8939H137.173C137.173 18.1147 137.239 18.2974 137.373 18.442C137.51 18.5866 137.723 18.6589 138.012 18.6589C138.297 18.6589 138.507 18.5885 138.64 18.4477C138.773 18.3069 138.84 18.1223 138.84 17.8939H139.981L139.993 17.9282C140 18.4154 139.825 18.815 139.468 19.1271C139.11 19.4353 138.625 19.5895 138.012 19.5895ZM145.376 26.7998V25.8008L146.267 25.6295V21.7988L145.376 21.6276V20.6228H147.934H148.733V21.6276L147.934 21.7988V24.3735L147.968 24.3792L149.978 20.6228H151.645H152.53V21.6276L151.645 21.7988V25.6295L152.53 25.8008V26.7998H149.178V25.8008L149.978 25.6295V23.0434L149.943 23.0377L147.934 26.7998H145.376ZM153.472 26.7998V25.8008L154.362 25.6295V21.7988L153.472 21.6276V20.6228H156.743V21.6276L156.023 21.7988V23.1233H158.056V21.7988L157.342 21.6276V20.6228H158.056H159.723H160.613V21.6276L159.723 21.7988V25.6295L160.613 25.8008V26.7998H157.342V25.8008L158.056 25.6295V24.4021H156.023V25.6295L156.743 25.8008V26.7998H153.472ZM164.336 26.9197C163.742 26.9197 163.228 26.7865 162.794 26.5201C162.364 26.2537 162.033 25.8864 161.801 25.4183C161.569 24.9463 161.453 24.4078 161.453 23.8026V23.6314C161.453 23.0224 161.571 22.4839 161.807 22.0158C162.042 21.5476 162.376 21.1804 162.806 20.9139C163.236 20.6437 163.742 20.5086 164.324 20.5086C164.88 20.5086 165.357 20.5962 165.757 20.7712C166.16 20.9425 166.488 21.1423 166.739 21.3707L166.728 23.1404H165.472L165.249 22.0386C165.158 21.9473 165.042 21.873 164.901 21.8159C164.76 21.7589 164.617 21.7303 164.473 21.7303C164.168 21.7303 163.915 21.8064 163.713 21.9587C163.515 22.1109 163.367 22.3278 163.268 22.6095C163.169 22.8911 163.12 23.2318 163.12 23.6314V23.8026C163.12 24.2251 163.175 24.5733 163.285 24.8474C163.395 25.1176 163.542 25.3174 163.725 25.4468C163.911 25.5762 164.119 25.6409 164.347 25.6409C164.64 25.6409 164.874 25.5648 165.049 25.4125C165.228 25.2565 165.35 25.0377 165.415 24.756H166.842L166.859 24.7903C166.794 25.228 166.665 25.6066 166.471 25.9263C166.28 26.246 166.01 26.4915 165.66 26.6628C165.314 26.8341 164.872 26.9197 164.336 26.9197ZM169.051 26.7998V25.8008L169.936 25.6295V21.8959H168.903L168.84 22.7294H167.561V20.6228H174.012V22.7294H172.733L172.665 21.8959H171.609V25.6295L172.494 25.8008V26.7998H169.051ZM174.834 26.7998V25.8008L175.725 25.6295V21.7988L174.834 21.6276V20.6228H177.392H178.191V21.6276L177.392 21.7988V24.3735L177.426 24.3792L179.436 20.6228H181.103H181.987V21.6276L181.103 21.7988V25.6295L181.987 25.8008V26.7998H178.636V25.8008L179.436 25.6295V23.0434L179.401 23.0377L177.392 26.7998H174.834ZM184.248 26.7998V25.8008L185.133 25.6295V21.8959H184.1L184.037 22.7294H182.758V20.6228H189.209V22.7294H187.93L187.862 21.8959H186.806V25.6295L187.691 25.8008V26.7998H184.248ZM191.687 29.2946C191.542 29.2946 191.388 29.2813 191.224 29.2546C191.065 29.2318 190.912 29.1994 190.768 29.1576L190.956 27.9359C191.028 27.9511 191.108 27.9625 191.196 27.9701C191.283 27.9777 191.36 27.9815 191.424 27.9815C191.664 27.9815 191.871 27.9187 192.046 27.7932C192.222 27.6676 192.349 27.4868 192.429 27.2508L192.566 26.8683L190.499 21.736L189.74 21.6276V20.6228H193.017V21.6276L192.263 21.7417L193.234 24.4649L193.354 24.8017H193.388L194.536 21.7303L193.799 21.6276V20.6228H196.853V21.6276L196.157 21.7246L193.799 27.7189C193.685 28.0044 193.538 28.2651 193.36 28.5011C193.184 28.7408 192.96 28.933 192.686 29.0776C192.416 29.2223 192.083 29.2946 191.687 29.2946ZM198.76 26.7998V25.8008L199.645 25.6295V21.8959H198.612L198.549 22.7294H197.27V20.6228H203.721V22.7294H202.442L202.374 21.8959H201.318V25.6295L202.203 25.8008V26.7998H198.76ZM57.9848 41.7998V40.8008L58.8754 40.6295V36.7988L57.9848 36.6276V35.6228H60.5423H61.3416V36.6276L60.5423 36.7988V39.3735L60.5766 39.3792L62.5861 35.6228H64.2531H65.138V36.6276L64.2531 36.7988V40.6295L65.138 40.8008V41.7998H61.7869V40.8008L62.5861 40.6295V38.0434L62.5519 38.0377L60.5423 41.7998H57.9848ZM66.1142 41.7998V40.8008L67.0048 40.6295V36.7988L66.1142 36.6276V35.6228H67.0048H69.0657L70.6414 39.8588H70.6756L72.2627 35.6228H74.3521H75.237V36.6276L74.3521 36.7988V40.6295L75.237 40.8008V41.7998H72.0572V40.8008L72.6851 40.6295V38.1233L72.6509 38.1176L71.218 41.7998H70.099L68.7003 38.1861L68.6661 38.1918V40.6295L69.2998 40.8008V41.7998H66.1142ZM78.982 41.9197C78.3921 41.9197 77.8764 41.7903 77.4349 41.5315C76.9934 41.2689 76.6509 40.9092 76.4073 40.4525C76.1676 39.9958 76.0477 39.4744 76.0477 38.8883V38.6599C76.0477 38.0472 76.1619 37.5048 76.3902 37.0329C76.6186 36.5571 76.9402 36.1842 77.355 35.9139C77.7737 35.6399 78.2665 35.5048 78.8336 35.5086C79.3931 35.5086 79.8631 35.619 80.2437 35.8397C80.6243 36.0605 80.9135 36.3783 81.1115 36.7931C81.3094 37.208 81.4083 37.7103 81.4083 38.3003V39.208H77.7775L77.766 39.2422C77.7889 39.5124 77.8555 39.7541 77.9659 39.9673C78.08 40.1766 78.2399 40.3421 78.4454 40.4639C78.6509 40.5819 78.9002 40.6409 79.1933 40.6409C79.4977 40.6409 79.7813 40.6028 80.0439 40.5267C80.3103 40.4468 80.5691 40.3307 80.8203 40.1785L81.2713 41.2061C81.0163 41.4116 80.6947 41.5829 80.3065 41.7199C79.9221 41.8531 79.4806 41.9197 78.982 41.9197ZM77.7889 38.1062H79.8498V37.9577C79.8498 37.7065 79.8155 37.4915 79.747 37.3126C79.6823 37.1299 79.5758 36.9891 79.4273 36.8902C79.2827 36.7912 79.0943 36.7417 78.8622 36.7417C78.6414 36.7417 78.4549 36.8007 78.3027 36.9187C78.1504 37.0329 78.0306 37.1908 77.943 37.3925C77.8593 37.5943 77.8022 37.8226 77.7718 38.0776L77.7889 38.1062ZM82.3046 41.7998V40.8008L83.1952 40.6295V36.7988L82.3046 36.6276V35.6228H85.5758V36.6276L84.8565 36.7988V38.1233H86.8888V36.7988L86.1752 36.6276V35.6228H86.8888H88.5558H89.4464V36.6276L88.5558 36.7988V40.6295L89.4464 40.8008V41.7998H86.1752V40.8008L86.8888 40.6295V39.4021H84.8565V40.6295L85.5758 40.8008V41.7998H82.3046ZM90.3884 41.7998V40.8008L91.279 40.6295V36.7988L90.3884 36.6276V35.6228H92.946H93.7452V36.6276L92.946 36.7988V39.3735L92.9802 39.3792L94.9897 35.6228H96.6567H97.5416V36.6276L96.6567 36.7988V40.6295L97.5416 40.8008V41.7998H94.1905V40.8008L94.9897 40.6295V38.0434L94.9555 38.0377L92.946 41.7998H90.3884ZM103.964 41.7998V40.8008L104.558 40.7151L107.201 33.4877H108.908L111.534 40.7151L112.128 40.8008V41.7998H109.296V40.8008L109.873 40.698L109.507 39.5562H106.584L106.219 40.698L106.796 40.8008V41.7998H103.964ZM106.978 38.3288H109.114L108.143 35.4801L108.063 35.2289H108.029L107.943 35.4972L106.978 38.3288ZM113.098 41.7998V40.3383H114.76V41.7998H113.098ZM115.713 41.7998V40.8008L116.598 40.6295V34.6637L115.713 34.4924V33.4877H124.208V34.4924L123.323 34.6637V40.6295L124.208 40.8008V41.7998H120.771V40.8008L121.656 40.6295V34.7722H118.265V40.6295L119.155 40.8008V41.7998H115.713ZM125.224 41.7998V40.3383H126.885V41.7998H125.224ZM132.611 41.7998V40.8008L133.496 40.6295V38.5971C133.23 38.658 132.963 38.7056 132.697 38.7398C132.431 38.7703 132.136 38.7855 131.812 38.7855C130.792 38.7855 130.002 38.5648 129.443 38.1233C128.887 37.6818 128.609 36.9986 128.609 36.0738V34.6637L127.719 34.4924V33.4877H131.161V34.4924L130.271 34.6637V36.0738C130.271 36.6142 130.392 36.9872 130.636 37.1927C130.88 37.3983 131.272 37.501 131.812 37.501C132.086 37.501 132.368 37.4858 132.657 37.4553C132.95 37.4211 133.23 37.3735 133.496 37.3126V34.6637L132.611 34.4924V33.4877H136.054V34.4924L135.163 34.6637V40.6295L136.054 40.8008V41.7998H132.611ZM139.656 41.9197C139.066 41.9197 138.55 41.7903 138.109 41.5315C137.667 41.2689 137.325 40.9092 137.081 40.4525C136.842 39.9958 136.722 39.4744 136.722 38.8883V38.6599C136.722 38.0472 136.836 37.5048 137.064 37.0329C137.293 36.5571 137.614 36.1842 138.029 35.9139C138.448 35.6399 138.941 35.5048 139.508 35.5086C140.067 35.5086 140.537 35.619 140.918 35.8397C141.298 36.0605 141.588 36.3783 141.785 36.7931C141.983 37.208 142.082 37.7103 142.082 38.3003V39.208H138.451L138.44 39.2422C138.463 39.5124 138.53 39.7541 138.64 39.9673C138.754 40.1766 138.914 40.3421 139.119 40.4639C139.325 40.5819 139.574 40.6409 139.867 40.6409C140.172 40.6409 140.455 40.6028 140.718 40.5267C140.984 40.4468 141.243 40.3307 141.494 40.1785L141.945 41.2061C141.69 41.4116 141.369 41.5829 140.981 41.7199C140.596 41.8531 140.155 41.9197 139.656 41.9197ZM138.463 38.1062H140.524V37.9577C140.524 37.7065 140.49 37.4915 140.421 37.3126C140.356 37.1299 140.25 36.9891 140.101 36.8902C139.957 36.7912 139.768 36.7417 139.536 36.7417C139.315 36.7417 139.129 36.8007 138.977 36.9187C138.824 37.0329 138.705 37.1908 138.617 37.3925C138.533 37.5943 138.476 37.8226 138.446 38.0776L138.463 38.1062ZM142.665 41.7998V40.8008L143.458 40.698L145.228 38.7056L143.555 36.7246L142.807 36.6276V35.6228H145.867V36.5819L145.388 36.6561L146.284 37.8321L147.18 36.6561L146.649 36.5819V35.6228H149.601V36.6276L148.91 36.7246L147.329 38.6371L149.093 40.698L149.852 40.8008V41.7998H146.684V40.8464L147.22 40.7722L146.267 39.5905L145.336 40.7779L145.862 40.8464V41.7998H142.665ZM153.22 41.9197C152.611 41.9197 152.088 41.7865 151.65 41.5201C151.213 41.2537 150.878 40.8845 150.646 40.4125C150.413 39.9368 150.297 39.3907 150.297 38.7741V38.6542C150.297 38.0415 150.413 37.4991 150.646 37.0272C150.878 36.5514 151.211 36.1804 151.645 35.9139C152.082 35.6437 152.604 35.5086 153.209 35.5086C153.822 35.5086 154.345 35.6437 154.779 35.9139C155.213 36.1804 155.546 36.5495 155.778 37.0215C156.01 37.4934 156.126 38.0377 156.126 38.6542V38.7741C156.126 39.3907 156.01 39.9368 155.778 40.4125C155.546 40.8845 155.213 41.2537 154.779 41.5201C154.345 41.7865 153.826 41.9197 153.22 41.9197ZM153.22 40.6409C153.51 40.6409 153.746 40.5629 153.928 40.4068C154.111 40.2508 154.246 40.0339 154.334 39.756C154.421 39.4744 154.465 39.1471 154.465 38.7741V38.6542C154.465 38.2888 154.421 37.9672 154.334 37.6894C154.246 37.4078 154.109 37.1889 153.923 37.0329C153.74 36.873 153.502 36.7931 153.209 36.7931C152.923 36.7931 152.688 36.873 152.501 37.0329C152.315 37.1889 152.178 37.4078 152.09 37.6894C152.006 37.9672 151.964 38.2888 151.964 38.6542V38.7741C151.964 39.1471 152.006 39.4744 152.09 39.756C152.178 40.0377 152.315 40.2565 152.501 40.4125C152.688 40.5648 152.927 40.6409 153.22 40.6409ZM156.988 41.7998V40.8008L157.879 40.6295V36.7988L156.988 36.6276V35.6228H157.879H160.459C161.281 35.6228 161.921 35.7655 162.377 36.051C162.838 36.3364 163.068 36.757 163.068 37.3126C163.068 37.6171 162.977 37.8835 162.794 38.1119C162.611 38.3364 162.334 38.5096 161.961 38.6314C162.452 38.7265 162.811 38.9016 163.04 39.1566C163.272 39.4078 163.388 39.7123 163.388 40.07C163.388 40.6333 163.169 41.0634 162.731 41.3602C162.297 41.6533 161.673 41.7998 160.859 41.7998H156.988ZM159.54 40.5324H160.853C161.146 40.5324 161.363 40.4791 161.504 40.3726C161.649 40.2622 161.721 40.0986 161.721 39.8816C161.721 39.6723 161.654 39.5105 161.521 39.3964C161.388 39.2822 161.167 39.2251 160.859 39.2251H159.54V40.5324ZM159.54 38.1404H160.505C160.817 38.1366 161.043 38.0833 161.184 37.9806C161.329 37.874 161.401 37.7199 161.401 37.5181C161.401 37.1033 161.091 36.8959 160.471 36.8959H159.54V38.1404ZM166.214 41.9197C165.601 41.9197 165.114 41.756 164.752 41.4287C164.391 41.0976 164.21 40.6485 164.21 40.0814C164.21 39.6932 164.315 39.3526 164.524 39.0595C164.737 38.7665 165.049 38.5362 165.46 38.3688C165.875 38.2013 166.385 38.1176 166.99 38.1176H167.807V37.6609C167.807 37.364 167.719 37.1242 167.544 36.9415C167.373 36.7551 167.114 36.6618 166.768 36.6618C166.589 36.6618 166.429 36.6846 166.288 36.7303C166.147 36.7722 166.018 36.8331 165.9 36.913L165.768 37.7294H164.57L164.547 36.1252C164.87 35.9425 165.22 35.7941 165.597 35.6799C165.974 35.5657 166.395 35.5086 166.859 35.5086C167.666 35.5086 168.303 35.697 168.771 36.0738C169.239 36.4468 169.474 36.9815 169.474 37.678V40.2242C169.474 40.3079 169.474 40.3916 169.474 40.4753C169.477 40.5553 169.485 40.6333 169.496 40.7094L170.141 40.8008V41.7998H168.075C168.033 41.6932 167.991 41.5791 167.949 41.4573C167.907 41.3355 167.877 41.2137 167.858 41.0919C167.66 41.3431 167.426 41.5448 167.156 41.697C166.889 41.8455 166.575 41.9197 166.214 41.9197ZM166.659 40.6866C166.891 40.6866 167.112 40.6352 167.321 40.5324C167.531 40.4259 167.692 40.287 167.807 40.1157V39.1395H166.984C166.619 39.1395 166.341 39.2232 166.151 39.3907C165.964 39.5581 165.871 39.7598 165.871 39.9958C165.871 40.2165 165.94 40.3878 166.077 40.5096C166.218 40.6276 166.412 40.6866 166.659 40.6866Z" fill="currentColor"/>
</svg>
