<svg width="124" height="60" viewBox="0 0 124 60" fill="none" xmlns="http://www.w3.org/2000/svg">
<path fill-rule="evenodd" clip-rule="evenodd" d="M20.4818 0.0376058C19.7273 0.119229 19.0048 0.327724 18.3636 0.648682C17.8799 0.89074 17.8606 0.893551 17.9077 0.715281C17.9631 0.505028 17.932 0.516714 17.3499 0.924039L16.9925 1.17409L16.623 0.99714C16.0161 0.706319 15.2798 0.556603 14.4571 0.556603C13.8036 0.556603 13.6891 0.53578 13.7319 0.424811C13.7939 0.264727 13.6643 0.251988 13.5096 0.402845C13.4189 0.49141 13.4087 0.465842 13.4572 0.271053C13.5397 -0.0600082 13.3966 -0.0352314 13.0653 0.338882C12.8437 0.589112 12.7487 0.637699 12.5687 0.59289C12.4002 0.55098 12.3462 0.571803 12.3462 0.678906C12.3462 0.788821 12.2527 0.820275 11.9253 0.820714C10.7475 0.82212 9.00612 1.24078 7.92309 1.78288C6.35012 2.57021 4.74321 4.29915 4.32655 5.65256C4.28933 5.77337 4.12017 6.02553 3.95056 6.21294C3.56226 6.64188 3.34259 7.13101 3.23173 7.81325C3.10413 8.59908 2.93949 8.92364 2.56784 9.12212C2.23085 9.30206 2.17999 9.38078 2.33825 9.47778C2.39762 9.51416 2.37316 9.58005 2.27179 9.65702C2.15358 9.74664 2.13949 9.79725 2.21818 9.849C2.29864 9.90198 2.27241 10.0629 2.11211 10.5008C1.98956 10.8357 1.85628 11.4866 1.79789 12.0356C1.71884 12.7793 1.6382 13.1077 1.4312 13.5288C1.15402 14.0928 0.961821 15.2319 1.16492 15.1075C1.23714 15.0632 1.25008 15.2351 1.21206 15.731C1.17352 16.2331 1.19771 16.5425 1.3028 16.8918C1.38167 17.1537 1.42358 17.3909 1.39602 17.419C1.36847 17.447 1.17919 17.5138 0.975379 17.5675L0.604976 17.6651L0.870815 17.7755L1.13665 17.8858L0.782202 17.9944C0.433155 18.1015 0.431117 18.1045 0.649282 18.1933C0.771125 18.2428 0.947288 18.298 1.04078 18.3159C1.1962 18.3457 1.21242 18.4425 1.2305 19.4468C1.26133 21.1571 1.55969 22.2584 1.99221 22.2584C2.55012 22.2584 3.06195 22.8934 3.73532 24.4212C3.96368 24.9393 4.2001 25.3796 4.2608 25.3996C4.39 25.4423 4.40612 24.8059 4.29075 24.2146C4.22128 23.8588 4.22668 23.8447 4.41614 23.8919L4.61419 23.9412L4.39647 23.2095C4.07072 22.115 4.01702 20.5379 4.27134 19.5347C4.37546 19.1239 4.55916 18.5506 4.67958 18.2607C4.98574 17.5233 4.96208 17.4219 4.57041 17.7932C4.27223 18.0757 3.92983 18.3046 3.80506 18.3046C3.77981 18.3046 3.95092 18.1145 4.1853 17.8821C4.64387 17.4274 4.9962 16.6734 4.98503 16.1706L4.97883 15.8884L4.8079 16.2701C4.57413 16.7923 4.32788 17.1188 3.99088 17.3535L3.70643 17.5515L3.98867 17.2286C4.76527 16.3401 5.06753 15.3472 5.00541 13.8896C4.99505 13.6472 4.9526 13.5601 4.84467 13.5601C4.70954 13.5601 4.70989 13.5471 4.84848 13.3953C4.98796 13.2425 4.98822 13.2262 4.85229 13.1745C4.72673 13.1268 4.723 13.0978 4.82624 12.9737C4.92354 12.8568 4.92478 12.8212 4.83253 12.7904C4.74356 12.7607 4.74152 12.7243 4.82314 12.6267C4.89669 12.5389 4.91326 12.2324 4.87843 11.6053L4.82863 10.7094L5.31033 9.97666C6.46939 8.21363 7.43217 7.60976 8.64989 7.88196C9.89101 8.15951 10.6632 8.1357 11.4234 7.79664L11.7702 7.64201L10.9727 7.57848C9.84653 7.48887 9.2366 7.24004 8.60293 6.61175C7.98955 6.00357 7.91768 5.78471 8.5137 6.3399C8.74524 6.55551 9.23368 6.87454 9.59921 7.04886C10.2195 7.34468 10.32 7.36577 11.1056 7.36516C11.5686 7.3648 12.023 7.32052 12.1155 7.26666C12.2631 7.18065 12.2255 7.14998 11.8053 7.01283C11.0299 6.75988 10.3739 6.24422 9.96305 5.5647C9.66877 5.07804 9.7456 5.06723 10.1087 5.54432C10.4835 6.03652 10.8371 6.34966 11.2629 6.56615C11.6041 6.73958 12.4858 6.91601 12.6152 6.83676C12.6647 6.80645 12.5025 6.60103 12.2549 6.38032C11.5776 5.77653 11.3452 5.2585 11.3173 4.29071L11.2946 3.49996L11.3726 4.17588C11.5205 5.45496 12.0624 6.21294 13.1307 6.63529C13.5659 6.80724 13.7956 6.83342 14.8937 6.83588C15.588 6.83746 16.1563 6.84765 16.1564 6.85855C16.1565 6.86944 16.0071 6.95669 15.8243 7.05237C14.9838 7.49229 16.6626 7.04833 17.7959 6.53091C18.5363 6.19291 19.7135 5.91615 20.4108 5.91615C21.198 5.91615 21.7976 6.10672 22.4902 6.57686L23.0661 6.96776L23.22 6.73493C23.3046 6.60683 23.4454 6.24176 23.5329 5.92353C23.6884 5.35805 23.6909 5.35489 23.6423 5.78435C23.6131 6.0417 23.4314 6.55121 23.2034 7.01441C22.5888 8.26363 22.4966 9.12722 22.8844 10.0017C23.2034 10.7207 23.7855 11.2147 24.6191 11.4741C25.1196 11.6299 25.5496 11.7109 25.5496 11.6495C25.5496 11.6269 25.3502 11.4228 25.1065 11.1959C24.7081 10.825 24.6634 10.7454 24.6634 10.4059C24.6634 9.86991 24.8485 9.54649 25.5257 8.89939C25.8522 8.58748 26.0409 8.42635 25.9451 8.54118C25.7733 8.74739 25.7732 8.75126 25.9425 8.8487C26.9158 9.4089 27.6763 10.8866 27.6763 12.2176C27.6763 12.4722 27.731 12.6837 27.8229 12.7844C27.9598 12.9344 27.959 12.9451 27.8092 12.9451C27.6544 12.9451 27.6544 12.9512 27.8092 13.1208C27.9535 13.2788 27.9548 13.2965 27.8229 13.2965C27.6612 13.2965 27.6257 13.4308 27.7649 13.5162C27.9034 13.601 27.8693 13.7112 27.6902 13.7577C27.5592 13.7916 27.5155 13.9197 27.4693 14.4049C27.3967 15.1677 27.4065 16.1972 27.4917 16.767C27.5531 17.1775 27.5637 17.1919 27.6523 16.9867C27.7423 16.7784 27.7506 16.7761 27.814 16.9427C28.0272 17.503 28.4054 18.258 28.6477 18.6074C28.8249 18.8626 28.9567 19.1928 29.0097 19.5134C29.1092 20.1155 29.1123 22.5687 29.0143 23.1589C28.9364 23.6276 29.0192 23.6953 29.229 23.3347C29.3634 23.1034 29.3674 23.1246 29.3226 23.8245C29.2664 24.703 29.3507 24.7268 29.7787 23.9536C30.4493 22.7417 30.7972 20.4779 30.8121 17.2287C30.8212 15.2208 30.8339 15.0546 30.9771 15.0542C31.1555 15.0536 31.1816 14.8743 31.0259 14.7199C30.9432 14.6379 30.9579 14.6142 31.0923 14.6131C31.4641 14.6102 31.5084 14.4804 31.2365 14.1917C30.9101 13.8453 30.7933 13.3866 30.7301 12.2019C30.7025 11.6857 30.6433 11.1675 30.5984 11.0506C30.5535 10.9336 30.5373 10.7851 30.5623 10.7205C30.5873 10.6559 30.565 10.4915 30.5127 10.3553C30.4257 10.1282 30.4302 10.1177 30.5668 10.2301C30.7043 10.3432 30.7107 10.3188 30.6497 9.91358C30.5638 9.34283 30.3811 8.91732 30.0945 8.6207C29.9356 8.45613 29.802 8.1393 29.665 7.60194C29.4371 6.70822 29.2193 6.24062 28.7242 5.58333C28.4064 5.16115 27.7526 4.59823 27.5802 4.59823C27.542 4.59823 27.4942 4.70691 27.4739 4.83985C27.4461 5.02181 27.4336 4.99474 27.4232 4.73002C27.3614 3.15089 26.11 1.47484 24.6766 1.05153C24.4501 0.984576 24.0051 0.788118 23.688 0.615031C22.7592 0.108159 21.6596 -0.0899689 20.4818 0.0376058ZM12.3019 16.8988C12.2718 16.9471 12.0427 16.9867 11.7928 16.9867C10.79 16.9867 9.12982 17.6149 8.35038 18.2894C7.36429 19.1426 7.07843 19.456 7.21055 19.5389C7.51839 19.732 8.00816 19.6211 8.95738 19.1433C10.4773 18.3783 11.6533 18.1673 12.9476 18.4273C13.3457 18.5073 13.8546 18.6506 14.0785 18.7458L14.4856 18.9188L14.7774 18.612C14.9379 18.4432 15.2541 18.2242 15.48 18.1251C15.7059 18.026 15.8907 17.9114 15.8907 17.8704C15.8907 17.7415 14.435 17.0843 13.843 16.9459C13.1942 16.7943 12.3825 16.7695 12.3019 16.8988ZM21.4935 17.1136C21.1391 17.2274 20.7524 17.3834 20.6342 17.4601C20.516 17.5369 20.3574 17.5761 20.2817 17.5474C20.2058 17.5185 20.1442 17.541 20.1442 17.5975C20.1442 17.6538 20.1045 17.6756 20.0559 17.6459C20.0074 17.6161 19.9181 17.6996 19.8576 17.8314C19.7687 18.0248 19.7696 18.0783 19.8624 18.1089C19.9255 18.1298 20.1547 18.2812 20.3715 18.4454C20.5885 18.6096 20.8003 18.7439 20.8424 18.7439C20.8844 18.7439 21.3726 18.6056 21.9272 18.4367C23.1441 18.0659 23.5773 18.0533 24.7742 18.3541C25.2671 18.478 25.8126 18.5713 25.9865 18.5615C26.1605 18.5517 26.4153 18.574 26.5529 18.611C26.7034 18.6515 26.8406 18.6412 26.897 18.5852C27.0069 18.4763 25.8846 17.7121 25.1153 17.372C23.925 16.8457 22.6182 16.7524 21.4935 17.1136ZM16.3338 18.0247C15.2288 18.3111 14.6502 18.8218 14.6502 19.5107C14.6502 19.6707 14.5671 19.8449 14.43 19.9726L14.2099 20.1776L13.8343 20.0099C13.5345 19.8761 13.2521 19.8422 12.4372 19.8422C11.476 19.8422 11.3811 19.8584 10.8289 20.1179C10.1288 20.4467 9.58769 20.9105 9.2631 21.4597C9.02535 21.8619 8.97679 22.3472 9.07081 23.3815C9.10661 23.7746 8.99921 23.8566 8.60576 23.7368C8.05282 23.5686 7.5308 23.8936 7.45247 24.4549C7.42429 24.6563 7.36146 24.7866 7.04936 25.2896C6.77537 25.7313 6.72229 25.9486 6.72752 26.6075C6.73231 27.2175 6.78299 27.4381 7.11068 28.2769C8.55924 31.9841 9.09748 34.4488 9.32964 38.4374C9.46841 40.8211 9.86522 42.3432 10.8202 44.1548C11.3159 45.0951 11.4553 45.2507 11.6868 45.1223C11.784 45.0684 11.7357 44.9316 11.4563 44.469C10.643 43.1226 10.0097 41.1063 9.86203 39.3936C9.814 38.8367 9.71458 37.6622 9.64103 36.7837C9.38078 33.6753 8.97147 32.0223 7.39345 27.7058C7.10563 26.9184 7.05459 26.4189 7.21534 25.9616C7.29837 25.7255 7.35614 25.685 7.60966 25.685C7.77307 25.685 7.9386 25.6356 7.97759 25.5751C8.01658 25.5148 8.20594 25.4601 8.3985 25.4537C8.67054 25.4447 8.80373 25.3809 8.99664 25.1667C9.1331 25.0154 9.24475 24.7941 9.24475 24.6752C9.24475 24.5459 9.32752 24.4052 9.4506 24.3252C9.64298 24.2002 9.69872 24.213 10.3039 24.5209C10.9426 24.8458 10.9655 24.8503 11.9811 24.8503C12.9534 24.8503 13.0439 24.8347 13.6027 24.5722C15.1176 23.8607 15.8154 22.4991 15.2728 21.3139L15.1019 20.9405L15.3856 20.7977C15.9033 20.537 15.9148 20.5076 15.626 20.1814C15.1602 19.6554 15.1509 19.1666 15.6011 18.8666C16.5753 18.2174 19.1624 18.2727 19.9091 18.9587C20.24 19.2629 20.2038 19.5032 19.7381 20.0913C19.5148 20.3733 19.3454 20.6133 19.3616 20.6248C19.3778 20.6364 19.5505 20.7047 19.7454 20.7768C20.0252 20.8803 20.0906 20.9438 20.0556 21.0779C20.0312 21.1714 20.0114 21.5247 20.0116 21.863C20.012 22.5959 20.1887 23.0088 20.7327 23.549C21.414 24.2253 22.2945 24.5544 23.4166 24.552C24.5906 24.5494 25.6367 24.0145 26.1452 23.1567C26.359 22.7963 26.3914 22.649 26.3914 22.0387C26.3914 21.4336 26.3582 21.2798 26.1526 20.9331C25.2473 19.4063 23.0407 18.8443 21.3466 19.7092C20.7345 20.0218 20.6291 19.9766 20.6639 19.4164C20.705 18.753 20.1264 18.2677 18.9728 17.9981C18.2401 17.8267 17.0513 17.8388 16.3338 18.0247ZM23.7065 19.8969C24.6409 20.0933 25.3474 20.5705 25.6781 21.2285C26.0883 22.0445 25.9203 22.8086 25.1954 23.4239C24.6748 23.8657 24.0185 24.0467 23.1271 23.9943C22.2624 23.9435 21.7299 23.7334 21.1706 23.2222C19.9079 22.0681 20.4959 20.3576 22.3049 19.9223C22.8915 19.7811 23.1345 19.7767 23.7065 19.8969ZM13.5324 20.4759C14.642 20.8223 15.1859 21.8801 14.7471 22.8383C14.0573 24.3442 11.4473 24.8928 10.1622 23.8021C9.47869 23.222 9.33922 22.5459 9.73904 21.7505C10.3418 20.5511 11.9944 19.9958 13.5324 20.4759ZM8.5417 24.2823C8.79283 24.4155 8.76465 24.7868 8.4942 24.909C8.32681 24.9846 8.24334 24.9816 8.13975 24.8964C7.97776 24.7631 7.96226 24.4437 8.11051 24.2967C8.24068 24.1677 8.32061 24.165 8.5417 24.2823ZM16.7431 28.2666C16.6828 28.505 15.6794 29.463 15.49 29.463C15.4214 29.463 15.3226 29.5421 15.2704 29.6387C15.2183 29.7354 15.1129 29.8144 15.0363 29.8144C14.9529 29.8144 14.9163 29.8641 14.945 29.9384C15.0002 30.0808 14.1325 30.5635 13.186 30.9167C12.4595 31.1877 11.9747 31.4292 11.4755 31.7682C11.2307 31.9345 10.9805 32.0285 10.7827 32.0285C10.5538 32.0285 10.4856 32.0606 10.5208 32.1516C10.5492 32.2251 10.5119 32.2746 10.4279 32.2746C10.3313 32.2746 10.3018 32.3291 10.3335 32.4494C10.3682 32.5808 10.2499 32.7392 9.85796 33.0864L9.33629 33.5485L9.42296 33.9C9.58193 34.5446 9.85406 36.8728 9.91068 38.0734C9.96509 39.2269 10.1302 40.4863 10.3186 41.1846C10.4124 41.5326 11.3266 42.5922 11.4616 42.5094C11.4985 42.487 11.5493 42.547 11.5747 42.6432C11.6253 42.8353 11.8083 42.8828 11.825 42.7081C11.8307 42.6477 11.8629 42.7169 11.8964 42.8619C11.9299 43.0068 12.005 43.1155 12.0632 43.1035C12.1214 43.0913 12.169 43.12 12.169 43.167C12.169 43.3201 13.0829 43.8689 13.7868 44.1387C15.9195 44.9559 18.9348 44.9294 20.9812 44.0754C21.675 43.7859 22.4481 43.291 22.4481 43.1363C22.4481 43.0686 22.5179 43.0187 22.6032 43.0254C22.7124 43.034 22.7669 42.9618 22.7878 42.7807C22.8097 42.5898 22.8376 42.5559 22.896 42.6489C22.9559 42.7441 23.0123 42.7512 23.1324 42.6783C23.4876 42.4627 24.4253 41.2298 24.7972 40.4896C25.1668 39.7537 25.6382 38.2241 25.6382 37.7609C25.6382 37.6497 25.7038 37.4937 25.784 37.4142C25.9225 37.2769 25.9527 37.1653 26.0239 36.527C26.0407 36.3772 26.0739 36.2191 26.0976 36.1756C26.1215 36.1321 26.1359 35.8526 26.1299 35.5546L26.1189 35.0126L26.4988 34.9561C26.7078 34.9251 26.8788 34.8675 26.8788 34.8283C26.8788 34.6994 25.074 33.0325 24.3535 32.4961C23.5092 31.8673 22.289 31.128 21.5907 30.8218C20.932 30.5329 20.4725 30.1845 20.5354 30.0218C20.5622 29.9524 20.5251 29.8731 20.4528 29.8456C20.3805 29.8181 20.3214 29.7432 20.3214 29.6791C20.3214 29.6151 20.2317 29.5356 20.122 29.5024C19.8222 29.4119 19.6355 29.2177 19.3294 28.678C19.1768 28.4091 19.0405 28.1746 19.0267 28.157C19.0128 28.1394 18.8273 28.2086 18.6143 28.3108C18.1087 28.5535 17.7817 28.5452 17.2727 28.2769C17.0436 28.1561 16.8426 28.0572 16.826 28.0572C16.8096 28.0572 16.7723 28.1514 16.7431 28.2666ZM18.5759 31.203C19.3031 32.2321 20.1653 32.928 21.3662 33.4554C21.8418 33.6643 21.8237 33.8239 21.2935 34.0944C20.7295 34.3822 20.0183 34.4566 19.79 34.2517C19.6451 34.1217 19.5926 34.1146 19.4773 34.2094C19.3605 34.3056 19.3164 34.2917 19.1958 34.121C19.0605 33.9294 19.0466 33.9271 18.9366 34.0762C18.8268 34.2251 18.8109 34.2222 18.6451 34.0229L18.4697 33.8121L18.3188 34.0217L18.1678 34.2312L18.0455 33.9997C17.898 33.7206 17.7908 33.7071 17.6591 33.9512C17.5643 34.1268 17.5532 34.1279 17.3875 33.9792C17.2217 33.8304 17.2093 33.8321 17.0765 34.02C16.9624 34.1815 16.9148 34.1966 16.8049 34.1062C16.6948 34.0157 16.6443 34.0324 16.5154 34.2018C16.4116 34.3382 16.3382 34.3736 16.2968 34.3071C16.2533 34.2375 16.184 34.2338 16.0684 34.2951C15.8046 34.4352 15.0814 34.394 14.6875 34.2166C14.3634 34.0707 13.9412 33.669 13.9412 33.5066C13.9412 33.4726 14.1107 33.3943 14.3179 33.3327C15.5128 32.9778 16.8181 32.0313 17.5342 31.0004C17.7186 30.7347 17.9195 30.5173 17.9805 30.5173C18.0415 30.5173 18.3093 30.8259 18.5759 31.203ZM7.95986 34.4878C7.6187 34.7767 7.17014 35.1123 6.96297 35.2336C6.75579 35.355 6.58636 35.4869 6.58636 35.5268C6.58636 35.6557 7.11396 35.7189 7.66292 35.6557C8.19673 35.5943 8.1977 35.5946 8.0919 35.7906C8.00904 35.9442 8.00966 36.0016 8.095 36.0539C8.15499 36.0907 8.17776 36.163 8.1456 36.2147C8.0833 36.3146 8.39806 37.6424 8.55118 37.9262C8.60125 38.0189 8.73239 38.4198 8.84263 38.8171C9.17767 40.0244 9.25539 40.0251 9.19726 38.8202C9.0965 36.7318 8.79868 34.1804 8.63687 34.0191C8.60568 33.988 8.30102 34.199 7.95986 34.4878Z" fill="currentColor"/>
<path d="M51.3958 33.5161V31.2008L53.4598 30.8038V17.2292H49.9537L49.742 19.5313H46.818V14.2523H64.0046V19.5313H61.0674L60.8557 17.2292H57.3231V30.8038L59.4004 31.2008V33.5161H51.3958ZM65.4732 33.5161V31.2008L67.524 30.8038V16.9778L65.4732 16.5809V14.2523H80.0798V19.1344H77.1161L76.9574 17.2292H71.3873V30.8038L73.4513 31.2008V33.5161H65.4732ZM81.6675 33.5161V31.2008L83.7182 30.8038V16.9778L81.6675 16.5809V14.2523H101.355V16.5809L99.3039 16.9778V30.8038L101.355 31.2008V33.5161H93.3898V31.2008L95.4406 30.8038V17.2292H87.5816V30.8038L89.6455 31.2008V33.5161H81.6675ZM102.916 33.5161V31.2008L104.98 30.8038V16.9778L102.916 16.5809V14.2523H104.98H108.83H110.894V16.5809L108.83 16.9778V25.8953L108.909 25.9217L116.676 18.0495V16.9778L114.625 16.5809V14.2523H116.676H120.552H122.603V16.5809L120.552 16.9778V30.8038L122.603 31.2008V33.5161H114.625V31.2008L116.676 30.8038V22.0981L116.596 22.0716L108.83 29.9571V30.8038L110.894 31.2008V33.5161H102.916Z" fill="currentColor"/>
<path d="M5.93085 50.3445V51.3084H2.48459V50.3445H5.93085ZM2.6547 50.3445V57.1614H1.48915V50.3445H2.6547ZM6.9641 50.3445V57.1614H5.79225V50.3445H6.9641ZM10.0008 51.6549V59.7823H8.82899V50.3445H9.90004L10.0008 51.6549ZM14.5938 53.6962V53.8285C14.5938 54.3241 14.535 54.7841 14.4173 55.2083C14.2997 55.6283 14.1275 55.9937 13.9007 56.3045C13.6781 56.6154 13.403 56.8569 13.0754 57.0291C12.7478 57.2013 12.3719 57.2874 11.9476 57.2874C11.515 57.2874 11.1328 57.216 10.801 57.0732C10.4692 56.9304 10.1878 56.7225 9.95674 56.4494C9.72573 56.1764 9.54092 55.8488 9.40231 55.4666C9.26791 55.0844 9.1755 54.6539 9.1251 54.175V53.4694C9.1755 52.9654 9.27001 52.5139 9.40862 52.1148C9.54722 51.7158 9.72993 51.3756 9.95674 51.0942C10.1878 50.8086 10.4671 50.5923 10.7947 50.4453C11.1223 50.2941 11.5003 50.2185 11.9287 50.2185C12.3572 50.2185 12.7373 50.3025 13.0691 50.4705C13.4009 50.6343 13.6802 50.8695 13.907 51.1761C14.1338 51.4827 14.3039 51.8502 14.4173 52.2786C14.535 52.7029 14.5938 53.1754 14.5938 53.6962ZM13.4219 53.8285V53.6962C13.4219 53.356 13.3862 53.0368 13.3148 52.7386C13.2434 52.4362 13.1321 52.1715 12.9809 51.9447C12.8339 51.7137 12.6449 51.5331 12.4139 51.4029C12.1828 51.2685 11.9077 51.2013 11.5885 51.2013C11.2945 51.2013 11.0383 51.2517 10.8199 51.3525C10.6057 51.4533 10.423 51.5898 10.2718 51.762C10.1205 51.93 9.99664 52.1232 9.90004 52.3417C9.80763 52.5559 9.73833 52.7785 9.69213 53.0095V54.6413C9.77613 54.9353 9.89374 55.2125 10.0449 55.4729C10.1962 55.7291 10.3978 55.937 10.6498 56.0966C10.9018 56.252 11.2189 56.3297 11.6011 56.3297C11.9161 56.3297 12.187 56.2646 12.4139 56.1344C12.6449 56 12.8339 55.8173 12.9809 55.5863C13.1321 55.3553 13.2434 55.0907 13.3148 54.7925C13.3862 54.4901 13.4219 54.1687 13.4219 53.8285ZM17.3407 55.3154L20.4845 50.3445H21.6564V57.1614H20.4845V52.1904L17.3407 57.1614H16.1814V50.3445H17.3407V55.3154ZM26.3564 57.2874C25.8818 57.2874 25.4513 57.2076 25.0648 57.048C24.6826 56.8842 24.3529 56.6553 24.0757 56.3612C23.8027 56.0672 23.5927 55.7186 23.4457 55.3154C23.2987 54.9122 23.2252 54.4712 23.2252 53.9923V53.7277C23.2252 53.1733 23.3071 52.6798 23.4709 52.2471C23.6347 51.8103 23.8573 51.4407 24.1387 51.1383C24.4201 50.8359 24.7393 50.607 25.0963 50.4516C25.4534 50.2962 25.823 50.2185 26.2052 50.2185C26.6924 50.2185 27.1124 50.3025 27.4653 50.4705C27.8223 50.6385 28.1142 50.8737 28.341 51.1761C28.5678 51.4743 28.7358 51.8271 28.845 52.2345C28.9542 52.6378 29.0088 53.0788 29.0088 53.5576V54.0805H23.9182V53.1292H27.8433V53.041C27.8265 52.7386 27.7635 52.4446 27.6543 52.1589C27.5493 51.8733 27.3813 51.6381 27.1502 51.4533C26.9192 51.2685 26.6042 51.1761 26.2052 51.1761C25.9406 51.1761 25.697 51.2328 25.4744 51.3462C25.2518 51.4554 25.0606 51.6192 24.901 51.8376C24.7414 52.056 24.6175 52.3228 24.5293 52.6378C24.4411 52.9528 24.397 53.3161 24.397 53.7277V53.9923C24.397 54.3157 24.4411 54.6203 24.5293 54.9059C24.6217 55.1873 24.754 55.4351 24.9262 55.6493C25.1026 55.8635 25.3148 56.0315 25.5626 56.1533C25.8146 56.2751 26.1002 56.336 26.4194 56.336C26.831 56.336 27.1796 56.252 27.4653 56.084C27.7509 55.916 28.0008 55.6913 28.215 55.4099L28.9206 55.9706C28.7736 56.1932 28.5867 56.4053 28.3599 56.607C28.1331 56.8086 27.8538 56.9724 27.522 57.0984C27.1943 57.2244 26.8058 57.2874 26.3564 57.2874ZM34.2885 55.6115L36.607 50.3445H37.7284L34.6917 57.1614H33.8853L30.8611 50.3445H31.9826L34.2885 55.6115ZM31.6424 50.3445V57.1614H30.4768V50.3445H31.6424ZM36.8968 57.1614V50.3445H38.0687V57.1614H36.8968ZM44.5706 53.2993V54.2443H40.9668V53.2993H44.5706ZM41.2125 50.3445V57.1614H40.0469V50.3445H41.2125ZM45.5156 50.3445V57.1614H44.3437V50.3445H45.5156ZM51.4127 55.9958V52.4866C51.4127 52.2177 51.3581 51.9846 51.2489 51.7872C51.1439 51.5856 50.9843 51.4302 50.77 51.321C50.5558 51.2118 50.2912 51.1572 49.9762 51.1572C49.6822 51.1572 49.4239 51.2076 49.2013 51.3084C48.9829 51.4092 48.8107 51.5415 48.6846 51.7053C48.5628 51.8691 48.5019 52.0455 48.5019 52.2345H47.3364C47.3364 51.9909 47.3994 51.7494 47.5254 51.51C47.6514 51.2706 47.832 51.0543 48.0672 50.8611C48.3066 50.6637 48.5922 50.5083 48.9241 50.3949C49.2601 50.2773 49.6339 50.2185 50.0455 50.2185C50.5411 50.2185 50.978 50.3025 51.356 50.4705C51.7382 50.6385 52.0364 50.8926 52.2506 51.2328C52.469 51.5688 52.5782 51.9909 52.5782 52.4992V55.6745C52.5782 55.9013 52.5971 56.1428 52.6349 56.399C52.6769 56.6553 52.7378 56.8758 52.8176 57.0606V57.1614H51.6017C51.5429 57.027 51.4967 56.8485 51.4631 56.6259C51.4295 56.399 51.4127 56.189 51.4127 55.9958ZM51.6143 53.0284L51.6269 53.8474H50.4487C50.1169 53.8474 49.8208 53.8747 49.5604 53.9293C49.3 53.9797 49.0816 54.0574 48.9052 54.1624C48.7287 54.2674 48.5943 54.3997 48.5019 54.5594C48.4095 54.7148 48.3633 54.8975 48.3633 55.1075C48.3633 55.3217 48.4116 55.517 48.5082 55.6934C48.6048 55.8698 48.7498 56.0105 48.943 56.1155C49.1404 56.2163 49.3819 56.2667 49.6675 56.2667C50.0245 56.2667 50.3395 56.1911 50.6125 56.0399C50.8855 55.8887 51.1019 55.7039 51.2615 55.4855C51.4253 55.2671 51.5135 55.055 51.5261 54.8492L52.0238 55.4099C51.9944 55.5863 51.9146 55.7816 51.7844 55.9958C51.6542 56.21 51.4799 56.4158 51.2615 56.6133C51.0473 56.8065 50.791 56.9682 50.4928 57.0984C50.1988 57.2244 49.867 57.2874 49.4974 57.2874C49.0354 57.2874 48.63 57.1971 48.2814 57.0165C47.937 56.8359 47.6682 56.5944 47.475 56.2919C47.286 55.9853 47.1915 55.643 47.1915 55.265C47.1915 54.8996 47.2629 54.5783 47.4057 54.301C47.5485 54.0196 47.7543 53.7865 48.0231 53.6017C48.2919 53.4127 48.6153 53.2699 48.9934 53.1733C49.3714 53.0767 49.7935 53.0284 50.2597 53.0284H51.6143ZM55.7914 53.9104H57.0514L55.0794 57.1614H53.8194L55.7914 53.9104ZM56.7679 50.3445H59.6157V57.1614H58.4501V51.2895H56.7679C56.4361 51.2895 56.1652 51.3462 55.9552 51.4596C55.7452 51.5688 55.5919 51.7116 55.4953 51.888C55.3987 52.0644 55.3504 52.2471 55.3504 52.4362C55.3504 52.621 55.3945 52.7995 55.4827 52.9717C55.5709 53.1397 55.7095 53.2783 55.8985 53.3875C56.0875 53.4967 56.3311 53.5513 56.6293 53.5513H58.7651V54.509H56.6293C56.2387 54.509 55.8922 54.4565 55.5898 54.3514C55.2874 54.2464 55.0311 54.1015 54.8211 53.9167C54.6111 53.7277 54.4515 53.5072 54.3423 53.2552C54.2331 52.999 54.1785 52.7218 54.1785 52.4236C54.1785 52.1253 54.2352 51.8502 54.3486 51.5982C54.4662 51.3462 54.6342 51.1257 54.8526 50.9367C55.0752 50.7477 55.3462 50.6028 55.6654 50.502C55.9888 50.397 56.3563 50.3445 56.7679 50.3445ZM65.9601 50.3445V57.1614H64.7945V50.3445H65.9601ZM70.4333 50.3445L67.2012 54.2506H65.5694L65.393 53.23H66.7287L69.0157 50.3445H70.4333ZM69.1795 57.1614L66.672 54.0742L67.4217 53.23L70.6601 57.1614H69.1795ZM71.2271 53.8285V53.6836C71.2271 53.1922 71.2985 52.7365 71.4413 52.3165C71.5841 51.8922 71.7899 51.5247 72.0587 51.2139C72.3275 50.8989 72.6531 50.6553 73.0353 50.4831C73.4175 50.3067 73.8459 50.2185 74.3205 50.2185C74.7994 50.2185 75.2299 50.3067 75.6121 50.4831C75.9985 50.6553 76.3261 50.8989 76.5949 51.2139C76.868 51.5247 77.0759 51.8922 77.2187 52.3165C77.3615 52.7365 77.4329 53.1922 77.4329 53.6836V53.8285C77.4329 54.3199 77.3615 54.7757 77.2187 55.1957C77.0759 55.6157 76.868 55.9832 76.5949 56.2982C76.3261 56.6091 76.0006 56.8527 75.6184 57.0291C75.2404 57.2013 74.812 57.2874 74.3331 57.2874C73.8543 57.2874 73.4238 57.2013 73.0416 57.0291C72.6594 56.8527 72.3317 56.6091 72.0587 56.2982C71.7899 55.9832 71.5841 55.6157 71.4413 55.1957C71.2985 54.7757 71.2271 54.3199 71.2271 53.8285ZM72.3926 53.6836V53.8285C72.3926 54.1687 72.4326 54.4901 72.5124 54.7925C72.5922 55.0907 72.7119 55.3553 72.8715 55.5863C73.0353 55.8173 73.239 56 73.4826 56.1344C73.7262 56.2646 74.0097 56.3297 74.3331 56.3297C74.6524 56.3297 74.9317 56.2646 75.1711 56.1344C75.4147 56 75.6163 55.8173 75.7759 55.5863C75.9355 55.3553 76.0552 55.0907 76.135 54.7925C76.219 54.4901 76.261 54.1687 76.261 53.8285V53.6836C76.261 53.3476 76.219 53.0305 76.135 52.7323C76.0552 52.4299 75.9334 52.1631 75.7696 51.9321C75.61 51.6969 75.4084 51.5121 75.1648 51.3777C74.9254 51.2433 74.644 51.1761 74.3205 51.1761C74.0013 51.1761 73.7199 51.2433 73.4763 51.3777C73.2369 51.5121 73.0353 51.6969 72.8715 51.9321C72.7119 52.1631 72.5922 52.4299 72.5124 52.7323C72.4326 53.0305 72.3926 53.3476 72.3926 53.6836ZM82.8133 55.6115L85.1319 50.3445H86.2533L83.2166 57.1614H82.4101L79.386 50.3445H80.5074L82.8133 55.6115ZM80.1672 50.3445V57.1614H79.0017V50.3445H80.1672ZM85.4217 57.1614V50.3445H86.5935V57.1614H85.4217ZM89.7311 55.3154L92.8749 50.3445H94.0468V57.1614H92.8749V52.1904L89.7311 57.1614H88.5718V50.3445H89.7311V55.3154ZM98.646 56.3297C98.9232 56.3297 99.1794 56.273 99.4146 56.1596C99.6498 56.0462 99.843 55.8908 99.9942 55.6934C100.145 55.4918 100.232 55.2629 100.253 55.0067H101.361C101.34 55.4099 101.204 55.7858 100.952 56.1344C100.704 56.4788 100.379 56.7582 99.9753 56.9724C99.5721 57.1824 99.129 57.2874 98.646 57.2874C98.1336 57.2874 97.6862 57.1971 97.304 57.0165C96.926 56.8359 96.611 56.5881 96.359 56.273C96.1112 55.958 95.9243 55.5968 95.7982 55.1894C95.6764 54.7778 95.6155 54.343 95.6155 53.8852V53.6206C95.6155 53.1628 95.6764 52.7302 95.7982 52.3228C95.9243 51.9111 96.1112 51.5478 96.359 51.2328C96.611 50.9178 96.926 50.67 97.304 50.4894C97.6862 50.3088 98.1336 50.2185 98.646 50.2185C99.1794 50.2185 99.6456 50.3277 100.045 50.5461C100.444 50.7603 100.757 51.0543 100.983 51.4281C101.214 51.7977 101.34 52.2177 101.361 52.6882H100.253C100.232 52.4068 100.152 52.1526 100.013 51.9258C99.8787 51.699 99.6939 51.5184 99.4587 51.384C99.2277 51.2454 98.9568 51.1761 98.646 51.1761C98.289 51.1761 97.9886 51.2475 97.745 51.3903C97.5056 51.5289 97.3145 51.7179 97.1717 51.9573C97.0331 52.1925 96.9323 52.4551 96.8693 52.7449C96.8105 53.0305 96.7811 53.3224 96.7811 53.6206V53.8852C96.7811 54.1834 96.8105 54.4775 96.8693 54.7673C96.9281 55.0571 97.0268 55.3196 97.1654 55.5548C97.3082 55.79 97.4993 55.979 97.7387 56.1218C97.9823 56.2604 98.2848 56.3297 98.646 56.3297ZM105.4 56.3297C105.677 56.3297 105.933 56.273 106.169 56.1596C106.404 56.0462 106.597 55.8908 106.748 55.6934C106.899 55.4918 106.985 55.2629 107.006 55.0067H108.115C108.094 55.4099 107.958 55.7858 107.706 56.1344C107.458 56.4788 107.132 56.7582 106.729 56.9724C106.326 57.1824 105.883 57.2874 105.4 57.2874C104.887 57.2874 104.44 57.1971 104.058 57.0165C103.68 56.8359 103.365 56.5881 103.113 56.273C102.865 55.958 102.678 55.5968 102.552 55.1894C102.43 54.7778 102.369 54.343 102.369 53.8852V53.6206C102.369 53.1628 102.43 52.7302 102.552 52.3228C102.678 51.9111 102.865 51.5478 103.113 51.2328C103.365 50.9178 103.68 50.67 104.058 50.4894C104.44 50.3088 104.887 50.2185 105.4 50.2185C105.933 50.2185 106.4 50.3277 106.799 50.5461C107.198 50.7603 107.51 51.0543 107.737 51.4281C107.968 51.7977 108.094 52.2177 108.115 52.6882H107.006C106.985 52.4068 106.906 52.1526 106.767 51.9258C106.633 51.699 106.448 51.5184 106.213 51.384C105.982 51.2454 105.711 51.1761 105.4 51.1761C105.043 51.1761 104.743 51.2475 104.499 51.3903C104.26 51.5289 104.068 51.7179 103.926 51.9573C103.787 52.1925 103.686 52.4551 103.623 52.7449C103.564 53.0305 103.535 53.3224 103.535 53.6206V53.8852C103.535 54.1834 103.564 54.4775 103.623 54.7673C103.682 55.0571 103.781 55.3196 103.919 55.5548C104.062 55.79 104.253 55.979 104.493 56.1218C104.736 56.2604 105.039 56.3297 105.4 56.3297ZM110.686 55.3154L113.83 50.3445H115.002V57.1614H113.83V52.1904L110.686 57.1614H109.527V50.3445H110.686V55.3154ZM118.252 53.9104H119.513L117.541 57.1614H116.28L118.252 53.9104ZM119.229 50.3445H122.077V57.1614H120.911V51.2895H119.229C118.897 51.2895 118.626 51.3462 118.416 51.4596C118.206 51.5688 118.053 51.7116 117.956 51.888C117.86 52.0644 117.811 52.2471 117.811 52.4362C117.811 52.621 117.856 52.7995 117.944 52.9717C118.032 53.1397 118.171 53.2783 118.36 53.3875C118.549 53.4967 118.792 53.5513 119.09 53.5513H121.226V54.509H119.09C118.7 54.509 118.353 54.4565 118.051 54.3514C117.748 54.2464 117.492 54.1015 117.282 53.9167C117.072 53.7277 116.913 53.5072 116.803 53.2552C116.694 52.999 116.64 52.7218 116.64 52.4236C116.64 52.1253 116.696 51.8502 116.81 51.5982C116.927 51.3462 117.095 51.1257 117.314 50.9367C117.536 50.7477 117.807 50.6028 118.126 50.502C118.45 50.397 118.817 50.3445 119.229 50.3445Z" fill="#228BE6"/>
</svg>
